{
.appVersion = "3151";
.formatVersion = 3;
DisplayStrings = (
l,
m,
n,
a,
e,
"0",
"1",
"3",
"9",
"8",
i
);
axes = (
{
name = Weight;
tag = wght;
}
);
customParameters = (
{
name = panose;
value = (
0,
0,
0,
0,
0,
0,
0,
0,
0,
0
);
},
{
name = unicodeRanges;
value = (
0,
1
);
},
{
name = codePageRanges;
value = (
"1252"
);
},
{
name = glyphOrder;
value = (
.notdef,
space,
A,
B,
C,
D,
E,
F,
G,
H,
I,
J,
K,
L,
M,
N,
O,
P,
Q,
R,
S,
T,
U,
V,
W,
X,
Y,
Z,
a,
b,
c,
d,
e,
f,
g,
h,
i,
j,
k,
l,
m,
n,
o,
p,
q,
r,
s,
t,
u,
v,
w,
x,
y,
z,
zero,
one,
two,
three,
four,
five,
six,
seven,
eight,
nine,
period,
comma,
hyphen
);
}
);
date = "2024-03-31 15:48:27 +0000";
familyName = "final font";
fontMaster = (
{
axesValues = (
0
);
customParameters = (
{
name = typoAscender;
value = 800;
},
{
name = typoDescender;
value = -200;
},
{
name = typoLineGap;
value = 200;
},
{
name = winAscent;
value = 1000;
},
{
name = winDescent;
value = 200;
},
{
name = hheaAscender;
value = 1000;
},
{
name = hheaDescender;
value = -200;
},
{
name = strikeoutPosition;
value = 250;
},
{
name = strikeoutSize;
value = 50;
}
);
id = m01;
metricValues = (
{
pos = 800;
},
{
pos = 700;
},
{
pos = 500;
},
{
},
{
pos = -200;
},
{
}
);
name = Regular;
},
{
axesValues = (
100
);
customParameters = (
{
name = typoAscender;
value = 800;
},
{
name = typoDescender;
value = -200;
},
{
name = typoLineGap;
value = 200;
},
{
name = winAscent;
value = 1000;
},
{
name = winDescent;
value = 200;
},
{
name = hheaAscender;
value = 1000;
},
{
name = hheaDescender;
value = -200;
},
{
name = strikeoutPosition;
value = 250;
},
{
name = strikeoutSize;
value = 50;
}
);
id = "6B2E2D58-830D-4489-B075-47D8B481EF18";
metricValues = (
{
pos = 800;
},
{
pos = 700;
},
{
pos = 500;
},
{
},
{
pos = -200;
},
{
}
);
name = "wght=100";
}
);
glyphs = (
{
glyphname = .notdef;
layers = (
{
layerId = m01;
shapes = (
{
closed = 1;
nodes = (
(93,800,l),
(93,-200,l),
(410,-200,l),
(410,800,l)
);
},
{
closed = 1;
nodes = (
(333,5,l),
(167,5,l),
(167,118,l),
(333,118,l)
);
},
{
closed = 1;
nodes = (
(200,85,l),
(200,38,l),
(300,38,l),
(300,85,l)
);
},
{
closed = 1;
nodes = (
(333,178,l),
(167,178,l),
(167,291,l),
(200,291,l),
(200,211,l),
(300,211,l),
(300,258,l),
(267,258,l),
(267,235,l),
(233,235,l),
(233,291,l),
(333,291,l)
);
},
{
closed = 1;
nodes = (
(333,313,l),
(167,313,l),
(167,347,l),
(300,347,l),
(300,413,l),
(333,413,l)
);
},
{
closed = 1;
nodes = (
(333,440,l),
(267,440,l),
(267,370,l),
(167,370,l),
(167,403,l),
(233,403,l),
(233,440,l),
(167,440,l),
(167,473,l),
(333,473,l)
);
},
{
closed = 1;
nodes = (
(200,570,l),
(200,534,l),
(233,534,l),
(233,570,l)
);
},
{
closed = 1;
nodes = (
(267,534,l),
(333,534,l),
(333,500,l),
(167,500,l),
(167,604,l),
(267,604,l)
);
},
{
closed = 1;
nodes = (
(333,700,l),
(267,700,l),
(267,663,l),
(333,663,l),
(333,630,l),
(167,630,l),
(167,663,l),
(233,663,l),
(233,700,l),
(168,700,l),
(168,733,l),
(333,733,l)
);
},
{
closed = 1;
nodes = (
(333,-51,l),
(301,-51,l),
(231,-98,l),
(333,-98,l),
(333,-131,l),
(167,-131,l),
(167,-98,l),
(237,-51,l),
(167,-51,l),
(167,-18,l),
(333,-18,l)
);
}
);
width = 500;
},
{
layerId = "6B2E2D58-830D-4489-B075-47D8B481EF18";
shapes = (
{
closed = 1;
nodes = (
(93,800,l),
(93,-200,l),
(410,-200,l),
(410,800,l)
);
},
{
closed = 1;
nodes = (
(333,5,l),
(167,5,l),
(167,118,l),
(333,118,l)
);
},
{
closed = 1;
nodes = (
(200,85,l),
(200,38,l),
(300,38,l),
(300,85,l)
);
},
{
closed = 1;
nodes = (
(333,178,l),
(167,178,l),
(167,291,l),
(200,291,l),
(200,211,l),
(300,211,l),
(300,258,l),
(267,258,l),
(267,235,l),
(233,235,l),
(233,291,l),
(333,291,l)
);
},
{
closed = 1;
nodes = (
(333,313,l),
(167,313,l),
(167,347,l),
(300,347,l),
(300,413,l),
(333,413,l)
);
},
{
closed = 1;
nodes = (
(333,440,l),
(267,440,l),
(267,370,l),
(167,370,l),
(167,403,l),
(233,403,l),
(233,440,l),
(167,440,l),
(167,473,l),
(333,473,l)
);
},
{
closed = 1;
nodes = (
(200,570,l),
(200,534,l),
(233,534,l),
(233,570,l)
);
},
{
closed = 1;
nodes = (
(267,534,l),
(333,534,l),
(333,500,l),
(167,500,l),
(167,604,l),
(267,604,l)
);
},
{
closed = 1;
nodes = (
(333,700,l),
(267,700,l),
(267,663,l),
(333,663,l),
(333,630,l),
(167,630,l),
(167,663,l),
(233,663,l),
(233,700,l),
(168,700,l),
(168,733,l),
(333,733,l)
);
},
{
closed = 1;
nodes = (
(333,-51,l),
(301,-51,l),
(231,-98,l),
(333,-98,l),
(333,-131,l),
(167,-131,l),
(167,-98,l),
(237,-51,l),
(167,-51,l),
(167,-18,l),
(333,-18,l)
);
}
);
width = 500;
}
);
note = ".notdef";
},
{
glyphname = a;
lastChange = "2024-04-05 18:53:02 +0000";
layers = (
{
layerId = m01;
shapes = (
{
closed = 1;
nodes = (
(397,383,ls),
(397,408,o),
(355,450,o),
(330,450,qs),
(213,450,ls),
(188,450,o),
(147,408,o),
(147,383,qs),
(147,369,o),
(127,350,o),
(100,350,o),
(90,360,qs),
(80,370,o),
(80,397,o),
(99,417,o),
(113,417,qs),
(139,417,o),
(180,461,o),
(180,492,qs),
(180,505,o),
(192,517,o),
(205,517,qs),
(338,517,ls),
(352,517,o),
(363,505,o),
(363,492,qs),
(363,461,o),
(404,417,o),
(430,417,qs),
(444,417,o),
(463,397,o),
(463,383,qs),
(463,233,ls),
(463,220,o),
(444,200,o),
(430,200,qs),
(416,200,o),
(397,220,o),
(397,233,qs),
(397,258,o),
(355,300,o),
(330,300,qs),
(213,300,ls),
(188,300,o),
(147,258,o),
(147,233,qs),
(147,219,o),
(127,200,o),
(100,200,o),
(90,210,qs),
(80,220,o),
(80,247,o),
(99,267,o),
(113,267,qs),
(139,267,o),
(180,311,o),
(180,342,qs),
(180,355,o),
(192,367,o),
(205,367,qs),
(338,367,ls),
(352,367,o),
(363,355,o),
(363,342,qs),
(363,325,l),
(363,322,ls),
(363,313,o),
(367,303,o),
(376,301,qs),
(397,295,o),
(397,317,qs)
);
},
{
closed = 1;
nodes = (
(139,100,o),
(180,56,o),
(180,25,qs),
(180,12,o),
(192,0,o),
(205,0,qs),
(338,0,ls),
(352,0,o),
(363,12,o),
(363,25,qs),
(363,56,o),
(404,100,o),
(430,100,qs),
(444,100,o),
(463,120,o),
(464,147,o),
(454,157,qs),
(444,167,o),
(416,166,o),
(397,148,o),
(397,133,qs),
(397,108,o),
(355,67,o),
(330,67,qs),
(213,67,ls),
(188,67,o),
(147,108,o),
(147,133,qs),
(147,148,o),
(127,166,o),
(100,167,o),
(90,157,qs),
(80,147,o),
(80,120,o),
(99,100,o),
(113,100,qs)
);
},
{
closed = 1;
nodes = (
(397,383,ls),
(397,408,o),
(355,450,o),
(330,450,qs),
(213,450,ls),
(188,450,o),
(147,408,o),
(147,383,qs),
(147,369,o),
(127,350,o),
(100,350,o),
(90,360,qs),
(80,370,o),
(80,397,o),
(99,417,o),
(113,417,qs),
(139,417,o),
(180,461,o),
(180,492,qs),
(180,505,o),
(192,517,o),
(205,517,qs),
(338,517,ls),
(352,517,o),
(363,505,o),
(363,492,qs),
(363,461,o),
(404,417,o),
(430,417,qs),
(444,417,o),
(463,397,o),
(463,383,qs),
(463,233,ls),
(463,220,o),
(444,200,o),
(430,200,qs),
(416,200,o),
(397,220,o),
(397,233,qs),
(397,258,o),
(355,300,o),
(330,300,qs),
(213,300,ls),
(188,300,o),
(147,258,o),
(147,233,qs),
(147,219,o),
(127,200,o),
(100,200,o),
(90,210,qs),
(80,220,o),
(80,247,o),
(99,267,o),
(113,267,qs),
(139,267,o),
(180,311,o),
(180,342,qs),
(180,355,o),
(192,367,o),
(205,367,qs),
(338,367,ls),
(352,367,o),
(363,355,o),
(363,342,qs),
(363,325,l),
(363,322,ls),
(363,313,o),
(367,303,o),
(376,301,qs),
(397,295,o),
(397,317,qs)
);
}
);
width = 543.52;
},
{
layerId = "6B2E2D58-830D-4489-B075-47D8B481EF18";
shapes = (
{
closed = 1;
nodes = (
(397,666,ls),
(397,691,o),
(355,733,o),
(330,733,qs),
(213,733,ls),
(188,733,o),
(147,691,o),
(147,666,qs),
(147,652,o),
(127,633,o),
(100,633,o),
(90,643,qs),
(80,653,o),
(80,680,o),
(99,700,o),
(113,700,qs),
(139,700,o),
(180,744,o),
(180,775,qs),
(180,788,o),
(192,800,o),
(205,800,qs),
(338,800,ls),
(352,800,o),
(363,788,o),
(363,775,qs),
(363,744,o),
(404,700,o),
(430,700,qs),
(444,700,o),
(463,680,o),
(463,666,qs),
(463,233,ls),
(463,220,o),
(444,200,o),
(430,200,qs),
(416,200,o),
(397,220,o),
(397,233,qs),
(397,258,o),
(355,300,o),
(330,300,qs),
(213,300,ls),
(188,300,o),
(147,258,o),
(147,233,qs),
(147,219,o),
(127,200,o),
(100,200,o),
(90,210,qs),
(80,220,o),
(80,247,o),
(99,267,o),
(113,267,qs),
(139,267,o),
(180,311,o),
(180,342,qs),
(180,355,o),
(192,367,o),
(205,367,qs),
(338,367,ls),
(352,367,o),
(363,355,o),
(363,342,qs),
(363,325,l),
(363,322,ls),
(363,313,o),
(367,303,o),
(376,301,qs),
(397,295,o),
(397,317,qs)
);
},
{
closed = 1;
nodes = (
(139,100,o),
(180,56,o),
(180,25,qs),
(180,12,o),
(192,0,o),
(205,0,qs),
(338,0,ls),
(352,0,o),
(363,12,o),
(363,25,qs),
(363,56,o),
(404,100,o),
(430,100,qs),
(444,100,o),
(463,120,o),
(464,147,o),
(454,157,qs),
(444,167,o),
(416,166,o),
(397,148,o),
(397,133,qs),
(397,108,o),
(355,67,o),
(330,67,qs),
(213,67,ls),
(188,67,o),
(147,108,o),
(147,133,qs),
(147,148,o),
(127,166,o),
(100,167,o),
(90,157,qs),
(80,147,o),
(80,120,o),
(99,100,o),
(113,100,qs)
);
},
{
closed = 1;
nodes = (
(397,520.716,ls),
(397,545.716,o),
(355,587.716,o),
(330,587.716,qs),
(213,587.716,ls),
(188,587.716,o),
(147,545.716,o),
(147,520.716,qs),
(147,506.716,o),
(127,487.716,o),
(100,487.716,o),
(90,497.716,qs),
(80,507.716,o),
(80,534.716,o),
(99,554.716,o),
(113,554.716,qs),
(139,554.716,o),
(180,598.716,o),
(180,629.716,qs),
(180,642.716,o),
(192,654.716,o),
(205,654.716,qs),
(338,654.716,ls),
(352,654.716,o),
(363,642.716,o),
(363,629.716,qs),
(363,598.716,o),
(404,554.716,o),
(430,554.716,qs),
(444,554.716,o),
(463,534.716,o),
(463,520.716,qs),
(463,370.716,ls),
(463,357.716,o),
(444,337.716,o),
(430,337.716,qs),
(416,337.716,o),
(397,357.716,o),
(397,370.716,qs),
(397,395.716,o),
(355,437.716,o),
(330,437.716,qs),
(213,437.716,ls),
(188,437.716,o),
(147,395.716,o),
(147,370.716,qs),
(147,356.716,o),
(127,337.716,o),
(100,337.716,o),
(90,347.716,qs),
(80,357.716,o),
(80,384.716,o),
(99,404.716,o),
(113,404.716,qs),
(139,404.716,o),
(180,448.716,o),
(180,479.716,qs),
(180,492.716,o),
(192,504.716,o),
(205,504.716,qs),
(338,504.716,ls),
(352,504.716,o),
(363,492.716,o),
(363,479.716,qs),
(363,462.716,l),
(363,459.716,ls),
(363,450.716,o),
(367,440.716,o),
(376,438.716,qs),
(397,432.716,o),
(397,454.716,qs)
);
}
);
width = 543.52;
}
);
note = a;
unicode = 97;
},
{
glyphname = b;
lastChange = "2024-04-05 18:36:15 +0000";
layers = (
{
layerId = m01;
shapes = (
{
closed = 1;
nodes = (
(180.068,475.001,l),
(180.068,463.853,o),
(181.379,453.923,o),
(167.382,450.482,c),
(153.629,447.106,o),
(146.736,452.505,o),
(146.736,466.668,c),
(146.736,666.668,l),
(146.736,685.076,o),
(131.812,700,o),
(113.398,700,c),
(94.995,700,o),
(80.066,685.076,o),
(80.066,666.668,c),
(80.066,383.332,l),
(80.066,233.336,l),
(80.066,214.928,o),
(94.995,199.998,o),
(113.398,199.998,c),
(131.812,199.998,o),
(146.736,214.928,o),
(146.736,233.336,c),
(146.736,383.332,l),
(146.736,416.664,o),
(180.068,449.997,o),
(213.4,449.997,c),
(330.069,449.997,l),
(363.402,449.997,o),
(396.734,416.664,o),
(396.734,383.332,c),
(396.734,358.338,l),
(396.734,339.924,o),
(411.658,325,o),
(430.066,325,c),
(448.48,325,o),
(463.399,339.924,o),
(463.399,358.338,c),
(463.399,383.332,l),
(463.399,401.746,o),
(448.48,416.664,o),
(430.066,416.664,c),
(396.734,416.664,o),
(363.402,449.997,o),
(363.402,491.667,c),
(363.402,509.348,o),
(356.082,516.667,o),
(338.402,516.667,c),
(205.067,516.667,l),
(187.393,516.667,o),
(180.068,509.348,o),
(180.068,491.667,c)
);
},
{
closed = 1;
nodes = (
(396.735,133.335,l),
(396.735,100.002,o),
(363.403,66.67,o),
(330.065,66.67,c),
(213.402,66.67,l),
(180.069,66.67,o),
(146.737,100.002,o),
(146.737,133.335,c),
(146.737,163.032,o),
(110.832,177.902,o),
(89.829,156.905,c),
(68.832,135.908,o),
(83.702,100.002,o),
(113.399,100.002,c),
(146.737,100.002,o),
(180.069,66.67,o),
(180.069,24.999,c),
(180.069,7.324,o),
(187.388,0,o),
(205.068,0,c),
(338.398,0,l),
(356.078,0,o),
(363.403,7.324,o),
(363.403,24.999,c),
(363.403,66.67,o),
(396.735,100.002,o),
(430.067,100.002,c),
(448.476,100.002,o),
(463.4,114.927,o),
(463.4,133.335,c),
(463.4,258.337,l),
(463.4,276.745,o),
(448.476,291.669,o),
(430.067,291.669,c),
(411.659,291.669,o),
(396.735,276.745,o),
(396.735,258.337,c)
);
},
{
closed = 1;
nodes = (
(180.068,475.001,l),
(180.068,463.853,o),
(181.379,453.923,o),
(167.382,450.482,c),
(153.629,447.106,o),
(146.736,452.505,o),
(146.736,466.668,c),
(146.736,666.668,l),
(146.736,685.076,o),
(131.812,700,o),
(113.398,700,c),
(94.995,700,o),
(80.066,685.076,o),
(80.066,666.668,c),
(80.066,383.332,l),
(80.066,233.336,l),
(80.066,214.928,o),
(94.995,199.998,o),
(113.398,199.998,c),
(131.812,199.998,o),
(146.736,214.928,o),
(146.736,233.336,c),
(146.736,383.332,l),
(146.736,416.664,o),
(180.068,449.997,o),
(213.4,449.997,c),
(330.069,449.997,l),
(363.402,449.997,o),
(396.734,416.664,o),
(396.734,383.332,c),
(396.734,358.338,l),
(396.734,339.924,o),
(411.658,325,o),
(430.066,325,c),
(448.48,325,o),
(463.399,339.924,o),
(463.399,358.338,c),
(463.399,383.332,l),
(463.399,401.746,o),
(448.48,416.664,o),
(430.066,416.664,c),
(396.734,416.664,o),
(363.402,449.997,o),
(363.402,491.667,c),
(363.402,509.348,o),
(356.082,516.667,o),
(338.402,516.667,c),
(205.067,516.667,l),
(187.393,516.667,o),
(180.068,509.348,o),
(180.068,491.667,c)
);
},
{
closed = 1;
nodes = (
(180.068,475.001,l),
(180.068,463.853,o),
(181.379,453.923,o),
(167.382,450.482,c),
(153.629,447.106,o),
(146.736,452.505,o),
(146.736,466.668,c),
(146.736,666.668,l),
(146.736,685.076,o),
(131.812,700,o),
(113.398,700,c),
(94.995,700,o),
(80.066,685.076,o),
(80.066,666.668,c),
(80.066,383.332,l),
(80.066,233.336,l),
(80.066,214.928,o),
(94.995,199.998,o),
(113.398,199.998,c),
(131.812,199.998,o),
(146.736,214.928,o),
(146.736,233.336,c),
(146.736,383.332,l),
(146.736,416.664,o),
(180.068,449.997,o),
(213.4,449.997,c),
(330.069,449.997,l),
(363.402,449.997,o),
(396.734,416.664,o),
(396.734,383.332,c),
(396.734,358.338,l),
(396.734,339.924,o),
(411.658,325,o),
(430.066,325,c),
(448.48,325,o),
(463.399,339.924,o),
(463.399,358.338,c),
(463.399,383.332,l),
(463.399,401.746,o),
(448.48,416.664,o),
(430.066,416.664,c),
(396.734,416.664,o),
(363.402,449.997,o),
(363.402,491.667,c),
(363.402,509.348,o),
(356.082,516.667,o),
(338.402,516.667,c),
(205.067,516.667,l),
(187.393,516.667,o),
(180.068,509.348,o),
(180.068,491.667,c)
);
}
);
width = 542;
},
{
layerId = "6B2E2D58-830D-4489-B075-47D8B481EF18";
shapes = (
{
closed = 1;
nodes = (
(180.068,475.001,l),
(180.068,463.853,o),
(181.379,453.923,o),
(167.382,450.482,c),
(153.629,447.106,o),
(146.736,452.505,o),
(146.736,466.668,c),
(146.736,666.668,l),
(146.736,685.076,o),
(131.812,700,o),
(113.398,700,c),
(94.995,700,o),
(80.066,685.076,o),
(80.066,666.668,c),
(80.066,383.332,l),
(80.066,233.336,l),
(80.066,214.928,o),
(94.995,199.998,o),
(113.398,199.998,c),
(131.812,199.998,o),
(146.736,214.928,o),
(146.736,233.336,c),
(146.736,383.332,l),
(146.736,416.664,o),
(180.068,449.997,o),
(213.4,449.997,c),
(330.069,449.997,l),
(363.402,449.997,o),
(396.734,416.664,o),
(396.734,383.332,c),
(396.734,358.338,l),
(396.734,339.924,o),
(411.658,325,o),
(430.066,325,c),
(448.48,325,o),
(463.399,339.924,o),
(463.399,358.338,c),
(463.399,383.332,l),
(463.399,401.746,o),
(448.48,416.664,o),
(430.066,416.664,c),
(396.734,416.664,o),
(363.402,449.997,o),
(363.402,491.667,c),
(363.402,509.348,o),
(356.082,516.667,o),
(338.402,516.667,c),
(205.067,516.667,l),
(187.393,516.667,o),
(180.068,509.348,o),
(180.068,491.667,c)
);
},
{
closed = 1;
nodes = (
(396.735,133.335,l),
(396.735,100.002,o),
(363.403,66.67,o),
(330.065,66.67,c),
(213.402,66.67,l),
(180.069,66.67,o),
(146.737,100.002,o),
(146.737,133.335,c),
(146.737,163.032,o),
(110.832,177.902,o),
(89.829,156.905,c),
(68.832,135.908,o),
(83.702,100.002,o),
(113.399,100.002,c),
(146.737,100.002,o),
(180.069,66.67,o),
(180.069,25,c),
(180.069,7.324,o),
(187.388,0,o),
(205.068,0,c),
(338.398,0,l),
(356.078,0,o),
(363.403,7.324,o),
(363.403,25,c),
(363.403,66.67,o),
(396.735,100.002,o),
(430.067,100.002,c),
(448.476,100.002,o),
(463.4,114.927,o),
(463.4,133.335,c),
(463.4,258.337,l),
(463.4,276.745,o),
(448.476,291.669,o),
(430.067,291.669,c),
(411.659,291.669,o),
(396.735,276.745,o),
(396.735,258.337,c)
);
},
{
closed = 1;
nodes = (
(180.068,758.334,l),
(180.068,747.186,o),
(181.379,737.256,o),
(167.382,733.815,c),
(153.629,730.439,o),
(146.736,735.838,o),
(146.736,750.001,c),
(146.736,766.668,l),
(146.736,785.076,o),
(131.812,800,o),
(113.398,800,c),
(94.995,800,o),
(80.066,785.076,o),
(80.066,766.668,c),
(80.066,483.332,l),
(80.066,333.336,l),
(80.066,314.928,o),
(94.995,299.998,o),
(113.398,299.998,c),
(131.812,299.998,o),
(146.736,314.928,o),
(146.736,333.336,c),
(146.736,666.665,l),
(146.736,699.997,o),
(180.068,733.33,o),
(213.4,733.33,c),
(330.069,733.33,l),
(363.402,733.33,o),
(396.734,699.997,o),
(396.734,666.665,c),
(396.734,641.671,l),
(396.734,623.257,o),
(411.658,608.333,o),
(430.066,608.333,c),
(448.48,608.333,o),
(463.399,623.257,o),
(463.399,641.671,c),
(463.399,666.665,l),
(463.399,685.079,o),
(448.48,699.997,o),
(430.066,699.997,c),
(396.734,699.997,o),
(363.402,733.33,o),
(363.402,775,c),
(363.402,792.681,o),
(356.082,800,o),
(338.402,800,c),
(205.067,800,l),
(187.393,800,o),
(180.068,792.681,o),
(180.068,775,c)
);
},
{
closed = 1;
nodes = (
(180.068,616.897,l),
(180.068,605.749,o),
(181.379,595.819,o),
(167.382,592.378,c),
(153.629,589.002,o),
(146.736,594.401,o),
(146.736,608.564,c),
(146.736,737.22,l),
(146.736,755.628,o),
(131.812,770.552,o),
(113.398,770.552,c),
(94.995,770.552,o),
(80.066,755.628,o),
(80.066,737.22,c),
(80.066,453.884,l),
(80.066,303.888,l),
(80.066,285.48,o),
(94.995,270.55,o),
(113.398,270.55,c),
(131.812,270.55,o),
(146.736,285.48,o),
(146.736,303.888,c),
(146.736,525.228,l),
(146.736,558.56,o),
(180.068,591.893,o),
(213.4,591.893,c),
(330.069,591.893,l),
(363.402,591.893,o),
(396.734,558.56,o),
(396.734,525.228,c),
(396.734,500.234,l),
(396.734,481.82,o),
(411.658,466.896,o),
(430.066,466.896,c),
(448.48,466.896,o),
(463.399,481.82,o),
(463.399,500.234,c),
(463.399,525.228,l),
(463.399,543.642,o),
(448.48,558.56,o),
(430.066,558.56,c),
(396.734,558.56,o),
(363.402,591.893,o),
(363.402,633.563,c),
(363.402,651.244,o),
(356.082,658.563,o),
(338.402,658.563,c),
(205.067,658.563,l),
(187.393,658.563,o),
(180.068,651.244,o),
(180.068,633.563,c)
);
}
);
width = 543.4;
}
);
note = b;
unicode = 98;
},
{
glyphname = c;
lastChange = "2024-04-05 18:39:18 +0000";
layers = (
{
layerId = m01;
shapes = (
{
closed = 1;
nodes = (
(147,259,ls),
(147,272,o),
(127,292,o),
(113,292,qs),
(100,292,o),
(80,272,o),
(80,259,qs),
(80,133,ls),
(80,120,o),
(100,100,o),
(113,100,qs),
(139,100,o),
(180,56,o),
(180,25,qs),
(180,12,o),
(192,0,o),
(205,0,qs),
(339,0,ls),
(352,0,o),
(364,12,o),
(364,25,qs),
(364,56,o),
(405,100,o),
(430,100,qs),
(445,100,o),
(464,120,o),
(464,147,o),
(454,157,qs),
(444,167,o),
(417,167,o),
(397,148,o),
(397,133,qs),
(397,108,o),
(355,67,o),
(330,67,qs),
(213,67,ls),
(188,67,o),
(147,108,o),
(147,133,qs)
);
},
{
closed = 1;
nodes = (
(147,384,ls),
(147,409,o),
(188,451,o),
(213,451,qs),
(330,451,ls),
(355,451,o),
(397,409,o),
(397,384,qs),
(397,369,o),
(417,351,o),
(444,350,o),
(454,360,qs),
(464,370,o),
(464,397,o),
(445,417,o),
(430,417,qs),
(405,417,o),
(364,462,o),
(364,492,qs),
(364,506,o),
(352,517,o),
(339,517,qs),
(205,517,ls),
(192,517,o),
(180,506,o),
(180,492,qs),
(180,462,o),
(139,417,o),
(113,417,qs),
(100,417,o),
(80,398,o),
(80,384,qs),
(80,359,ls),
(80,345,o),
(100,325,o),
(113,325,qs),
(127,325,o),
(147,345,o),
(147,359,qs)
);
},
{
closed = 1;
nodes = (
(147,259,ls),
(147,272,o),
(127,292,o),
(113,292,qs),
(100,292,o),
(80,272,o),
(80,259,qs),
(80,133,ls),
(80,120,o),
(100,100,o),
(113,100,qs),
(139,100,o),
(180,56,o),
(180,25,qs),
(180,12,o),
(192,0,o),
(205,0,qs),
(339,0,ls),
(352,0,o),
(364,12,o),
(364,25,qs),
(364,56,o),
(405,100,o),
(430,100,qs),
(445,100,o),
(464,120,o),
(464,147,o),
(454,157,qs),
(444,167,o),
(417,167,o),
(397,148,o),
(397,133,qs),
(397,108,o),
(355,67,o),
(330,67,qs),
(213,67,ls),
(188,67,o),
(147,108,o),
(147,133,qs)
);
},
{
closed = 1;
nodes = (
(147,384,ls),
(147,409,o),
(188,451,o),
(213,451,qs),
(330,451,ls),
(355,451,o),
(397,409,o),
(397,384,qs),
(397,369,o),
(417,351,o),
(444,350,o),
(454,360,qs),
(464,370,o),
(464,397,o),
(445,417,o),
(430,417,qs),
(405,417,o),
(364,462,o),
(364,492,qs),
(364,506,o),
(352,517,o),
(339,517,qs),
(205,517,ls),
(192,517,o),
(180,506,o),
(180,492,qs),
(180,462,o),
(139,417,o),
(113,417,qs),
(100,417,o),
(80,398,o),
(80,384,qs),
(80,359,ls),
(80,345,o),
(100,325,o),
(113,325,qs),
(127,325,o),
(147,345,o),
(147,359,qs)
);
},
{
closed = 1;
nodes = (
(147,259,ls),
(147,272,o),
(127,292,o),
(113,292,qs),
(100,292,o),
(80,272,o),
(80,259,qs),
(80,133,ls),
(80,120,o),
(100,100,o),
(113,100,qs),
(139,100,o),
(180,56,o),
(180,25,qs),
(180,12,o),
(192,0,o),
(205,0,qs),
(339,0,ls),
(352,0,o),
(364,12,o),
(364,25,qs),
(364,56,o),
(405,100,o),
(430,100,qs),
(445,100,o),
(464,120,o),
(464,147,o),
(454,157,qs),
(444,167,o),
(417,167,o),
(397,148,o),
(397,133,qs),
(397,108,o),
(355,67,o),
(330,67,qs),
(213,67,ls),
(188,67,o),
(147,108,o),
(147,133,qs)
);
},
{
closed = 1;
nodes = (
(147,384,ls),
(147,409,o),
(188,451,o),
(213,451,qs),
(330,451,ls),
(355,451,o),
(397,409,o),
(397,384,qs),
(397,369,o),
(417,351,o),
(444,350,o),
(454,360,qs),
(464,370,o),
(464,397,o),
(445,417,o),
(430,417,qs),
(405,417,o),
(364,462,o),
(364,492,qs),
(364,506,o),
(352,517,o),
(339,517,qs),
(205,517,ls),
(192,517,o),
(180,506,o),
(180,492,qs),
(180,462,o),
(139,417,o),
(113,417,qs),
(100,417,o),
(80,398,o),
(80,384,qs),
(80,359,ls),
(80,345,o),
(100,325,o),
(113,325,qs),
(127,325,o),
(147,345,o),
(147,359,qs)
);
}
);
width = 544;
},
{
layerId = "6B2E2D58-830D-4489-B075-47D8B481EF18";
shapes = (
{
closed = 1;
nodes = (
(147,259,l),
(147,272,o),
(127,292,o),
(113,292,q),
(100,292,o),
(80,272,o),
(80,259,q),
(80,133,l),
(80,120,o),
(100,100,o),
(113,100,q),
(139,100,o),
(180,56,o),
(180,25,q),
(180,12,o),
(192,0,o),
(205,0,q),
(339,0,l),
(352,0,o),
(364,12,o),
(364,25,q),
(364,56,o),
(405,100,o),
(430,100,q),
(445,100,o),
(464,120,o),
(464,147,o),
(454,157,q),
(444,167,o),
(417,167,o),
(397,148,o),
(397,133,q),
(397,108,o),
(355,67,o),
(330,67,q),
(213,67,l),
(188,67,o),
(147,108,o),
(147,133,q)
);
},
{
closed = 1;
nodes = (
(147,396.568,l),
(147,421.568,o),
(188,463.568,o),
(213,463.568,q),
(330,463.568,l),
(355,463.568,o),
(397,421.568,o),
(397,396.568,q),
(397,381.568,o),
(417,363.568,o),
(444,362.568,o),
(454,372.568,q),
(464,382.568,o),
(464,409.568,o),
(445,429.568,o),
(430,429.568,q),
(405,429.568,o),
(364,474.568,o),
(364,504.568,q),
(364,518.568,o),
(352,529.568,o),
(339,529.568,q),
(205,529.568,l),
(192,529.568,o),
(180,518.568,o),
(180,504.568,q),
(180,474.568,o),
(139,429.568,o),
(113,429.568,q),
(100,429.568,o),
(80,410.568,o),
(80,396.568,q),
(80,371.568,l),
(80,357.568,o),
(100,337.568,o),
(113,337.568,q),
(127,337.568,o),
(147,357.568,o),
(147,371.568,q)
);
},
{
closed = 1;
nodes = (
(147,393.855,l),
(147,407.855,o),
(127,426.855,o),
(113,426.855,q),
(100,426.855,o),
(80,407.855,o),
(80,393.855,q),
(80,268.855,l),
(80,254.855,o),
(100,234.855,o),
(113,234.855,q),
(139,234.855,o),
(180,190.855,o),
(180,159.855,q),
(180,146.855,o),
(192,134.855,o),
(205,134.855,q),
(339,134.855,l),
(352,134.855,o),
(364,146.855,o),
(364,159.855,q),
(364,190.855,o),
(405,234.855,o),
(430,234.855,q),
(445,234.855,o),
(464,254.855,o),
(464,281.855,o),
(454,291.855,q),
(444,301.855,o),
(417,301.855,o),
(397,282.855,o),
(397,268.855,q),
(397,243.477,o),
(355,201.855,o),
(330,201.855,q),
(213,201.855,l),
(188,201.855,o),
(147,242.855,o),
(147,268.855,q)
);
},
{
closed = 1;
nodes = (
(147,533,l),
(147,558,o),
(188,600,o),
(213,600,q),
(330,600,l),
(355,600,o),
(397,558,o),
(397,533,q),
(397,519,o),
(417,500,o),
(444,499,o),
(454,509.474,q),
(464,520,o),
(464,546.707,o),
(445,566.489,o),
(430,566.489,q),
(405,566.489,o),
(364,611,o),
(364,641.545,q),
(364,655.8,o),
(352,667,o),
(339,667,q),
(205,667,l),
(192,667,o),
(180,655,o),
(180,641,q),
(180,611,o),
(139,566,o),
(113,566,q),
(100,566,o),
(80,547,o),
(80,533,q),
(80,508,l),
(80,494.412,o),
(100,475,o),
(113,475,q),
(127,475,o),
(147,494,o),
(147,508,q)
);
},
{
closed = 1;
nodes = (
(147,522.155,l),
(147,536.155,o),
(127,555.155,o),
(113,555.155,q),
(100,555.155,o),
(80,536.155,o),
(80,522.155,q),
(80,397.155,l),
(80,383.155,o),
(100,363.155,o),
(113,363.155,q),
(139,363.155,o),
(180,319.155,o),
(180,288.155,q),
(180,275.155,o),
(192,263.155,o),
(205,263.155,q),
(339,263.155,l),
(352,263.155,o),
(364,275.155,o),
(364,288.155,q),
(364,319.155,o),
(405,363.155,o),
(430,363.155,q),
(445,363.155,o),
(464,383.155,o),
(464,410.155,o),
(454,420.155,q),
(444,430.155,o),
(417,430.155,o),
(397,411.155,o),
(397,397.155,q),
(397,371.776,o),
(355,330.155,o),
(330,330.155,q),
(213,330.155,l),
(188,330.155,o),
(147,371.155,o),
(147,397.155,q)
);
},
{
closed = 1;
nodes = (
(147,667,l),
(147,692,o),
(188,734,o),
(213,734,q),
(330,734,l),
(355,734,o),
(397,692,o),
(397,667,q),
(397,653,o),
(417,634,o),
(444,633,o),
(454,643.474,q),
(464,654,o),
(464,680.707,o),
(445,700.489,o),
(430,700.489,q),
(405,700.489,o),
(364,745,o),
(364,775,q),
(364,789,o),
(352,800,o),
(339,800,q),
(205,800,l),
(192,800,o),
(180,789,o),
(180,775,q),
(180,745,o),
(139,700,o),
(113,700,q),
(100,700,o),
(80,681,o),
(80,667,q),
(80,642,l),
(80,628.412,o),
(100,609,o),
(113,609,q),
(127,609,o),
(147,628,o),
(147,642,q)
);
}
);
width = 544;
}
);
note = c;
unicode = 99;
},
{
glyphname = d;
lastChange = "2024-04-05 18:31:40 +0000";
layers = (
{
layerId = m01;
shapes = (
{
closed = 1;
nodes = (
(363,475,l),
(363,472,ls),
(363,463,o),
(367,453,o),
(376,450,qs),
(397,445,o),
(397,467,qs),
(397,667,ls),
(397,680,o),
(416,700,o),
(430,700,qs),
(444,700,o),
(463,680,o),
(463,667,qs),
(463,383,l),
(463,233,ls),
(463,220,o),
(444,200,o),
(430,200,qs),
(416,200,o),
(397,220,o),
(397,233,qs),
(397,383,ls),
(397,408,o),
(355,450,o),
(330,450,qs),
(213,450,ls),
(188,450,o),
(147,408,o),
(147,383,qs),
(147,358,ls),
(147,345,o),
(127,325,o),
(113,325,qs),
(100,325,o),
(80,345,o),
(80,358,qs),
(80,383,ls),
(80,397,o),
(100,417,o),
(113,417,qs),
(139,417,o),
(180,461,o),
(180,492,qs),
(180,505,o),
(192,517,o),
(205,517,qs),
(338,517,ls),
(352,517,o),
(363,505,o),
(363,492,qs)
);
},
{
closed = 1;
nodes = (
(147,133,ls),
(147,108,o),
(188,67,o),
(213,67,qs),
(330,67,ls),
(355,67,o),
(397,108,o),
(397,133,qs),
(397,148,o),
(416,166,o),
(443,167,o),
(454,157,qs),
(464,147,o),
(463,120,o),
(444,100,o),
(430,100,qs),
(404,100,o),
(363,56,o),
(363,25,qs),
(363,12,o),
(352,0,o),
(338,0,qs),
(205,0,ls),
(192,0,o),
(180,12,o),
(180,25,qs),
(180,56,o),
(139,100,o),
(113,100,qs),
(100,100,o),
(80,120,o),
(80,133,qs),
(80,258,ls),
(80,272,o),
(100,292,o),
(113,292,qs),
(127,292,o),
(147,272,o),
(147,258,qs)
);
},
{
closed = 1;
nodes = (
(363,475,l),
(363,472,ls),
(363,463,o),
(367,453,o),
(376,450,qs),
(397,445,o),
(397,467,qs),
(397,667,ls),
(397,680,o),
(416,700,o),
(430,700,qs),
(444,700,o),
(463,680,o),
(463,667,qs),
(463,383,l),
(463,233,ls),
(463,220,o),
(444,200,o),
(430,200,qs),
(416,200,o),
(397,220,o),
(397,233,qs),
(397,383,ls),
(397,408,o),
(355,450,o),
(330,450,qs),
(213,450,ls),
(188,450,o),
(147,408,o),
(147,383,qs),
(147,358,ls),
(147,345,o),
(127,325,o),
(113,325,qs),
(100,325,o),
(80,345,o),
(80,358,qs),
(80,383,ls),
(80,397,o),
(100,417,o),
(113,417,qs),
(139,417,o),
(180,461,o),
(180,492,qs),
(180,505,o),
(192,517,o),
(205,517,qs),
(338,517,ls),
(352,517,o),
(363,505,o),
(363,492,qs)
);
},
{
closed = 1;
nodes = (
(147,133,ls),
(147,108,o),
(188,67,o),
(213,67,qs),
(330,67,ls),
(355,67,o),
(397,108,o),
(397,133,qs),
(397,148,o),
(416,166,o),
(443,167,o),
(454,157,qs),
(464,147,o),
(463,120,o),
(444,100,o),
(430,100,qs),
(404,100,o),
(363,56,o),
(363,25,qs),
(363,12,o),
(352,0,o),
(338,0,qs),
(205,0,ls),
(192,0,o),
(180,12,o),
(180,25,qs),
(180,56,o),
(139,100,o),
(113,100,qs),
(100,100,o),
(80,120,o),
(80,133,qs),
(80,258,ls),
(80,272,o),
(100,292,o),
(113,292,qs),
(127,292,o),
(147,272,o),
(147,258,qs)
);
},
{
closed = 1;
nodes = (
(363,475,l),
(363,472,ls),
(363,463,o),
(367,453,o),
(376,450,qs),
(397,445,o),
(397,467,qs),
(397,667,ls),
(397,680,o),
(416,700,o),
(430,700,qs),
(444,700,o),
(463,680,o),
(463,667,qs),
(463,383,l),
(463,233,ls),
(463,220,o),
(444,200,o),
(430,200,qs),
(416,200,o),
(397,220,o),
(397,233,qs),
(397,383,ls),
(397,408,o),
(355,450,o),
(330,450,qs),
(213,450,ls),
(188,450,o),
(147,408,o),
(147,383,qs),
(147,358,ls),
(147,345,o),
(127,325,o),
(113,325,qs),
(100,325,o),
(80,345,o),
(80,358,qs),
(80,383,ls),
(80,397,o),
(100,417,o),
(113,417,qs),
(139,417,o),
(180,461,o),
(180,492,qs),
(180,505,o),
(192,517,o),
(205,517,qs),
(338,517,ls),
(352,517,o),
(363,505,o),
(363,492,qs)
);
},
{
closed = 1;
nodes = (
(147,133,ls),
(147,108,o),
(188,67,o),
(213,67,qs),
(330,67,ls),
(355,67,o),
(397,108,o),
(397,133,qs),
(397,148,o),
(416,166,o),
(443,167,o),
(454,157,qs),
(464,147,o),
(463,120,o),
(444,100,o),
(430,100,qs),
(404,100,o),
(363,56,o),
(363,25,qs),
(363,12,o),
(352,0,o),
(338,0,qs),
(205,0,ls),
(192,0,o),
(180,12,o),
(180,25,qs),
(180,56,o),
(139,100,o),
(113,100,qs),
(100,100,o),
(80,120,o),
(80,133,qs),
(80,258,ls),
(80,272,o),
(100,292,o),
(113,292,qs),
(127,292,o),
(147,272,o),
(147,258,qs)
);
}
);
width = 543.52;
},
{
layerId = "6B2E2D58-830D-4489-B075-47D8B481EF18";
shapes = (
{
closed = 1;
nodes = (
(363,475,l),
(363,472,ls),
(363,463,o),
(367,453,o),
(376,450,qs),
(397,445,o),
(397,467,qs),
(397,667,ls),
(397,680,o),
(416,700,o),
(430,700,qs),
(444,700,o),
(463,680,o),
(463,667,qs),
(463,383,l),
(463,233,ls),
(463,220,o),
(444,200,o),
(430,200,qs),
(416,200,o),
(397,220,o),
(397,233,qs),
(397,383,ls),
(397,408,o),
(355,450,o),
(330,450,qs),
(213,450,ls),
(188,450,o),
(147,408,o),
(147,383,qs),
(147,358,ls),
(147,345,o),
(127,325,o),
(113,325,qs),
(100,325,o),
(80,345,o),
(80,358,qs),
(80,383,ls),
(80,397,o),
(100,417,o),
(113,417,qs),
(139,417,o),
(180,461,o),
(180,492,qs),
(180,505,o),
(192,517,o),
(205,517,qs),
(338,517,ls),
(352,517,o),
(363,505,o),
(363,492,qs)
);
},
{
closed = 1;
nodes = (
(147,133,ls),
(147,108,o),
(188,67,o),
(213,67,qs),
(330,67,ls),
(355,67,o),
(397,108,o),
(397,133,qs),
(397,148,o),
(416,166,o),
(443,167,o),
(454,157,qs),
(464,147,o),
(463,120,o),
(444,100,o),
(430,100,qs),
(404,100,o),
(363,56,o),
(363,25,qs),
(363,12,o),
(352,0,o),
(338,0,qs),
(205,0,ls),
(192,0,o),
(180,12,o),
(180,25,qs),
(180,56,o),
(139,100,o),
(113,100,qs),
(100,100,o),
(80,120,o),
(80,133,qs),
(80,258,ls),
(80,272,o),
(100,292,o),
(113,292,qs),
(127,292,o),
(147,272,o),
(147,258,qs)
);
},
{
closed = 1;
nodes = (
(363,616,l),
(363,613,ls),
(363,604,o),
(367,594,o),
(376,591,qs),
(397,586,o),
(397,608,qs),
(397,722,ls),
(397,735,o),
(416,755,o),
(430,755,qs),
(444,755,o),
(463,735,o),
(463,722,qs),
(463,438,l),
(463,288,ls),
(463,275,o),
(444,255,o),
(430,255,qs),
(416,255,o),
(397,275,o),
(397,288,qs),
(397,524,ls),
(397,549,o),
(355,591,o),
(330,591,qs),
(213,591,ls),
(188,591,o),
(147,549,o),
(147,524,qs),
(147,499,ls),
(147,486,o),
(127,466,o),
(113,466,qs),
(100,466,o),
(80,486,o),
(80,499,qs),
(80,524,ls),
(80,538,o),
(100,558,o),
(113,558,qs),
(139,558,o),
(180,602,o),
(180,633,qs),
(180,646,o),
(192,658,o),
(205,658,qs),
(338,658,ls),
(352,658,o),
(363,646,o),
(363,633,qs)
);
},
{
closed = 1;
nodes = (
(147,133,ls),
(147,108,o),
(188,67,o),
(213,67,qs),
(330,67,ls),
(355,67,o),
(397,108,o),
(397,133,qs),
(397,148,o),
(416,166,o),
(443,167,o),
(454,157,qs),
(464,147,o),
(463,120,o),
(444,100,o),
(430,100,qs),
(404,100,o),
(363,56,o),
(363,25,qs),
(363,12,o),
(352,0,o),
(338,0,qs),
(205,0,ls),
(192,0,o),
(180,12,o),
(180,25,qs),
(180,56,o),
(139,100,o),
(113,100,qs),
(100,100,o),
(80,120,o),
(80,133,qs),
(80,258,ls),
(80,272,o),
(100,292,o),
(113,292,qs),
(127,292,o),
(147,272,o),
(147,258,qs)
);
},
{
closed = 1;
nodes = (
(363,760,l),
(363,757,ls),
(363,748,o),
(367,738,o),
(376,735,qs),
(397,730,o),
(397,752,qs),
(397,769,ls),
(397,783,o),
(416,802,o),
(430,802,qs),
(444,802,o),
(463,782,o),
(463,769,qs),
(463,485,l),
(463,335,ls),
(463,322,o),
(444,302,o),
(430,302,qs),
(416,302,o),
(397,322,o),
(397,335,qs),
(397,668,ls),
(397,693,o),
(355,735,o),
(330,735,qs),
(213,735,ls),
(188,735,o),
(147,693,o),
(147,668,qs),
(147,643,ls),
(147,630,o),
(127,610,o),
(113,610,qs),
(100,610,o),
(80,630,o),
(80,643,qs),
(80,668,ls),
(80,682,o),
(100,702,o),
(113,702,qs),
(139,702,o),
(180,746,o),
(180,777,qs),
(180,790,o),
(192,802,o),
(205,802,qs),
(338,802,ls),
(352,802,o),
(363,790,o),
(363,777,qs)
);
},
{
closed = 1;
nodes = (
(147,133,ls),
(147,108,o),
(188,67,o),
(213,67,qs),
(330,67,ls),
(355,67,o),
(397,108,o),
(397,133,qs),
(397,148,o),
(416,166,o),
(443,167,o),
(454,157,qs),
(464,147,o),
(463,120,o),
(444,100,o),
(430,100,qs),
(404,100,o),
(363,56,o),
(363,25,qs),
(363,12,o),
(352,0,o),
(338,0,qs),
(205,0,ls),
(192,0,o),
(180,12,o),
(180,25,qs),
(180,56,o),
(139,100,o),
(113,100,qs),
(100,100,o),
(80,120,o),
(80,133,qs),
(80,258,ls),
(80,272,o),
(100,292,o),
(113,292,qs),
(127,292,o),
(147,272,o),
(147,258,qs)
);
}
);
width = 544;
}
);
note = d;
unicode = 100;
},
{
glyphname = e;
lastChange = "2024-04-05 18:56:01 +0000";
layers = (
{
layerId = m01;
shapes = (
{
closed = 1;
nodes = (
(147,200,ls),
(147,221,o),
(167,216,qs),
(176,214,o),
(180,204,o),
(180,194,qs),
(180,192,l),
(180,175,ls),
(180,162,o),
(192,150,o),
(205,150,qs),
(338,150,ls),
(352,150,o),
(363,162,o),
(363,175,qs),
(363,206,o),
(404,250,o),
(430,250,qs),
(444,250,o),
(463,270,o),
(464,297,o),
(454,307,qs),
(443,317,o),
(416,316,o),
(397,298,o),
(397,283,qs),
(397,258,o),
(355,217,o),
(330,217,qs),
(213,217,ls),
(188,217,o),
(147,258,o),
(147,283,qs),
(147,297,o),
(127,317,o),
(113,317,qs),
(100,317,o),
(80,297,o),
(80,283,qs),
(80,133,ls),
(80,120,o),
(100,100,o),
(113,100,qs),
(139,100,o),
(180,56,o),
(180,25,qs),
(180,12,o),
(192,0,o),
(205,0,qs),
(338,0,ls),
(352,0,o),
(363,12,o),
(363,25,qs),
(363,56,o),
(404,100,o),
(430,100,qs),
(444,100,o),
(463,120,o),
(464,147,o),
(454,157,qs),
(443,167,o),
(416,166,o),
(397,148,o),
(397,133,qs),
(397,108,o),
(355,67,o),
(330,67,qs),
(213,67,ls),
(188,67,o),
(147,108,o),
(147,133,qs)
);
},
{
closed = 1;
nodes = (
(404,417,o),
(363,461,o),
(363,492,qs),
(363,505,o),
(352,517,o),
(338,517,qs),
(205,517,ls),
(192,517,o),
(180,505,o),
(180,492,qs),
(180,461,o),
(139,417,o),
(113,417,qs),
(99,417,o),
(80,397,o),
(80,370,o),
(90,360,qs),
(100,350,o),
(127,350,o),
(147,369,o),
(147,383,qs),
(147,408,o),
(188,450,o),
(213,450,qs),
(330,450,ls),
(355,450,o),
(397,408,o),
(397,383,qs),
(397,369,o),
(416,350,o),
(443,350,o),
(454,360,qs),
(464,370,o),
(463,397,o),
(444,417,o),
(430,417,qs)
);
},
{
closed = 1;
nodes = (
(404,417,o),
(363,461,o),
(363,492,qs),
(363,505,o),
(352,517,o),
(338,517,qs),
(205,517,ls),
(192,517,o),
(180,505,o),
(180,492,qs),
(180,461,o),
(139,417,o),
(113,417,qs),
(99,417,o),
(80,397,o),
(80,370,o),
(90,360,qs),
(100,350,o),
(127,350,o),
(147,369,o),
(147,383,qs),
(147,408,o),
(188,450,o),
(213,450,qs),
(330,450,ls),
(355,450,o),
(397,408,o),
(397,383,qs),
(397,369,o),
(416,350,o),
(443,350,o),
(454,360,qs),
(464,370,o),
(463,397,o),
(444,417,o),
(430,417,qs)
);
},
{
closed = 1;
nodes = (
(404,417,o),
(363,461,o),
(363,492,qs),
(363,505,o),
(352,517,o),
(338,517,qs),
(205,517,ls),
(192,517,o),
(180,505,o),
(180,492,qs),
(180,461,o),
(139,417,o),
(113,417,qs),
(99,417,o),
(80,397,o),
(80,370,o),
(90,360,qs),
(100,350,o),
(127,350,o),
(147,369,o),
(147,383,qs),
(147,408,o),
(188,450,o),
(213,450,qs),
(330,450,ls),
(355,450,o),
(397,408,o),
(397,383,qs),
(397,369,o),
(416,350,o),
(443,350,o),
(454,360,qs),
(464,370,o),
(463,397,o),
(444,417,o),
(430,417,qs)
);
}
);
width = 544;
},
{
layerId = "6B2E2D58-830D-4489-B075-47D8B481EF18";
shapes = (
{
closed = 1;
nodes = (
(147,200,ls),
(147,221,o),
(167,216,qs),
(176,214,o),
(180,204,o),
(180,194,qs),
(180,192,l),
(180,175,ls),
(180,162,o),
(192,150,o),
(205,150,qs),
(338,150,ls),
(352,150,o),
(363,162,o),
(363,175,qs),
(363,206,o),
(404,250,o),
(430,250,qs),
(444,250,o),
(463,270,o),
(464,297,o),
(454,307,qs),
(443,317,o),
(416,316,o),
(397,298,o),
(397,283,qs),
(397,258,o),
(355,217,o),
(330,217,qs),
(213,217,ls),
(188,217,o),
(147,258,o),
(147,283,qs),
(147,297,o),
(127,317,o),
(113,317,qs),
(100,317,o),
(80,297,o),
(80,283,qs),
(80,133,ls),
(80,120,o),
(100,100,o),
(113,100,qs),
(139,100,o),
(180,56,o),
(180,25,qs),
(180,12,o),
(192,0,o),
(205,0,qs),
(338,0,ls),
(352,0,o),
(363,12,o),
(363,25,qs),
(363,56,o),
(404,100,o),
(430,100,qs),
(444,100,o),
(463,120,o),
(464,147,o),
(454,157,qs),
(443,167,o),
(416,166,o),
(397,148,o),
(397,133,qs),
(397,108,o),
(355,67,o),
(330,67,qs),
(213,67,ls),
(188,67,o),
(147,108,o),
(147,133,qs)
);
},
{
closed = 1;
nodes = (
(404,417,o),
(363,461,o),
(363,492,qs),
(363,505,o),
(352,517,o),
(338,517,qs),
(205,517,ls),
(192,517,o),
(180,505,o),
(180,492,qs),
(180,461,o),
(139,417,o),
(113,417,qs),
(99,417,o),
(80,397,o),
(80,370,o),
(90,360,qs),
(100,350,o),
(127,350,o),
(147,369,o),
(147,383,qs),
(147,408,o),
(188,450,o),
(213,450,qs),
(330,450,ls),
(355,450,o),
(397,408,o),
(397,383,qs),
(397,369,o),
(416,350,o),
(443,350,o),
(454,360,qs),
(464,370,o),
(463,397,o),
(444,417,o),
(430,417,qs)
);
},
{
closed = 1;
nodes = (
(404,700,o),
(363,744,o),
(363,775,qs),
(363,788,o),
(352,800,o),
(338,800,qs),
(205,800,ls),
(192,800,o),
(180,788,o),
(180,775,qs),
(180,744,o),
(139,700,o),
(113,700,qs),
(99,700,o),
(80,680,o),
(80,653,o),
(90,643,qs),
(100,633,o),
(127,633,o),
(147,652,o),
(147,666,qs),
(147,691,o),
(188,733,o),
(213,733,qs),
(330,733,ls),
(355,733,o),
(397,691,o),
(397,666,qs),
(397,652,o),
(416,633,o),
(443,633,o),
(454,643,qs),
(464,653,o),
(463,680,o),
(444,700,o),
(430,700,qs)
);
},
{
closed = 1;
nodes = (
(404,558.329,o),
(363,602.329,o),
(363,633.329,qs),
(363,646.329,o),
(352,658.329,o),
(338,658.329,qs),
(205,658.329,ls),
(192,658.329,o),
(180,646.329,o),
(180,633.329,qs),
(180,602.329,o),
(139,558.329,o),
(113,558.329,qs),
(99,558.329,o),
(80,538.329,o),
(80,511.329,o),
(90,501.329,qs),
(100,491.329,o),
(127,491.329,o),
(147,510.329,o),
(147,524.329,qs),
(147,549.329,o),
(188,591.329,o),
(213,591.329,qs),
(330,591.329,ls),
(355,591.329,o),
(397,549.329,o),
(397,524.329,qs),
(397,510.329,o),
(416,491.329,o),
(443,491.329,o),
(454,501.329,qs),
(464,511.329,o),
(463,538.329,o),
(444,558.329,o),
(430,558.329,qs)
);
}
);
width = 543.52;
}
);
note = e;
unicode = 101;
},
{
glyphname = f;
lastChange = "2024-04-05 17:27:06 +0000";
layers = (
{
layerId = m01;
shapes = (
{
closed = 1;
nodes = (
(147,592,o),
(189,634,o),
(213,634,qs),
(330,634,ls),
(355,634,o),
(397,592,o),
(397,567,qs),
(397,552,o),
(416,534,o),
(443,533,o),
(454,543,qs),
(464,553,o),
(463,580,o),
(444,600,o),
(430,600,qs),
(405,600,o),
(364,645,o),
(364,675,qs),
(364,689,o),
(351,700,o),
(338,700,qs),
(205,700,ls),
(192,700,o),
(180,689,o),
(180,675,qs),
(180,645,o),
(139,600,o),
(113,600,qs),
(99,600,o),
(80,580,o),
(80,567,qs),
(80,553,o),
(99,534,o),
(113,534,qs),
(127,534,o),
(147,553,o),
(147,567,qs)
);
},
{
closed = 1;
nodes = (
(180,475,l),
(180,473,ls),
(180,463,o),
(176,452,o),
(168,451,qs),
(147,445,o),
(147,466,qs),
(147,475,ls),
(147,489,o),
(127,508,o),
(113,508,qs),
(99,508,o),
(80,489,o),
(80,475,qs),
(80,300,l),
(80,33,ls),
(80,19,o),
(99,0,o),
(113,0,qs),
(127,0,o),
(147,19,o),
(147,33,qs),
(147,383,ls),
(147,409,o),
(189,450,o),
(213,450,qs),
(246,450,ls),
(272,450,o),
(314,409,o),
(314,383,qs),
(314,369,o),
(333,350,o),
(347,350,qs),
(361,350,o),
(380,369,o),
(380,383,qs),
(380,397,o),
(361,417,o),
(347,417,qs),
(321,417,o),
(280,461,o),
(280,492,qs),
(280,505,o),
(268,516,o),
(255,516,qs),
(205,516,ls),
(192,516,o),
(180,505,o),
(180,492,qs)
);
},
{
closed = 1;
nodes = (
(147,592,o),
(189,634,o),
(213,634,qs),
(330,634,ls),
(355,634,o),
(397,592,o),
(397,567,qs),
(397,552,o),
(416,534,o),
(443,533,o),
(454,543,qs),
(464,553,o),
(463,580,o),
(444,600,o),
(430,600,qs),
(405,600,o),
(364,645,o),
(364,675,qs),
(364,689,o),
(351,700,o),
(338,700,qs),
(205,700,ls),
(192,700,o),
(180,689,o),
(180,675,qs),
(180,645,o),
(139,600,o),
(113,600,qs),
(99,600,o),
(80,580,o),
(80,567,qs),
(80,553,o),
(99,534,o),
(113,534,qs),
(127,534,o),
(147,553,o),
(147,567,qs)
);
},
{
closed = 1;
nodes = (
(180,475,l),
(180,473,ls),
(180,463,o),
(176,452,o),
(168,451,qs),
(147,445,o),
(147,466,qs),
(147,475,ls),
(147,489,o),
(127,508,o),
(113,508,qs),
(99,508,o),
(80,489,o),
(80,475,qs),
(80,300,l),
(80,33,ls),
(80,19,o),
(99,0,o),
(113,0,qs),
(127,0,o),
(147,19,o),
(147,33,qs),
(147,383,ls),
(147,409,o),
(189,450,o),
(213,450,qs),
(246,450,ls),
(272,450,o),
(314,409,o),
(314,383,qs),
(314,369,o),
(333,350,o),
(347,350,qs),
(361,350,o),
(380,369,o),
(380,383,qs),
(380,397,o),
(361,417,o),
(347,417,qs),
(321,417,o),
(280,461,o),
(280,492,qs),
(280,505,o),
(268,516,o),
(255,516,qs),
(205,516,ls),
(192,516,o),
(180,505,o),
(180,492,qs)
);
},
{
closed = 1;
nodes = (
(147,592,o),
(189,634,o),
(213,634,qs),
(330,634,ls),
(355,634,o),
(397,592,o),
(397,567,qs),
(397,552,o),
(416,534,o),
(443,533,o),
(454,543,qs),
(464,553,o),
(463,580,o),
(444,600,o),
(430,600,qs),
(405,600,o),
(364,645,o),
(364,675,qs),
(364,689,o),
(351,700,o),
(338,700,qs),
(205,700,ls),
(192,700,o),
(180,689,o),
(180,675,qs),
(180,645,o),
(139,600,o),
(113,600,qs),
(99,600,o),
(80,580,o),
(80,567,qs),
(80,553,o),
(99,534,o),
(113,534,qs),
(127,534,o),
(147,553,o),
(147,567,qs)
);
},
{
closed = 1;
nodes = (
(180,475,l),
(180,473,ls),
(180,463,o),
(176,452,o),
(168,451,qs),
(147,445,o),
(147,466,qs),
(147,475,ls),
(147,489,o),
(127,508,o),
(113,508,qs),
(99,508,o),
(80,489,o),
(80,475,qs),
(80,300,l),
(80,33,ls),
(80,19,o),
(99,0,o),
(113,0,qs),
(127,0,o),
(147,19,o),
(147,33,qs),
(147,383,ls),
(147,409,o),
(189,450,o),
(213,450,qs),
(246,450,ls),
(272,450,o),
(314,409,o),
(314,383,qs),
(314,369,o),
(333,350,o),
(347,350,qs),
(361,350,o),
(380,369,o),
(380,383,qs),
(380,397,o),
(361,417,o),
(347,417,qs),
(321,417,o),
(280,461,o),
(280,492,qs),
(280,505,o),
(268,516,o),
(255,516,qs),
(205,516,ls),
(192,516,o),
(180,505,o),
(180,492,qs)
);
}
);
width = 544;
},
{
layerId = "6B2E2D58-830D-4489-B075-47D8B481EF18";
shapes = (
{
closed = 1;
nodes = (
(147,692,o),
(189,734,o),
(213,734,qs),
(330,734,ls),
(355,734,o),
(397,692,o),
(397,667,qs),
(397,652,o),
(416,634,o),
(443,633,o),
(454,643,qs),
(464,653,o),
(463,680,o),
(444,700,o),
(430,700,qs),
(405,700,o),
(364,745,o),
(364,775,qs),
(364,789,o),
(351,800,o),
(338,800,qs),
(205,800,ls),
(192,800,o),
(180,789,o),
(180,775,qs),
(180,745,o),
(139,700,o),
(113,700,qs),
(99,700,o),
(80,680,o),
(80,667,qs),
(80,653,o),
(99,634,o),
(113,634,qs),
(127,634,o),
(147,653,o),
(147,667,qs)
);
},
{
closed = 1;
nodes = (
(180,459,l),
(180,457,ls),
(180,447,o),
(176,436,o),
(168,435,qs),
(147,429,o),
(147,450,qs),
(147,459,ls),
(147,473,o),
(127,492,o),
(113,492,qs),
(99,492,o),
(80,473,o),
(80,459,qs),
(80,84,l),
(80,33,ls),
(80,19,o),
(99,0,o),
(113,0,qs),
(127,0,o),
(147,19,o),
(147,33,qs),
(147,367,ls),
(147,393,o),
(189,434,o),
(213,434,qs),
(246,434,ls),
(272,434,o),
(314,393,o),
(314,367,qs),
(314,353,o),
(333,334,o),
(347,334,qs),
(361,334,o),
(380,353,o),
(380,367,qs),
(380,381,o),
(361,401,o),
(347,401,qs),
(321,401,o),
(280,445,o),
(280,476,qs),
(280,489,o),
(268,500,o),
(255,500,qs),
(205,500,ls),
(192,500,o),
(180,489,o),
(180,476,qs)
);
},
{
closed = 1;
nodes = (
(147,484,o),
(189,526,o),
(213,526,qs),
(330,526,ls),
(355,526,o),
(397,484,o),
(397,459,qs),
(397,444,o),
(416,426,o),
(443,425,o),
(454,435,qs),
(464,445,o),
(463,472,o),
(444,492,o),
(430,492,qs),
(405,492,o),
(364,537,o),
(364,567,qs),
(364,581,o),
(351,592,o),
(338,592,qs),
(205,592,ls),
(192,592,o),
(180,581,o),
(180,567,qs),
(180,537,o),
(139,492,o),
(113,492,qs),
(99,492,o),
(80,472,o),
(80,459,qs),
(80,445,o),
(99,426,o),
(113,426,qs),
(127,426,o),
(147,445,o),
(147,459,qs)
);
},
{
closed = 1;
nodes = (
(180,459,l),
(180,457,ls),
(180,447,o),
(176,436,o),
(168,435,qs),
(147,429,o),
(147,450,qs),
(147,459,ls),
(147,473,o),
(127,492,o),
(113,492,qs),
(99,492,o),
(80,473,o),
(80,459,qs),
(80,84,l),
(80,33,ls),
(80,19,o),
(99,0,o),
(113,0,qs),
(127,0,o),
(147,19,o),
(147,33,qs),
(147,367,ls),
(147,393,o),
(189,434,o),
(213,434,qs),
(246,434,ls),
(272,434,o),
(314,393,o),
(314,367,qs),
(314,353,o),
(333,334,o),
(347,334,qs),
(361,334,o),
(380,353,o),
(380,367,qs),
(380,381,o),
(361,401,o),
(347,401,qs),
(321,401,o),
(280,445,o),
(280,476,qs),
(280,489,o),
(268,500,o),
(255,500,qs),
(205,500,ls),
(192,500,o),
(180,489,o),
(180,476,qs)
);
},
{
closed = 1;
nodes = (
(147,591,o),
(189,633,o),
(213,633,qs),
(330,633,ls),
(355,633,o),
(397,591,o),
(397,566,qs),
(397,551,o),
(416,533,o),
(443,532,o),
(454,542,qs),
(464,552,o),
(463,579,o),
(444,599,o),
(430,599,qs),
(405,599,o),
(364,644,o),
(364,674,qs),
(364,688,o),
(351,699,o),
(338,699,qs),
(205,699,ls),
(192,699,o),
(180,688,o),
(180,674,qs),
(180,644,o),
(139,599,o),
(113,599,qs),
(99,599,o),
(80,579,o),
(80,566,qs),
(80,552,o),
(99,533,o),
(113,533,qs),
(127,533,o),
(147,552,o),
(147,566,qs)
);
},
{
closed = 1;
nodes = (
(180,459,l),
(180,457,ls),
(180,447,o),
(176,436,o),
(168,435,qs),
(147,429,o),
(147,450,qs),
(147,459,ls),
(147,473,o),
(127,492,o),
(113,492,qs),
(99,492,o),
(80,473,o),
(80,459,qs),
(80,84,l),
(80,33,ls),
(80,19,o),
(99,0,o),
(113,0,qs),
(127,0,o),
(147,19,o),
(147,33,qs),
(147,367,ls),
(147,393,o),
(189,434,o),
(213,434,qs),
(246,434,ls),
(272,434,o),
(314,393,o),
(314,367,qs),
(314,353,o),
(333,334,o),
(347,334,qs),
(361,334,o),
(380,353,o),
(380,367,qs),
(380,381,o),
(361,401,o),
(347,401,qs),
(321,401,o),
(280,445,o),
(280,476,qs),
(280,489,o),
(268,500,o),
(255,500,qs),
(205,500,ls),
(192,500,o),
(180,489,o),
(180,476,qs)
);
}
);
width = 544;
}
);
note = f;
unicode = 102;
},
{
glyphname = g;
lastChange = "2024-04-05 18:21:16 +0000";
layers = (
{
layerId = m01;
shapes = (
{
closed = 1;
nodes = (
(146,160,ls),
(146,174,o),
(127,193,o),
(113,193,qs),
(99,193,o),
(80,174,o),
(80,160,qs),
(80,136,ls),
(80,122,o),
(99,103,o),
(113,103,qs),
(138,103,o),
(179,59,o),
(179,28,qs),
(179,15,o),
(191,4,o),
(204,4,qs),
(336,4,ls),
(349,4,o),
(360,15,o),
(360,28,qs),
(360,45,l),
(360,47,ls),
(360,57,o),
(364,67,o),
(373,69,qs),
(393,74,o),
(393,53,qs),
(393,-46,ls),
(393,-71,o),
(352,-112,o),
(327,-112,qs),
(212,-112,ls),
(187,-112,o),
(146,-71,o),
(146,-46,qs),
(146,-32,o),
(127,-13,o),
(100,-13,o),
(90,-23,qs),
(80,-33,o),
(80,-59,o),
(99,-79,o),
(113,-79,qs),
(138,-79,o),
(179,-123,o),
(179,-153,qs),
(179,-166,o),
(191,-178,o),
(204,-178,qs),
(336,-178,ls),
(349,-178,o),
(360,-166,o),
(360,-153,qs),
(360,-123,o),
(401,-79,o),
(426,-79,qs),
(440,-79,o),
(459,-60,o),
(459,-46,qs),
(459,284,ls),
(459,298,o),
(440,317,o),
(426,317,qs),
(413,317,o),
(393,298,o),
(393,284,qs),
(393,136,ls),
(393,111,o),
(352,70,o),
(327,70,qs),
(212,70,ls),
(187,70,o),
(146,111,o),
(146,136,qs)
);
},
{
closed = 1;
nodes = (
(146,383,ls),
(146,408,o),
(187,449,o),
(212,449,qs),
(327,449,ls),
(352,449,o),
(393,408,o),
(393,383,qs),
(393,369,o),
(413,350,o),
(440,350,o),
(450,360,qs),
(460,370,o),
(459,396,o),
(441,416,o),
(426,416,qs),
(401,416,o),
(360,460,o),
(360,490,qs),
(360,503,o),
(349,515,o),
(336,515,qs),
(204,515,ls),
(191,515,o),
(179,503,o),
(179,490,qs),
(179,460,o),
(138,416,o),
(113,416,qs),
(99,416,o),
(80,397,o),
(80,383,qs),
(80,259,ls),
(80,246,o),
(99,226,o),
(113,226,qs),
(127,226,o),
(146,246,o),
(146,259,qs)
);
},
{
closed = 1;
nodes = (
(146,160,ls),
(146,174,o),
(127,193,o),
(113,193,qs),
(99,193,o),
(80,174,o),
(80,160,qs),
(80,136,ls),
(80,122,o),
(99,103,o),
(113,103,qs),
(138,103,o),
(179,59,o),
(179,28,qs),
(179,15,o),
(191,4,o),
(204,4,qs),
(336,4,ls),
(349,4,o),
(360,15,o),
(360,28,qs),
(360,45,l),
(360,47,ls),
(360,57,o),
(364,67,o),
(373,69,qs),
(393,74,o),
(393,53,qs),
(393,-46,ls),
(393,-71,o),
(352,-112,o),
(327,-112,qs),
(212,-112,ls),
(187,-112,o),
(146,-71,o),
(146,-46,qs),
(146,-32,o),
(127,-13,o),
(100,-13,o),
(90,-23,qs),
(80,-33,o),
(80,-59,o),
(99,-79,o),
(113,-79,qs),
(138,-79,o),
(179,-123,o),
(179,-153,qs),
(179,-166,o),
(191,-178,o),
(204,-178,qs),
(336,-178,ls),
(349,-178,o),
(360,-166,o),
(360,-153,qs),
(360,-123,o),
(401,-79,o),
(426,-79,qs),
(440,-79,o),
(459,-60,o),
(459,-46,qs),
(459,284,ls),
(459,298,o),
(440,317,o),
(426,317,qs),
(413,317,o),
(393,298,o),
(393,284,qs),
(393,136,ls),
(393,111,o),
(352,70,o),
(327,70,qs),
(212,70,ls),
(187,70,o),
(146,111,o),
(146,136,qs)
);
},
{
closed = 1;
nodes = (
(146,383,ls),
(146,408,o),
(187,449,o),
(212,449,qs),
(327,449,ls),
(352,449,o),
(393,408,o),
(393,383,qs),
(393,369,o),
(413,350,o),
(440,350,o),
(450,360,qs),
(460,370,o),
(459,396,o),
(441,416,o),
(426,416,qs),
(401,416,o),
(360,460,o),
(360,490,qs),
(360,503,o),
(349,515,o),
(336,515,qs),
(204,515,ls),
(191,515,o),
(179,503,o),
(179,490,qs),
(179,460,o),
(138,416,o),
(113,416,qs),
(99,416,o),
(80,397,o),
(80,383,qs),
(80,259,ls),
(80,246,o),
(99,226,o),
(113,226,qs),
(127,226,o),
(146,246,o),
(146,259,qs)
);
},
{
closed = 1;
nodes = (
(146,160,ls),
(146,174,o),
(127,193,o),
(113,193,qs),
(99,193,o),
(80,174,o),
(80,160,qs),
(80,136,ls),
(80,122,o),
(99,103,o),
(113,103,qs),
(138,103,o),
(179,59,o),
(179,28,qs),
(179,15,o),
(191,4,o),
(204,4,qs),
(336,4,ls),
(349,4,o),
(360,15,o),
(360,28,qs),
(360,45,l),
(360,47,ls),
(360,57,o),
(364,67,o),
(373,69,qs),
(393,74,o),
(393,53,qs),
(393,-46,ls),
(393,-71,o),
(352,-112,o),
(327,-112,qs),
(212,-112,ls),
(187,-112,o),
(146,-71,o),
(146,-46,qs),
(146,-32,o),
(127,-13,o),
(100,-13,o),
(90,-23,qs),
(80,-33,o),
(80,-59,o),
(99,-79,o),
(113,-79,qs),
(138,-79,o),
(179,-123,o),
(179,-153,qs),
(179,-166,o),
(191,-178,o),
(204,-178,qs),
(336,-178,ls),
(349,-178,o),
(360,-166,o),
(360,-153,qs),
(360,-123,o),
(401,-79,o),
(426,-79,qs),
(440,-79,o),
(459,-60,o),
(459,-46,qs),
(459,284,ls),
(459,298,o),
(440,317,o),
(426,317,qs),
(413,317,o),
(393,298,o),
(393,284,qs),
(393,136,ls),
(393,111,o),
(352,70,o),
(327,70,qs),
(212,70,ls),
(187,70,o),
(146,111,o),
(146,136,qs)
);
},
{
closed = 1;
nodes = (
(146,383,ls),
(146,408,o),
(187,449,o),
(212,449,qs),
(327,449,ls),
(352,449,o),
(393,408,o),
(393,383,qs),
(393,369,o),
(413,350,o),
(440,350,o),
(450,360,qs),
(460,370,o),
(459,396,o),
(441,416,o),
(426,416,qs),
(401,416,o),
(360,460,o),
(360,490,qs),
(360,503,o),
(349,515,o),
(336,515,qs),
(204,515,ls),
(191,515,o),
(179,503,o),
(179,490,qs),
(179,460,o),
(138,416,o),
(113,416,qs),
(99,416,o),
(80,397,o),
(80,383,qs),
(80,259,ls),
(80,246,o),
(99,226,o),
(113,226,qs),
(127,226,o),
(146,246,o),
(146,259,qs)
);
}
);
width = 539.52;
},
{
layerId = "6B2E2D58-830D-4489-B075-47D8B481EF18";
shapes = (
{
closed = 1;
nodes = (
(146,160,ls),
(146,174,o),
(127,193,o),
(113,193,qs),
(99,193,o),
(80,174,o),
(80,160,qs),
(80,136,ls),
(80,122,o),
(99,103,o),
(113,103,qs),
(138,103,o),
(179,59,o),
(179,28,qs),
(179,15,o),
(191,4,o),
(204,4,qs),
(336,4,ls),
(349,4,o),
(360,15,o),
(360,28,qs),
(360,45,l),
(360,47,ls),
(360,57,o),
(364,67,o),
(373,69,qs),
(393,74,o),
(393,53,qs),
(393,-46,ls),
(393,-71,o),
(352,-112,o),
(327,-112,qs),
(212,-112,ls),
(187,-112,o),
(146,-71,o),
(146,-46,qs),
(146,-32,o),
(127,-13,o),
(100,-13,o),
(90,-23,qs),
(80,-33,o),
(80,-59,o),
(99,-79,o),
(113,-79,qs),
(138,-79,o),
(179,-123,o),
(179,-153,qs),
(179,-166,o),
(191,-178,o),
(204,-178,qs),
(336,-178,ls),
(349,-178,o),
(360,-166,o),
(360,-153,qs),
(360,-123,o),
(401,-79,o),
(426,-79,qs),
(440,-79,o),
(459,-60,o),
(459,-46,qs),
(459,284,ls),
(459,298,o),
(440,317,o),
(426,317,qs),
(413,317,o),
(393,298,o),
(393,284,qs),
(393,136,ls),
(393,111,o),
(352,70,o),
(327,70,qs),
(212,70,ls),
(187,70,o),
(146,111,o),
(146,136,qs)
);
},
{
closed = 1;
nodes = (
(146,383,ls),
(146,408,o),
(187,449,o),
(212,449,qs),
(327,449,ls),
(352,449,o),
(393,408,o),
(393,383,qs),
(393,369,o),
(413,350,o),
(440,350,o),
(450,360,qs),
(460,370,o),
(459,396,o),
(441,416,o),
(426,416,qs),
(401,416,o),
(360,460,o),
(360,490,qs),
(360,503,o),
(349,515,o),
(336,515,qs),
(204,515,ls),
(191,515,o),
(179,503,o),
(179,490,qs),
(179,460,o),
(138,416,o),
(113,416,qs),
(99,416,o),
(80,397,o),
(80,383,qs),
(80,259,ls),
(80,246,o),
(99,226,o),
(113,226,qs),
(127,226,o),
(146,246,o),
(146,259,qs)
);
},
{
closed = 1;
nodes = (
(146,160,ls),
(146,174,o),
(127,193,o),
(113,193,qs),
(99,193,o),
(80,174,o),
(80,160,qs),
(80,136,ls),
(80,122,o),
(99,103,o),
(113,103,qs),
(138,103,o),
(179,59,o),
(179,28,qs),
(179,15,o),
(191,4,o),
(204,4,qs),
(336,4,ls),
(349,4,o),
(360,15,o),
(360,28,qs),
(360,45,l),
(360,47,ls),
(360,57,o),
(364,67,o),
(373,69,qs),
(393,74,o),
(393,53,qs),
(393,-46,ls),
(393,-71,o),
(352,-112,o),
(327,-112,qs),
(212,-112,ls),
(187,-112,o),
(146,-71,o),
(146,-46,qs),
(146,-32,o),
(127,-13,o),
(100,-13,o),
(90,-23,qs),
(80,-33,o),
(80,-59,o),
(99,-79,o),
(113,-79,qs),
(138,-79,o),
(179,-123,o),
(179,-153,qs),
(179,-166,o),
(191,-178,o),
(204,-178,qs),
(336,-178,ls),
(349,-178,o),
(360,-166,o),
(360,-153,qs),
(360,-123,o),
(401,-79,o),
(426,-79,qs),
(440,-79,o),
(459,-60,o),
(459,-46,qs),
(459,284,ls),
(459,298,o),
(440,317,o),
(426,317,qs),
(413,317,o),
(393,298,o),
(393,284,qs),
(393,136,ls),
(393,111,o),
(352,70,o),
(327,70,qs),
(212,70,ls),
(187,70,o),
(146,111,o),
(146,136,qs)
);
},
{
closed = 1;
nodes = (
(146,521,ls),
(146,546,o),
(187,587,o),
(212,587,qs),
(327,587,ls),
(352,587,o),
(393,546,o),
(393,521,qs),
(393,507,o),
(413,488,o),
(440,488,o),
(450,498,qs),
(460,508,o),
(459,534,o),
(441,554,o),
(426,554,qs),
(401,554,o),
(360,598,o),
(360,628,qs),
(360,641,o),
(349,653,o),
(336,653,qs),
(204,653,ls),
(191,653,o),
(179,641,o),
(179,628,qs),
(179,598,o),
(138,554,o),
(113,554,qs),
(99,554,o),
(80,535,o),
(80,521,qs),
(80,366,ls),
(80,353,o),
(99,333,o),
(113,333,qs),
(127,333,o),
(146,353,o),
(146,366,qs)
);
},
{
closed = 1;
nodes = (
(146,160,ls),
(146,174,o),
(127,193,o),
(113,193,qs),
(99,193,o),
(80,174,o),
(80,160,qs),
(80,136,ls),
(80,122,o),
(99,103,o),
(113,103,qs),
(138,103,o),
(179,59,o),
(179,28,qs),
(179,15,o),
(191,4,o),
(204,4,qs),
(336,4,ls),
(349,4,o),
(360,15,o),
(360,28,qs),
(360,45,l),
(360,47,ls),
(360,57,o),
(364,67,o),
(373,69,qs),
(393,74,o),
(393,53,qs),
(393,-46,ls),
(393,-71,o),
(352,-112,o),
(327,-112,qs),
(212,-112,ls),
(187,-112,o),
(146,-71,o),
(146,-46,qs),
(146,-32,o),
(127,-13,o),
(100,-13,o),
(90,-23,qs),
(80,-33,o),
(80,-59,o),
(99,-79,o),
(113,-79,qs),
(138,-79,o),
(179,-123,o),
(179,-153,qs),
(179,-166,o),
(191,-178,o),
(204,-178,qs),
(336,-178,ls),
(349,-178,o),
(360,-166,o),
(360,-153,qs),
(360,-123,o),
(401,-79,o),
(426,-79,qs),
(440,-79,o),
(459,-60,o),
(459,-46,qs),
(459,284,ls),
(459,298,o),
(440,317,o),
(426,317,qs),
(413,317,o),
(393,298,o),
(393,284,qs),
(393,136,ls),
(393,111,o),
(352,70,o),
(327,70,qs),
(212,70,ls),
(187,70,o),
(146,111,o),
(146,136,qs)
);
},
{
closed = 1;
nodes = (
(146,668,ls),
(146,693,o),
(187,734,o),
(212,734,qs),
(327,734,ls),
(352,734,o),
(393,693,o),
(393,668,qs),
(393,654,o),
(413,635,o),
(440,635,o),
(450,645,qs),
(460,655,o),
(459,681,o),
(441,701,o),
(426,701,qs),
(401,701,o),
(360,745,o),
(360,775,qs),
(360,788,o),
(349,800,o),
(336,800,qs),
(204,800,ls),
(191,800,o),
(179,788,o),
(179,775,qs),
(179,745,o),
(138,701,o),
(113,701,qs),
(99,701,o),
(80,682,o),
(80,668,qs),
(80,508,ls),
(80,495,o),
(99,475,o),
(113,475,qs),
(127,475,o),
(146,495,o),
(146,508,qs)
);
}
);
width = 540;
}
);
note = g;
unicode = 103;
},
{
glyphname = h;
lastChange = "2024-04-05 19:12:30 +0000";
layers = (
{
layerId = m01;
shapes = (
{
closed = 1;
nodes = (
(397,33,ls),
(397,20,o),
(416,0,o),
(430,0,qs),
(444,0,o),
(463,20,o),
(463,33,qs),
(463,267,ls),
(463,280,o),
(444,300,o),
(430,300,qs),
(416,300,o),
(397,280,o),
(397,267,qs)
);
},
{
closed = 1;
nodes = (
(180,475,l),
(180,472,ls),
(180,463,o),
(176,453,o),
(167,450,qs),
(147,445,o),
(147,467,qs),
(147,667,ls),
(147,680,o),
(127,700,o),
(113,700,qs),
(100,700,o),
(80,680,o),
(80,667,qs),
(80,383,l),
(80,258,ls),
(80,245,o),
(100,225,o),
(113,225,qs),
(127,225,o),
(147,245,o),
(147,258,qs),
(147,383,ls),
(147,408,o),
(188,450,o),
(213,450,qs),
(330,450,ls),
(355,450,o),
(397,408,o),
(397,383,qs),
(397,358,ls),
(397,345,o),
(416,325,o),
(430,325,qs),
(444,325,o),
(463,345,o),
(463,358,qs),
(463,383,ls),
(463,397,o),
(444,417,o),
(430,417,qs),
(404,417,o),
(363,461,o),
(363,492,qs),
(363,505,o),
(352,517,o),
(338,517,qs),
(205,517,ls),
(192,517,o),
(180,505,o),
(180,492,qs)
);
},
{
closed = 1;
nodes = (
(80,33,ls),
(80,20,o),
(100,0,o),
(113,0,qs),
(127,0,o),
(147,20,o),
(147,33,qs),
(147,158,ls),
(147,172,o),
(127,192,o),
(113,192,qs),
(100,192,o),
(80,172,o),
(80,158,qs)
);
},
{
closed = 1;
nodes = (
(397,33,ls),
(397,20,o),
(416,0,o),
(430,0,qs),
(444,0,o),
(463,20,o),
(463,33,qs),
(463,267,ls),
(463,280,o),
(444,300,o),
(430,300,qs),
(416,300,o),
(397,280,o),
(397,267,qs)
);
},
{
closed = 1;
nodes = (
(180,475,l),
(180,472,ls),
(180,463,o),
(176,453,o),
(167,450,qs),
(147,445,o),
(147,467,qs),
(147,667,ls),
(147,680,o),
(127,700,o),
(113,700,qs),
(100,700,o),
(80,680,o),
(80,667,qs),
(80,383,l),
(80,258,ls),
(80,245,o),
(100,225,o),
(113,225,qs),
(127,225,o),
(147,245,o),
(147,258,qs),
(147,383,ls),
(147,408,o),
(188,450,o),
(213,450,qs),
(330,450,ls),
(355,450,o),
(397,408,o),
(397,383,qs),
(397,358,ls),
(397,345,o),
(416,325,o),
(430,325,qs),
(444,325,o),
(463,345,o),
(463,358,qs),
(463,383,ls),
(463,397,o),
(444,417,o),
(430,417,qs),
(404,417,o),
(363,461,o),
(363,492,qs),
(363,505,o),
(352,517,o),
(338,517,qs),
(205,517,ls),
(192,517,o),
(180,505,o),
(180,492,qs)
);
},
{
closed = 1;
nodes = (
(80,33,ls),
(80,20,o),
(100,0,o),
(113,0,qs),
(127,0,o),
(147,20,o),
(147,33,qs),
(147,158,ls),
(147,172,o),
(127,192,o),
(113,192,qs),
(100,192,o),
(80,172,o),
(80,158,qs)
);
},
{
closed = 1;
nodes = (
(397,33,ls),
(397,20,o),
(416,0,o),
(430,0,qs),
(444,0,o),
(463,20,o),
(463,33,qs),
(463,267,ls),
(463,280,o),
(444,300,o),
(430,300,qs),
(416,300,o),
(397,280,o),
(397,267,qs)
);
},
{
closed = 1;
nodes = (
(180,475,l),
(180,472,ls),
(180,463,o),
(176,453,o),
(167,450,qs),
(147,445,o),
(147,467,qs),
(147,667,ls),
(147,680,o),
(127,700,o),
(113,700,qs),
(100,700,o),
(80,680,o),
(80,667,qs),
(80,383,l),
(80,258,ls),
(80,245,o),
(100,225,o),
(113,225,qs),
(127,225,o),
(147,245,o),
(147,258,qs),
(147,383,ls),
(147,408,o),
(188,450,o),
(213,450,qs),
(330,450,ls),
(355,450,o),
(397,408,o),
(397,383,qs),
(397,358,ls),
(397,345,o),
(416,325,o),
(430,325,qs),
(444,325,o),
(463,345,o),
(463,358,qs),
(463,383,ls),
(463,397,o),
(444,417,o),
(430,417,qs),
(404,417,o),
(363,461,o),
(363,492,qs),
(363,505,o),
(352,517,o),
(338,517,qs),
(205,517,ls),
(192,517,o),
(180,505,o),
(180,492,qs)
);
},
{
closed = 1;
nodes = (
(80,33,ls),
(80,20,o),
(100,0,o),
(113,0,qs),
(127,0,o),
(147,20,o),
(147,33,qs),
(147,158,ls),
(147,172,o),
(127,192,o),
(113,192,qs),
(100,192,o),
(80,172,o),
(80,158,qs)
);
}
);
width = 543;
},
{
layerId = "6B2E2D58-830D-4489-B075-47D8B481EF18";
shapes = (
{
closed = 1;
nodes = (
(398,33,l),
(398,20,o),
(417,0,o),
(431,0,q),
(445,0,o),
(464,20,o),
(464,33,q),
(464,267,l),
(464,280,o),
(445,300,o),
(431,300,q),
(417,300,o),
(398,280,o),
(397,267,q)
);
},
{
closed = 1;
nodes = (
(180,475,l),
(180,472,l),
(180,463,o),
(176.308,453,o),
(168,450,q),
(147,445,o),
(147,467,q),
(147,667,l),
(147,680,o),
(127,700,o),
(114,700,q),
(100,700,o),
(80,680,o),
(80,667,q),
(80,383,l),
(80,258,l),
(80,245,o),
(100,225,o),
(114,225,q),
(127,225,o),
(147.233,245,o),
(147.233,258,q),
(147.233,383,l),
(147.233,408,o),
(188.709,450,o),
(214,450,q),
(330.364,450,l),
(355.228,450,o),
(397,408,o),
(397,383,q),
(397,358,l),
(397,345,o),
(416.288,325,o),
(430.5,325,q),
(444.712,325,o),
(464,345,o),
(464,358,q),
(464,383,l),
(464,397,o),
(444,417,o),
(430.35,417,q),
(405,417,o),
(364,461,o),
(364,492,q),
(364,505,o),
(352,517,o),
(339,517,q),
(205.158,517,l),
(192.076,517,o),
(180,505,o),
(180,492,q)
);
},
{
closed = 1;
nodes = (
(80,33,l),
(80,20,o),
(100.606,0,o),
(114,0,q),
(127,0,o),
(147,20,o),
(147,33,q),
(147,158,l),
(147,172,o),
(127,192,o),
(114,192,q),
(100,192,o),
(80,172,o),
(80,158,q)
);
},
{
closed = 1;
nodes = (
(397.907,146.24,l),
(397.907,132.24,o),
(416.907,112.24,o),
(430.907,112.24,q),
(444.907,112.24,o),
(463.907,133.028,o),
(463.907,147.028,q),
(463,383,l),
(463,397,o),
(444,416,o),
(430,416,q),
(416,416,o),
(397,397,o),
(397,383,q)
);
},
{
closed = 1;
nodes = (
(180,612.347,l),
(180,609.347,l),
(180,599.347,o),
(176,589.347,o),
(167,587.347,q),
(147,582.347,o),
(147,603.347,q),
(147,678.347,l),
(147,692.347,o),
(127,711.347,o),
(113,711.347,q),
(100,711.347,o),
(80,692.347,o),
(80,678.347,q),
(80,520.347,l),
(80,395.347,l),
(80,381.347,o),
(100,361.347,o),
(113,361.347,q),
(127,361.347,o),
(147,381.347,o),
(147,395.347,q),
(147,519.347,l),
(147,544.347,o),
(188,586.347,o),
(213,586.347,q),
(330,586.347,l),
(355,586.347,o),
(397,545.347,o),
(397,520.347,q),
(397,464.347,l),
(397,450.347,o),
(416,430.347,o),
(430,430.347,q),
(444,430.347,o),
(463,450.347,o),
(463,464.347,q),
(463,520.347,l),
(463,534.347,o),
(444,553.347,o),
(430,553.347,q),
(404,553.347,o),
(363,598.347,o),
(363,628.347,q),
(363,641.347,o),
(352,653.347,o),
(338,653.347,q),
(205,653.347,l),
(192,653.347,o),
(180,641.347,o),
(180,629.347,q)
);
},
{
closed = 1;
nodes = (
(80,150,l),
(80,136,o),
(100,116,o),
(113,116,q),
(127,116,o),
(147,136,o),
(147,150,q),
(147,275,l),
(147,289,o),
(127,308,o),
(113,308,q),
(100,308,o),
(80,288.126,o),
(80,275,q)
);
},
{
closed = 1;
nodes = (
(397,266,l),
(397,252,o),
(416,233,o),
(430,233,q),
(444.424,233,o),
(464,252,o),
(464,266,q),
(464,500,l),
(464,513,o),
(444,533,o),
(430,533,q),
(416,533,o),
(397,513,o),
(397,500,q)
);
},
{
closed = 1;
nodes = (
(180,758,l),
(180,755,l),
(180,746,o),
(176,736,o),
(168,733,q),
(147,728,o),
(147,750,q),
(147,767,l),
(147,781,o),
(127,800,o),
(113,800,q),
(100,800,o),
(80,781,o),
(80,767,q),
(80,600,l),
(80,475,l),
(80,461,o),
(100,442,o),
(114,442,q),
(127,442,o),
(147,461,o),
(147,475,q),
(147,666,l),
(147,691,o),
(189,733,o),
(214,733,q),
(330,733,l),
(355,733,o),
(397,691,o),
(397,666,q),
(397,641,l),
(397,627,o),
(416,608,o),
(430,608,q),
(444,608,o),
(464,627,o),
(464,641,q),
(464,666,l),
(464,680,o),
(444,700,o),
(430,700,q),
(405,700,o),
(364,744,o),
(364,775,q),
(364,788,o),
(352,800,o),
(339,800,q),
(205,800,l),
(192,800,o),
(180,788,o),
(180,775,q)
);
},
{
closed = 1;
nodes = (
(80,266,l),
(80,252,o),
(100,233,o),
(114,233,q),
(127,233,o),
(147,252,o),
(147,266,q),
(147,391,l),
(147,405,o),
(127,425,o),
(114,425,q),
(100,425,o),
(80,405,o),
(80,391,q)
);
}
);
width = 544;
}
);
note = h;
unicode = 104;
},
{
glyphname = i;
lastChange = "2024-04-09 22:39:02 +0000";
layers = (
{
layerId = m01;
shapes = (
{
closed = 1;
nodes = (
(245.695,457.338,o),
(260.809,493.829,o),
(239.469,515.174,c),
(218.123,536.513,o),
(181.633,521.395,o),
(181.633,491.22,c),
(181.633,457.338,o),
(147.756,423.462,o),
(105.411,423.462,c),
(87.448,423.462,o),
(80.004,416.018,o),
(80.004,398.055,c),
(80.004,33.876,l),
(80.004,15.167,o),
(95.172,0,o),
(113.88,0,c),
(132.594,0,o),
(147.756,15.167,o),
(147.756,33.876,c),
(147.756,389.586,l),
(147.756,423.462,o),
(181.633,457.338,o),
(215.514,457.338,c)
);
},
{
closed = 1;
nodes = (
(245.695,457.338,o),
(260.809,493.829,o),
(239.469,515.174,c),
(218.123,536.513,o),
(181.633,521.395,o),
(181.633,491.22,c),
(181.633,457.338,o),
(147.756,423.462,o),
(105.411,423.462,c),
(87.448,423.462,o),
(80.004,416.018,o),
(80.004,398.055,c),
(80.004,33.876,l),
(80.004,15.167,o),
(95.172,0,o),
(113.88,0,c),
(132.594,0,o),
(147.756,15.167,o),
(147.756,33.876,c),
(147.756,389.586,l),
(147.756,423.462,o),
(181.633,457.338,o),
(215.514,457.338,c)
);
},
{
closed = 1;
nodes = (
(245.695,457.338,o),
(260.809,493.829,o),
(239.469,515.174,c),
(218.123,536.513,o),
(181.633,521.395,o),
(181.633,491.22,c),
(181.633,457.338,o),
(147.756,423.462,o),
(105.411,423.462,c),
(87.448,423.462,o),
(80.004,416.018,o),
(80.004,398.055,c),
(80.004,33.876,l),
(80.004,15.167,o),
(95.172,0,o),
(113.88,0,c),
(132.594,0,o),
(147.756,15.167,o),
(147.756,33.876,c),
(147.756,389.586,l),
(147.756,423.462,o),
(181.633,457.338,o),
(215.514,457.338,c)
);
}
);
width = 329.46;
},
{
layerId = "6B2E2D58-830D-4489-B075-47D8B481EF18";
shapes = (
{
closed = 1;
nodes = (
(245.695,457.338,o),
(260.809,493.829,o),
(239.469,515.174,c),
(218.123,536.513,o),
(181.633,521.395,o),
(181.633,491.22,c),
(181.633,457.338,o),
(147.756,423.462,o),
(105.411,423.462,c),
(87.448,423.462,o),
(80.004,416.018,o),
(80.004,398.055,c),
(80.004,33.876,l),
(80.004,15.167,o),
(95.172,0,o),
(113.88,0,c),
(132.594,0,o),
(147.756,15.167,o),
(147.756,33.876,c),
(147.756,389.586,l),
(147.756,423.462,o),
(181.633,457.338,o),
(215.514,457.338,c)
);
},
{
closed = 1;
nodes = (
(245.695,723.998,o),
(260.809,760.489,o),
(239.469,781.834,c),
(218.123,803.173,o),
(181.633,788.055,o),
(181.633,757.88,c),
(181.633,723.998,o),
(147.756,690.122,o),
(105.411,690.122,c),
(87.448,690.122,o),
(80.004,682.678,o),
(80.004,664.715,c),
(80.004,300.536,l),
(80.004,281.827,o),
(95.172,266.66,o),
(113.88,266.66,c),
(132.594,266.66,o),
(147.756,281.827,o),
(147.756,300.536,c),
(147.756,656.246,l),
(147.756,690.122,o),
(181.633,723.998,o),
(215.514,723.998,c)
);
},
{
closed = 1;
nodes = (
(245.695,592.797,o),
(260.809,629.288,o),
(239.469,650.633,c),
(218.123,671.972,o),
(181.633,656.854,o),
(181.633,626.679,c),
(181.633,592.797,o),
(147.756,558.921,o),
(105.411,558.921,c),
(87.448,558.921,o),
(80.004,551.477,o),
(80.004,533.514,c),
(80.004,169.335,l),
(80.004,150.626,o),
(95.172,135.459,o),
(113.88,135.459,c),
(132.594,135.459,o),
(147.756,150.626,o),
(147.756,169.335,c),
(147.756,525.045,l),
(147.756,558.921,o),
(181.633,592.797,o),
(215.514,592.797,c)
);
}
);
width = 329.46;
}
);
note = i;
unicode = 105;
},
{
glyphname = j;
lastChange = "2024-04-05 19:30:13 +0000";
layers = (
{
layerId = m01;
shapes = (
{
closed = 1;
nodes = (
(83.697,99.984,o),
(68.837,135.877,o),
(89.823,156.875,c),
(110.822,177.874,o),
(146.724,162.995,o),
(146.724,133.305,c),
(146.726,99.979,o),
(180.042,66.66,o),
(213.37,66.66,c),
(330.016,66.66,l),
(363.343,66.66,o),
(396.665,99.979,o),
(396.666,133.305,c),
(396.666,162.995,o),
(432.564,177.874,o),
(453.562,156.875,c),
(474.548,135.877,o),
(459.688,99.984,o),
(429.991,99.98,c),
(396.665,99.979,o),
(363.343,66.66,o),
(363.343,24.996,c),
(363.343,7.323,o),
(356.025,0,o),
(338.348,0,c),
(205.038,0,l),
(187.36,0,o),
(180.042,7.323,o),
(180.042,24.996,c),
(180.042,66.66,o),
(146.726,99.979,o),
(113.394,99.98,c)
);
},
{
closed = 1;
nodes = (
(300.322,633.192,o),
(285.455,669.089,o),
(306.448,690.087,c),
(327.445,711.069,o),
(363.336,696.197,o),
(363.337,666.517,c),
(363.337,633.192,o),
(396.667,599.867,o),
(438.324,599.867,c),
(455.994,599.867,o),
(463.317,592.544,o),
(463.317,574.873,c),
(463.317,224.951,l),
(463.317,206.547,o),
(448.397,191.626,o),
(429.992,191.626,c),
(411.583,191.626,o),
(396.667,206.547,o),
(396.667,224.951,c),
(396.667,566.542,l),
(396.667,599.867,o),
(363.337,633.192,o),
(330.012,633.192,c)
);
},
{
closed = 1;
nodes = (
(83.697,99.984,o),
(68.837,135.877,o),
(89.823,156.875,c),
(110.822,177.874,o),
(146.724,162.995,o),
(146.724,133.305,c),
(146.726,99.979,o),
(180.042,66.66,o),
(213.37,66.66,c),
(330.016,66.66,l),
(363.343,66.66,o),
(396.665,99.979,o),
(396.666,133.305,c),
(396.666,162.995,o),
(432.564,177.874,o),
(453.562,156.875,c),
(474.548,135.877,o),
(459.688,99.984,o),
(429.991,99.98,c),
(396.665,99.979,o),
(363.343,66.66,o),
(363.343,24.996,c),
(363.343,7.323,o),
(356.025,0,o),
(338.348,0,c),
(205.038,0,l),
(187.36,0,o),
(180.042,7.323,o),
(180.042,24.996,c),
(180.042,66.66,o),
(146.726,99.979,o),
(113.394,99.98,c)
);
},
{
closed = 1;
nodes = (
(300.322,633.192,o),
(285.455,669.089,o),
(306.448,690.087,c),
(327.445,711.069,o),
(363.336,696.197,o),
(363.337,666.517,c),
(363.337,633.192,o),
(396.667,599.867,o),
(438.324,599.867,c),
(455.994,599.867,o),
(463.317,592.544,o),
(463.317,574.873,c),
(463.317,224.951,l),
(463.317,206.547,o),
(448.397,191.626,o),
(429.992,191.626,c),
(411.583,191.626,o),
(396.667,206.547,o),
(396.667,224.951,c),
(396.667,566.542,l),
(396.667,599.867,o),
(363.337,633.192,o),
(330.012,633.192,c)
);
},
{
closed = 1;
nodes = (
(300.322,633.192,o),
(285.455,669.089,o),
(306.448,690.087,c),
(327.445,711.069,o),
(363.336,696.197,o),
(363.337,666.517,c),
(363.337,633.192,o),
(396.667,599.867,o),
(438.324,599.867,c),
(455.994,599.867,o),
(463.317,592.544,o),
(463.317,574.873,c),
(463.317,224.951,l),
(463.317,206.547,o),
(448.397,191.626,o),
(429.992,191.626,c),
(411.583,191.626,o),
(396.667,206.547,o),
(396.667,224.951,c),
(396.667,566.542,l),
(396.667,599.867,o),
(363.337,633.192,o),
(330.012,633.192,c)
);
},
{
closed = 1;
nodes = (
(83.697,99.984,o),
(68.837,135.877,o),
(89.823,156.875,c),
(110.822,177.874,o),
(146.724,162.995,o),
(146.724,133.305,c),
(146.726,99.979,o),
(180.042,66.66,o),
(213.37,66.66,c),
(330.016,66.66,l),
(363.343,66.66,o),
(396.665,99.979,o),
(396.666,133.305,c),
(396.666,162.995,o),
(432.564,177.874,o),
(453.562,156.875,c),
(474.548,135.877,o),
(459.688,99.984,o),
(429.991,99.98,c),
(396.665,99.979,o),
(363.343,66.66,o),
(363.343,24.996,c),
(363.343,7.323,o),
(356.025,0,o),
(338.348,0,c),
(205.038,0,l),
(187.36,0,o),
(180.042,7.323,o),
(180.042,24.996,c),
(180.042,66.66,o),
(146.726,99.979,o),
(113.394,99.98,c)
);
}
);
width = 543.39;
},
{
layerId = "6B2E2D58-830D-4489-B075-47D8B481EF18";
shapes = (
{
closed = 1;
nodes = (
(83.702,99.984,o),
(68.842,135.877,o),
(89.828,156.875,c),
(110.827,177.874,o),
(146.729,162.995,o),
(146.729,133.305,c),
(146.731,99.979,o),
(180.047,66.66,o),
(213.375,66.66,c),
(330.021,66.66,l),
(363.348,66.66,o),
(396.67,99.979,o),
(396.671,133.305,c),
(396.671,162.995,o),
(432.569,177.874,o),
(453.567,156.875,c),
(474.553,135.877,o),
(459.693,99.984,o),
(429.996,99.98,c),
(396.67,99.979,o),
(363.348,66.66,o),
(363.348,24.996,c),
(363.348,7.323,o),
(356.03,0,o),
(338.353,0,c),
(205.043,0,l),
(187.365,0,o),
(180.047,7.323,o),
(180.047,24.996,c),
(180.047,66.66,o),
(146.731,99.979,o),
(113.399,99.98,c)
);
},
{
closed = 1;
nodes = (
(300.327,633.192,o),
(285.46,669.089,o),
(306.453,690.087,c),
(327.45,711.069,o),
(363.341,696.197,o),
(363.342,666.517,c),
(363.342,633.192,o),
(396.672,599.867,o),
(438.329,599.867,c),
(455.999,599.867,o),
(463.322,592.544,o),
(463.322,574.873,c),
(463.322,444.71,l),
(463.322,426.306,o),
(448.402,411.385,o),
(429.997,411.385,c),
(411.588,411.385,o),
(396.672,426.306,o),
(396.672,444.71,c),
(396.672,566.542,l),
(396.672,599.867,o),
(363.342,633.192,o),
(330.017,633.192,c)
);
},
{
closed = 1;
nodes = (
(83.702,301.614,o),
(68.842,337.507,o),
(89.828,358.505,c),
(110.827,379.504,o),
(146.729,364.625,o),
(146.729,334.935,c),
(146.731,301.609,o),
(180.047,268.29,o),
(213.375,268.29,c),
(330.021,268.29,l),
(363.348,268.29,o),
(396.67,301.609,o),
(396.671,334.935,c),
(396.671,364.625,o),
(432.569,379.504,o),
(453.567,358.505,c),
(474.553,337.507,o),
(459.693,301.614,o),
(429.996,301.61,c),
(396.67,301.609,o),
(363.348,268.29,o),
(363.348,226.626,c),
(363.348,208.953,o),
(356.03,201.63,o),
(338.353,201.63,c),
(205.043,201.63,l),
(187.365,201.63,o),
(180.047,208.953,o),
(180.047,226.626,c),
(180.047,268.29,o),
(146.731,301.609,o),
(113.399,301.61,c)
);
},
{
closed = 1;
nodes = (
(300.327,733.743,o),
(285.46,769.64,o),
(306.453,790.638,c),
(327.45,811.62,o),
(363.341,796.748,o),
(363.342,767.068,c),
(363.342,733.743,o),
(396.672,700.418,o),
(438.329,700.418,c),
(455.999,700.418,o),
(463.322,693.095,o),
(463.322,675.424,c),
(463.322,545.261,l),
(463.322,526.857,o),
(448.402,511.936,o),
(429.997,511.936,c),
(411.588,511.936,o),
(396.672,526.857,o),
(396.672,545.261,c),
(396.672,667.093,l),
(396.672,700.418,o),
(363.342,733.743,o),
(330.017,733.743,c)
);
},
{
closed = 1;
nodes = (
(300.327,523.607,o),
(285.46,559.504,o),
(306.453,580.502,c),
(327.45,601.484,o),
(363.341,586.612,o),
(363.342,556.932,c),
(363.342,523.607,o),
(396.672,490.282,o),
(438.329,490.282,c),
(455.999,490.282,o),
(463.322,482.959,o),
(463.322,465.288,c),
(463.322,335.125,l),
(463.322,316.721,o),
(448.402,301.8,o),
(429.997,301.8,c),
(411.588,301.8,o),
(396.672,316.721,o),
(396.672,335.125,c),
(396.672,456.957,l),
(396.672,490.282,o),
(363.342,523.607,o),
(330.017,523.607,c)
);
},
{
closed = 1;
nodes = (
(83.702,198.966,o),
(68.842,234.859,o),
(89.828,255.857,c),
(110.827,276.856,o),
(146.729,261.977,o),
(146.729,232.287,c),
(146.731,198.961,o),
(180.047,165.642,o),
(213.375,165.642,c),
(330.021,165.642,l),
(363.348,165.642,o),
(396.67,198.961,o),
(396.671,232.287,c),
(396.671,261.977,o),
(432.569,276.856,o),
(453.567,255.857,c),
(474.553,234.859,o),
(459.693,198.966,o),
(429.996,198.962,c),
(396.67,198.961,o),
(363.348,165.642,o),
(363.348,123.978,c),
(363.348,106.305,o),
(356.03,98.982,o),
(338.353,98.982,c),
(205.043,98.982,l),
(187.365,98.982,o),
(180.047,106.305,o),
(180.047,123.978,c),
(180.047,165.642,o),
(146.731,198.961,o),
(113.399,198.962,c)
);
}
);
width = 543.39;
}
);
note = j;
unicode = 106;
},
{
glyphname = k;
lastChange = "2024-04-05 18:26:47 +0000";
layers = (
{
layerId = m01;
shapes = (
{
closed = 1;
nodes = (
(463.336,458.331,l),
(463.336,476.739,o),
(448.412,491.668,o),
(430.003,491.668,c),
(411.595,491.668,o),
(396.666,476.739,o),
(396.666,458.331,c),
(396.666,433.331,l),
(396.666,399.999,o),
(363.334,366.662,o),
(330.001,366.662,c),
(205.005,366.662,l),
(187.325,366.662,o),
(180.001,359.342,o),
(180.001,341.668,c),
(180.001,324.996,l),
(180.001,313.853,o),
(181.317,303.924,o),
(167.315,300.482,c),
(153.562,297.101,o),
(146.669,302.505,o),
(146.669,316.669,c),
(146.669,333.329,l),
(146.669,351.743,o),
(131.745,366.662,o),
(113.336,366.662,c),
(94.928,366.662,o),
(80.004,351.743,o),
(80.004,333.329,c),
(80.004,33.334,l),
(80.004,14.92,o),
(94.928,0.002,o),
(113.336,0.002,c),
(131.745,0.002,o),
(146.669,14.92,o),
(146.669,33.334,c),
(146.669,233.333,l),
(146.669,266.665,o),
(180.001,299.997,o),
(213.339,299.997,c),
(338.334,299.997,l),
(356.014,299.997,o),
(363.334,307.322,o),
(363.334,324.996,c),
(363.334,360.815,o),
(391.278,399.999,o),
(430.003,399.999,c),
(448.412,399.999,o),
(463.336,414.923,o),
(463.336,433.331,c)
);
},
{
closed = 1;
nodes = (
(80.004,424.998,l),
(80.004,406.59,o),
(94.928,391.666,o),
(113.336,391.666,c),
(131.744,391.666,o),
(146.668,406.59,o),
(146.668,424.998,c),
(146.668,666.662,l),
(146.668,685.071,o),
(131.744,700,o),
(113.336,700,c),
(94.928,700,o),
(80.004,685.071,o),
(80.004,666.662,c)
);
},
{
closed = 1;
nodes = (
(300.305,208.332,o),
(285.435,244.237,o),
(306.432,265.239,c),
(327.429,286.236,o),
(363.334,271.361,o),
(363.334,241.664,c),
(363.334,208.332,o),
(396.666,175,o),
(438.332,175,c),
(456.012,175,o),
(463.336,167.675,o),
(463.336,150,c),
(463.336,33.332,l),
(463.336,14.924,o),
(448.407,0,o),
(430.004,0,c),
(411.59,0,o),
(396.666,14.924,o),
(396.666,33.332,c),
(396.666,141.667,l),
(396.666,175,o),
(363.334,208.332,o),
(330.002,208.332,c)
);
},
{
closed = 1;
nodes = (
(463.336,458.331,l),
(463.336,476.739,o),
(448.412,491.668,o),
(430.003,491.668,c),
(411.595,491.668,o),
(396.666,476.739,o),
(396.666,458.331,c),
(396.666,433.331,l),
(396.666,399.999,o),
(363.334,366.662,o),
(330.001,366.662,c),
(205.005,366.662,l),
(187.325,366.662,o),
(180.001,359.342,o),
(180.001,341.668,c),
(180.001,324.996,l),
(180.001,313.853,o),
(181.317,303.924,o),
(167.315,300.482,c),
(153.562,297.101,o),
(146.669,302.505,o),
(146.669,316.669,c),
(146.669,333.329,l),
(146.669,351.743,o),
(131.745,366.662,o),
(113.336,366.662,c),
(94.928,366.662,o),
(80.004,351.743,o),
(80.004,333.329,c),
(80.004,33.334,l),
(80.004,14.92,o),
(94.928,0.002,o),
(113.336,0.002,c),
(131.745,0.002,o),
(146.669,14.92,o),
(146.669,33.334,c),
(146.669,233.333,l),
(146.669,266.665,o),
(180.001,299.997,o),
(213.339,299.997,c),
(338.334,299.997,l),
(356.014,299.997,o),
(363.334,307.322,o),
(363.334,324.996,c),
(363.334,360.815,o),
(391.278,399.999,o),
(430.003,399.999,c),
(448.412,399.999,o),
(463.336,414.923,o),
(463.336,433.331,c)
);
},
{
closed = 1;
nodes = (
(463.336,458.331,l),
(463.336,476.739,o),
(448.412,491.668,o),
(430.003,491.668,c),
(411.595,491.668,o),
(396.666,476.739,o),
(396.666,458.331,c),
(396.666,433.331,l),
(396.666,399.999,o),
(363.334,366.662,o),
(330.001,366.662,c),
(205.005,366.662,l),
(187.325,366.662,o),
(180.001,359.342,o),
(180.001,341.668,c),
(180.001,324.996,l),
(180.001,313.853,o),
(181.317,303.924,o),
(167.315,300.482,c),
(153.562,297.101,o),
(146.669,302.505,o),
(146.669,316.669,c),
(146.669,333.329,l),
(146.669,351.743,o),
(131.745,366.662,o),
(113.336,366.662,c),
(94.928,366.662,o),
(80.004,351.743,o),
(80.004,333.329,c),
(80.004,33.334,l),
(80.004,14.92,o),
(94.928,0.002,o),
(113.336,0.002,c),
(131.745,0.002,o),
(146.669,14.92,o),
(146.669,33.334,c),
(146.669,233.333,l),
(146.669,266.665,o),
(180.001,299.997,o),
(213.339,299.997,c),
(338.334,299.997,l),
(356.014,299.997,o),
(363.334,307.322,o),
(363.334,324.996,c),
(363.334,360.815,o),
(391.278,399.999,o),
(430.003,399.999,c),
(448.412,399.999,o),
(463.336,414.923,o),
(463.336,433.331,c)
);
}
);
width = 543.34;
},
{
layerId = "6B2E2D58-830D-4489-B075-47D8B481EF18";
shapes = (
{
closed = 1;
nodes = (
(463.336,458.331,l),
(463.336,476.739,o),
(448.412,491.668,o),
(430.003,491.668,c),
(411.595,491.668,o),
(396.666,476.739,o),
(396.666,458.331,c),
(396.666,433.331,l),
(396.666,400,o),
(363.334,366.662,o),
(330.001,366.662,c),
(205.005,366.662,l),
(187.325,366.662,o),
(180,359.342,o),
(180,341.668,c),
(180,324.996,l),
(180,313.853,o),
(181.317,303.924,o),
(167.315,300.482,c),
(153.562,297.101,o),
(146.669,302.505,o),
(146.669,316.669,c),
(146.669,333.329,l),
(146.669,351.743,o),
(131.745,366.662,o),
(113.336,366.662,c),
(94.928,366.662,o),
(80.004,351.743,o),
(80.004,333.329,c),
(80.004,33.334,l),
(80.004,14.92,o),
(94.928,0.002,o),
(113.336,0.002,c),
(131.745,0.002,o),
(146.669,14.92,o),
(146.669,33.334,c),
(146.669,233.333,l),
(146.669,266.665,o),
(180,299.997,o),
(213.339,299.997,c),
(338.334,299.997,l),
(356.014,299.997,o),
(363.334,307.322,o),
(363.334,324.996,c),
(363.334,360.815,o),
(391.278,400,o),
(430.003,400,c),
(448.412,400,o),
(463.336,414.923,o),
(463.336,433.331,c)
);
},
{
closed = 1;
nodes = (
(80.004,741.663,l),
(80.004,723.255,o),
(94.928,708.331,o),
(113.336,708.331,c),
(131.744,708.331,o),
(146.668,723.255,o),
(146.668,741.663,c),
(146.668,766.662,l),
(146.668,785.071,o),
(131.744,800,o),
(113.336,800,c),
(94.928,800,o),
(80.004,785.071,o),
(80.004,766.662,c)
);
},
{
closed = 1;
nodes = (
(300.305,208.332,o),
(285.435,244.237,o),
(306.432,265.239,c),
(327.429,286.236,o),
(363.334,271.361,o),
(363.334,241.664,c),
(363.334,208.332,o),
(396.666,175,o),
(438.332,175,c),
(456.012,175,o),
(463.336,167.675,o),
(463.336,150,c),
(463.336,33.332,l),
(463.336,14.924,o),
(448.407,0,o),
(430.004,0,c),
(411.59,0,o),
(396.666,14.924,o),
(396.666,33.332,c),
(396.666,141.667,l),
(396.666,175,o),
(363.334,208.332,o),
(330.002,208.332,c)
);
},
{
closed = 1;
nodes = (
(463.336,616.663,l),
(463.336,635.071,o),
(448.412,650,o),
(430.003,650,c),
(411.595,650,o),
(396.666,635.071,o),
(396.666,616.663,c),
(396.666,591.663,l),
(396.666,558.331,o),
(363.334,524.994,o),
(330.001,524.994,c),
(205.005,524.994,l),
(187.325,524.994,o),
(180.001,517.674,o),
(180.001,500,c),
(180.001,483.328,l),
(180.001,472.185,o),
(181.317,462.256,o),
(167.315,458.814,c),
(153.562,455.433,o),
(146.669,460.837,o),
(146.669,475.001,c),
(146.669,491.661,l),
(146.669,510.075,o),
(131.745,524.994,o),
(113.336,524.994,c),
(94.928,524.994,o),
(80.004,510.075,o),
(80.004,491.661,c),
(80.004,191.666,l),
(80.004,173.252,o),
(94.928,158.334,o),
(113.336,158.334,c),
(131.745,158.334,o),
(146.669,173.252,o),
(146.669,191.666,c),
(146.669,391.665,l),
(146.669,424.997,o),
(180.001,458.329,o),
(213.339,458.329,c),
(338.334,458.329,l),
(356.014,458.329,o),
(363.334,465.654,o),
(363.334,483.328,c),
(363.334,519.147,o),
(391.278,558.331,o),
(430.003,558.331,c),
(448.412,558.331,o),
(463.336,573.255,o),
(463.336,591.663,c)
);
},
{
closed = 1;
nodes = (
(463.336,766.663,l),
(463.336,785.071,o),
(448.412,800,o),
(430.003,800,c),
(411.595,800,o),
(396.666,785.071,o),
(396.666,766.663,c),
(396.666,741.663,l),
(396.666,708.331,o),
(363.334,674.994,o),
(330.001,674.994,c),
(205.005,674.994,l),
(187.325,674.994,o),
(180.001,667.674,o),
(180.001,650,c),
(180.001,633.328,l),
(180.001,622.185,o),
(181.317,612.256,o),
(167.315,608.814,c),
(153.562,605.433,o),
(146.669,610.837,o),
(146.669,625.001,c),
(146.669,641.661,l),
(146.669,660.075,o),
(131.745,674.994,o),
(113.336,674.994,c),
(94.928,674.994,o),
(80.004,660.075,o),
(80.004,641.661,c),
(80.004,341.666,l),
(80.004,323.252,o),
(94.928,308.334,o),
(113.336,308.334,c),
(131.745,308.334,o),
(146.669,323.252,o),
(146.669,341.666,c),
(146.669,541.665,l),
(146.669,574.997,o),
(180.001,608.329,o),
(213.339,608.329,c),
(338.334,608.329,l),
(356.014,608.329,o),
(363.334,615.654,o),
(363.334,633.328,c),
(363.334,669.147,o),
(391.278,708.331,o),
(430.003,708.331,c),
(448.412,708.331,o),
(463.336,723.255,o),
(463.336,741.663,c)
);
}
);
width = 543.34;
}
);
note = k;
unicode = 107;
},
{
glyphname = l;
lastChange = "2024-04-05 18:29:54 +0000";
layers = (
{
layerId = m01;
shapes = (
{
closed = 1;
nodes = (
(243.3,65.633,o),
(258.195,29.67,o),
(237.163,8.633,c),
(216.126,-12.399,o),
(180.162,2.501,o),
(180.162,32.241,c),
(180.162,65.633,o),
(146.775,99.02,o),
(105.042,99.02,c),
(87.338,99.02,o),
(80.002,106.357,o),
(80.002,124.06,c),
(80.002,666.613,l),
(80.002,685.052,o),
(94.95,700,o),
(113.388,700,c),
(131.832,700,o),
(146.782,685.056,o),
(146.775,666.613,c),
(146.775,132.407,l),
(146.775,99.02,o),
(180.162,65.633,o),
(213.554,65.633,c)
);
},
{
closed = 1;
nodes = (
(243.3,65.633,o),
(258.195,29.67,o),
(237.163,8.633,c),
(216.126,-12.399,o),
(180.162,2.501,o),
(180.162,32.241,c),
(180.162,65.633,o),
(146.775,99.02,o),
(105.042,99.02,c),
(87.338,99.02,o),
(80.002,106.357,o),
(80.002,124.06,c),
(80.002,666.613,l),
(80.002,685.052,o),
(94.95,700,o),
(113.388,700,c),
(131.832,700,o),
(146.782,685.056,o),
(146.775,666.613,c),
(146.775,132.407,l),
(146.775,99.02,o),
(180.162,65.633,o),
(213.554,65.633,c)
);
},
{
closed = 1;
nodes = (
(243.3,65.633,o),
(258.195,29.67,o),
(237.163,8.633,c),
(216.126,-12.399,o),
(180.162,2.501,o),
(180.162,32.241,c),
(180.162,65.633,o),
(146.775,99.02,o),
(105.042,99.02,c),
(87.338,99.02,o),
(80.002,106.357,o),
(80.002,124.06,c),
(80.002,666.613,l),
(80.002,685.052,o),
(94.95,700,o),
(113.388,700,c),
(131.832,700,o),
(146.782,685.056,o),
(146.775,666.613,c),
(146.775,132.407,l),
(146.775,99.02,o),
(180.162,65.633,o),
(213.554,65.633,c)
);
}
);
width = 327.01;
},
{
layerId = "6B2E2D58-830D-4489-B075-47D8B481EF18";
shapes = (
{
closed = 1;
nodes = (
(243.3,65.633,o),
(258.195,29.67,o),
(237.163,8.633,c),
(216.126,-12.399,o),
(180.162,2.501,o),
(180.162,32.241,c),
(180.162,65.633,o),
(146.775,99.02,o),
(105.042,99.02,c),
(87.338,99.02,o),
(80.002,106.357,o),
(80.002,124.06,c),
(80.002,666.613,l),
(80.002,685.052,o),
(94.95,700,o),
(113.388,700,c),
(131.832,700,o),
(146.782,685.056,o),
(146.775,666.613,c),
(146.775,132.407,l),
(146.775,99.02,o),
(180.162,65.633,o),
(213.554,65.633,c)
);
},
{
closed = 1;
nodes = (
(243.3,296.838,o),
(258.195,260.875,o),
(237.163,239.838,c),
(216.126,218.806,o),
(180.162,233.706,o),
(180.162,263.446,c),
(180.162,296.838,o),
(146.775,330.225,o),
(105.042,330.225,c),
(87.338,330.225,o),
(80.002,337.562,o),
(80.002,355.265,c),
(80.002,385.627,l),
(80.002,404.066,o),
(94.95,419.014,o),
(113.388,419.014,c),
(131.832,419.014,o),
(146.782,404.07,o),
(146.775,385.627,c),
(146.775,363.612,l),
(146.775,330.225,o),
(180.162,296.838,o),
(213.554,296.838,c)
);
},
{
closed = 1;
nodes = (
(243.3,180.892,o),
(258.195,144.929,o),
(237.163,123.892,c),
(216.126,102.86,o),
(180.162,117.76,o),
(180.162,147.5,c),
(180.162,180.892,o),
(146.775,214.279,o),
(105.042,214.279,c),
(87.338,214.279,o),
(80.002,221.616,o),
(80.002,239.319,c),
(80.002,269.681,l),
(80.002,288.12,o),
(94.95,303.068,o),
(113.388,303.068,c),
(131.832,303.068,o),
(146.782,288.124,o),
(146.775,269.681,c),
(146.775,247.666,l),
(146.775,214.279,o),
(180.162,180.892,o),
(213.554,180.892,c)
);
}
);
width = 327.01;
}
);
note = l;
unicode = 108;
},
{
glyphname = m;
lastChange = "2024-04-05 19:00:23 +0000";
layers = (
{
layerId = m01;
shapes = (
{
closed = 1;
nodes = (
(146.71,383.734,l),
(146.71,417.089,o),
(180.065,450.445,o),
(213.421,450.445,c),
(255.115,450.445,l),
(288.476,450.445,o),
(321.831,417.089,o),
(321.831,383.734,c),
(321.831,354.016,o),
(357.761,339.136,o),
(378.773,360.148,c),
(399.79,381.159,o),
(384.904,417.089,o),
(355.187,417.089,c),
(321.831,417.089,o),
(288.476,450.445,o),
(288.476,492.145,c),
(288.476,509.832,o),
(281.146,517.161,o),
(263.454,517.161,c),
(205.087,517.161,l),
(187.395,517.161,o),
(180.065,509.832,o),
(180.065,492.145,c),
(180.065,450.445,o),
(146.71,417.089,o),
(113.354,417.089,c),
(94.933,417.089,o),
(79.999,402.155,o),
(79.999,383.734,c),
(79.999,33.491,l),
(79.999,15.07,o),
(94.933,0.136,o),
(113.354,0.136,c),
(131.775,0.136,o),
(146.71,15.07,o),
(146.71,33.491,c)
);
},
{
closed = 1;
nodes = (
(563.664,15.07,o),
(578.598,0.136,o),
(597.02,0.136,c),
(615.441,0.136,o),
(630.38,15.07,o),
(630.38,33.491,c),
(630.38,383.734,l),
(630.38,402.155,o),
(615.441,417.089,o),
(597.02,417.089,c),
(563.664,417.089,o),
(530.309,450.445,o),
(530.309,492.145,c),
(530.309,509.832,o),
(522.979,517.161,o),
(505.292,517.161,c),
(446.92,517.161,l),
(429.228,517.161,o),
(421.904,509.832,o),
(421.904,492.145,c),
(421.904,450.445,o),
(388.543,417.089,o),
(355.187,417.089,c),
(325.47,417.089,o),
(310.584,381.159,o),
(331.601,360.148,c),
(352.618,339.136,o),
(388.543,354.016,o),
(388.543,383.734,c),
(388.543,417.089,o),
(421.904,450.445,o),
(455.259,450.445,c),
(496.953,450.445,l),
(530.309,450.445,o),
(563.664,417.089,o),
(563.664,383.734,c),
(563.664,33.491,l)
);
},
{
closed = 1;
nodes = (
(563.664,15.07,o),
(578.598,0.136,o),
(597.02,0.136,c),
(615.441,0.136,o),
(630.38,15.07,o),
(630.38,33.491,c),
(630.38,383.734,l),
(630.38,402.155,o),
(615.441,417.089,o),
(597.02,417.089,c),
(563.664,417.089,o),
(530.309,450.445,o),
(530.309,492.145,c),
(530.309,509.832,o),
(522.979,517.161,o),
(505.292,517.161,c),
(446.92,517.161,l),
(429.228,517.161,o),
(421.904,509.832,o),
(421.904,492.145,c),
(421.904,450.445,o),
(388.543,417.089,o),
(355.187,417.089,c),
(325.47,417.089,o),
(310.584,381.159,o),
(331.601,360.148,c),
(352.618,339.136,o),
(388.543,354.016,o),
(388.543,383.734,c),
(388.543,417.089,o),
(421.904,450.445,o),
(455.259,450.445,c),
(496.953,450.445,l),
(530.309,450.445,o),
(563.664,417.089,o),
(563.664,383.734,c),
(563.664,33.491,l)
);
},
{
closed = 1;
nodes = (
(146.71,383.734,l),
(146.71,417.089,o),
(180.065,450.445,o),
(213.421,450.445,c),
(255.115,450.445,l),
(288.476,450.445,o),
(321.831,417.089,o),
(321.831,383.734,c),
(321.831,354.016,o),
(357.761,339.136,o),
(378.773,360.148,c),
(399.79,381.159,o),
(384.904,417.089,o),
(355.187,417.089,c),
(321.831,417.089,o),
(288.476,450.445,o),
(288.476,492.145,c),
(288.476,509.832,o),
(281.146,517.161,o),
(263.454,517.161,c),
(205.087,517.161,l),
(187.395,517.161,o),
(180.065,509.832,o),
(180.065,492.145,c),
(180.065,450.445,o),
(146.71,417.089,o),
(113.354,417.089,c),
(94.933,417.089,o),
(79.999,402.155,o),
(79.999,383.734,c),
(79.999,33.491,l),
(79.999,15.07,o),
(94.933,0.136,o),
(113.354,0.136,c),
(131.775,0.136,o),
(146.71,15.07,o),
(146.71,33.491,c)
);
},
{
closed = 1;
nodes = (
(563.664,15.07,o),
(578.598,0.136,o),
(597.02,0.136,c),
(615.441,0.136,o),
(630.38,15.07,o),
(630.38,33.491,c),
(630.38,383.734,l),
(630.38,402.155,o),
(615.441,417.089,o),
(597.02,417.089,c),
(563.664,417.089,o),
(530.309,450.445,o),
(530.309,492.145,c),
(530.309,509.832,o),
(522.979,517.161,o),
(505.292,517.161,c),
(446.92,517.161,l),
(429.228,517.161,o),
(421.904,509.832,o),
(421.904,492.145,c),
(421.904,450.445,o),
(388.543,417.089,o),
(355.187,417.089,c),
(325.47,417.089,o),
(310.584,381.159,o),
(331.601,360.148,c),
(352.618,339.136,o),
(388.543,354.016,o),
(388.543,383.734,c),
(388.543,417.089,o),
(421.904,450.445,o),
(455.259,450.445,c),
(496.953,450.445,l),
(530.309,450.445,o),
(563.664,417.089,o),
(563.664,383.734,c),
(563.664,33.491,l)
);
}
);
width = 710.38;
},
{
layerId = "6B2E2D58-830D-4489-B075-47D8B481EF18";
shapes = (
{
closed = 1;
nodes = (
(146.71,383.734,l),
(146.71,417.089,o),
(180.065,450.445,o),
(213.421,450.445,c),
(255.115,450.445,l),
(288.476,450.445,o),
(321.831,417.089,o),
(321.831,383.734,c),
(321.831,354.016,o),
(357.761,339.136,o),
(378.773,360.148,c),
(399.79,381.159,o),
(384.904,417.089,o),
(355.187,417.089,c),
(321.831,417.089,o),
(288.476,450.445,o),
(288.476,492.145,c),
(288.476,509.832,o),
(281.146,517.161,o),
(263.454,517.161,c),
(205.087,517.161,l),
(187.395,517.161,o),
(180.065,509.832,o),
(180.065,492.145,c),
(180.065,450.445,o),
(146.71,417.089,o),
(113.354,417.089,c),
(94.933,417.089,o),
(79.999,402.155,o),
(79.999,383.734,c),
(79.999,33.491,l),
(79.999,15.07,o),
(94.933,0.136,o),
(113.354,0.136,c),
(131.775,0.136,o),
(146.71,15.07,o),
(146.71,33.491,c)
);
},
{
closed = 1;
nodes = (
(563.664,15.07,o),
(578.598,0.136,o),
(597.02,0.136,c),
(615.441,0.136,o),
(630.38,15.07,o),
(630.38,33.491,c),
(630.38,383.734,l),
(630.38,402.155,o),
(615.441,417.089,o),
(597.02,417.089,c),
(563.664,417.089,o),
(530.309,450.445,o),
(530.309,492.145,c),
(530.309,509.832,o),
(522.979,517.161,o),
(505.292,517.161,c),
(446.92,517.161,l),
(429.228,517.161,o),
(421.904,509.832,o),
(421.904,492.145,c),
(421.904,450.445,o),
(388.543,417.089,o),
(355.187,417.089,c),
(325.47,417.089,o),
(310.584,381.159,o),
(331.601,360.148,c),
(352.618,339.136,o),
(388.543,354.016,o),
(388.543,383.734,c),
(388.543,417.089,o),
(421.904,450.445,o),
(455.259,450.445,c),
(496.953,450.445,l),
(530.309,450.445,o),
(563.664,417.089,o),
(563.664,383.734,c),
(563.664,33.491,l)
);
},
{
closed = 1;
nodes = (
(563.664,109.496,o),
(578.598,94.562,o),
(597.02,94.562,c),
(615.441,94.562,o),
(630.38,109.496,o),
(630.38,127.917,c),
(630.38,478.16,l),
(630.38,496.581,o),
(615.441,511.515,o),
(597.02,511.515,c),
(563.664,511.515,o),
(530.309,544.871,o),
(530.309,586.571,c),
(530.309,604.258,o),
(522.979,611.587,o),
(505.292,611.587,c),
(446.92,611.587,l),
(429.228,611.587,o),
(421.904,604.258,o),
(421.904,586.571,c),
(421.904,544.871,o),
(388.543,511.515,o),
(355.187,511.515,c),
(325.47,511.515,o),
(310.584,475.585,o),
(331.601,454.574,c),
(352.618,433.562,o),
(388.543,448.442,o),
(388.543,478.16,c),
(388.543,511.515,o),
(421.904,544.871,o),
(455.259,544.871,c),
(496.953,544.871,l),
(530.309,544.871,o),
(563.664,511.515,o),
(563.664,478.16,c),
(563.664,127.917,l)
);
},
{
closed = 1;
nodes = (
(146.212,572.161,l),
(146.212,605.516,o),
(179.567,638.872,o),
(212.923,638.872,c),
(254.617,638.872,l),
(287.978,638.872,o),
(321.333,605.516,o),
(321.333,572.161,c),
(321.333,542.443,o),
(357.263,527.563,o),
(378.275,548.575,c),
(399.292,569.586,o),
(384.406,605.516,o),
(354.689,605.516,c),
(321.333,605.516,o),
(287.978,638.872,o),
(287.978,680.572,c),
(287.978,698.259,o),
(280.648,705.588,o),
(262.956,705.588,c),
(204.589,705.588,l),
(186.897,705.588,o),
(179.567,698.259,o),
(179.567,680.572,c),
(179.567,638.872,o),
(146.212,605.516,o),
(112.856,605.516,c),
(94.435,605.516,o),
(79.501,590.582,o),
(79.501,572.161,c),
(79.501,221.918,l),
(79.501,203.497,o),
(94.435,188.563,o),
(112.856,188.563,c),
(131.277,188.563,o),
(146.212,203.497,o),
(146.212,221.918,c)
);
},
{
closed = 1;
nodes = (
(563.664,297.909,o),
(578.598,282.975,o),
(597.02,282.975,c),
(615.441,282.975,o),
(630.38,297.909,o),
(630.38,316.33,c),
(630.38,666.573,l),
(630.38,684.994,o),
(615.441,699.928,o),
(597.02,699.928,c),
(563.664,699.928,o),
(530.309,733.284,o),
(530.309,774.984,c),
(530.309,792.671,o),
(522.979,800,o),
(505.292,800,c),
(446.92,800,l),
(429.228,800,o),
(421.904,792.671,o),
(421.904,774.984,c),
(421.904,733.284,o),
(388.543,699.928,o),
(355.187,699.928,c),
(325.47,699.928,o),
(310.584,663.998,o),
(331.601,642.987,c),
(352.618,621.975,o),
(388.543,636.855,o),
(388.543,666.573,c),
(388.543,699.928,o),
(421.904,733.284,o),
(455.259,733.284,c),
(496.953,733.284,l),
(530.309,733.284,o),
(563.664,699.928,o),
(563.664,666.573,c),
(563.664,316.33,l)
);
}
);
width = 710.38;
}
);
note = m;
unicode = 109;
},
{
glyphname = n;
lastChange = "2024-04-05 18:48:25 +0000";
layers = (
{
layerId = m01;
shapes = (
{
closed = 1;
nodes = (
(390.58,33.361,l),
(390.58,14.933,o),
(405.515,0.003,o),
(423.938,0.003,c),
(442.36,0.003,o),
(457.296,14.933,o),
(457.296,33.361,c),
(457.296,283.552,l),
(457.296,301.974,o),
(442.36,316.915,o),
(423.938,316.915,c),
(405.515,316.915,o),
(390.58,301.974,o),
(390.58,283.552,c)
);
},
{
closed = 1;
nodes = (
(198.764,517.056,l),
(181.076,517.056,o),
(173.746,509.726,o),
(173.746,492.038,c),
(173.744,475.369,l),
(173.744,464.212,o),
(175.056,454.275,o),
(161.049,450.831,c),
(147.285,447.447,o),
(140.386,452.855,o),
(140.386,467.03,c),
(140.389,483.699,l),
(140.389,502.121,o),
(125.454,517.056,o),
(107.026,517.056,c),
(88.604,517.056,o),
(73.669,502.121,o),
(73.669,483.699,c),
(73.665,33.358,l),
(73.665,14.936,o),
(88.6,0,o),
(107.023,0,c),
(125.451,0,o),
(140.386,14.936,o),
(140.386,33.358,c),
(140.386,383.629,l),
(140.386,416.987,o),
(173.744,450.345,o),
(207.103,450.345,c),
(323.861,450.345,l),
(357.219,450.345,o),
(390.577,416.987,o),
(390.577,383.629,c),
(390.577,365.206,o),
(405.513,350.271,o),
(423.936,350.271,c),
(442.364,350.271,o),
(457.294,365.206,o),
(457.294,383.629,c),
(457.294,402.057,o),
(442.364,416.987,o),
(423.936,416.987,c),
(390.577,416.987,o),
(357.219,450.345,o),
(357.217,492.038,c),
(357.217,509.726,o),
(349.887,517.056,o),
(332.199,517.056,c)
);
},
{
closed = 1;
nodes = (
(198.764,517.056,l),
(181.077,517.056,o),
(173.746,509.726,o),
(173.746,492.038,c),
(173.744,475.369,l),
(173.744,464.212,o),
(175.056,454.275,o),
(161.049,450.831,c),
(147.285,447.447,o),
(140.386,452.855,o),
(140.386,467.029,c),
(140.389,483.699,l),
(140.389,502.12,o),
(125.454,517.056,o),
(107.026,517.056,c),
(88.604,517.056,o),
(73.669,502.12,o),
(73.669,483.699,c),
(73.665,33.358,l),
(73.665,14.936,o),
(88.601,0,o),
(107.023,0,c),
(125.451,0,o),
(140.386,14.936,o),
(140.386,33.358,c),
(140.386,383.629,l),
(140.386,416.987,o),
(173.744,450.346,o),
(207.102,450.346,c),
(323.861,450.346,l),
(357.219,450.346,o),
(390.577,416.987,o),
(390.577,383.629,c),
(390.577,365.206,o),
(405.513,350.271,o),
(423.935,350.271,c),
(442.363,350.271,o),
(457.294,365.206,o),
(457.294,383.629,c),
(457.294,402.057,o),
(442.363,416.987,o),
(423.935,416.987,c),
(390.577,416.987,o),
(357.219,450.346,o),
(357.217,492.038,c),
(357.217,509.726,o),
(349.887,517.056,o),
(332.2,517.056,c)
);
},
{
closed = 1;
nodes = (
(198.764,517.056,l),
(181.077,517.056,o),
(173.746,509.726,o),
(173.746,492.038,c),
(173.744,475.369,l),
(173.744,464.212,o),
(175.056,454.275,o),
(161.049,450.831,c),
(147.285,447.447,o),
(140.386,452.855,o),
(140.386,467.029,c),
(140.389,483.699,l),
(140.389,502.12,o),
(125.454,517.056,o),
(107.026,517.056,c),
(88.604,517.056,o),
(73.669,502.12,o),
(73.669,483.699,c),
(73.665,33.358,l),
(73.665,14.936,o),
(88.601,0,o),
(107.023,0,c),
(125.451,0,o),
(140.386,14.936,o),
(140.386,33.358,c),
(140.386,383.629,l),
(140.386,416.987,o),
(173.744,450.346,o),
(207.102,450.346,c),
(323.861,450.346,l),
(357.219,450.346,o),
(390.577,416.987,o),
(390.577,383.629,c),
(390.577,365.206,o),
(405.513,350.271,o),
(423.935,350.271,c),
(442.363,350.271,o),
(457.294,365.206,o),
(457.294,383.629,c),
(457.294,402.057,o),
(442.363,416.987,o),
(423.935,416.987,c),
(390.577,416.987,o),
(357.219,450.346,o),
(357.217,492.038,c),
(357.217,509.726,o),
(349.887,517.056,o),
(332.2,517.056,c)
);
}
);
width = 530.96;
},
{
layerId = "6B2E2D58-830D-4489-B075-47D8B481EF18";
shapes = (
{
closed = 1;
nodes = (
(390.58,33.361,l),
(390.58,14.933,o),
(405.515,0.003,o),
(423.938,0.003,c),
(442.36,0.003,o),
(457.296,14.933,o),
(457.296,33.361,c),
(457.296,283.552,l),
(457.296,301.974,o),
(442.36,316.915,o),
(423.938,316.915,c),
(405.515,316.915,o),
(390.58,301.974,o),
(390.58,283.552,c)
);
},
{
closed = 1;
nodes = (
(198.764,517.056,l),
(181.076,517.056,o),
(173.746,509.726,o),
(173.746,492.038,c),
(173.744,475.369,l),
(173.744,464.212,o),
(175.056,454.275,o),
(161.049,450.831,c),
(147.285,447.447,o),
(140.386,452.855,o),
(140.386,467.03,c),
(140.389,483.699,l),
(140.389,502.121,o),
(125.454,517.056,o),
(107.026,517.056,c),
(88.604,517.056,o),
(73.669,502.121,o),
(73.669,483.699,c),
(73.665,33.358,l),
(73.665,14.936,o),
(88.6,0,o),
(107.023,0,c),
(125.451,0,o),
(140.386,14.936,o),
(140.386,33.358,c),
(140.386,383.629,l),
(140.386,416.987,o),
(173.744,450.345,o),
(207.103,450.345,c),
(323.861,450.345,l),
(357.219,450.345,o),
(390.577,416.987,o),
(390.577,383.629,c),
(390.577,365.206,o),
(405.513,350.271,o),
(423.936,350.271,c),
(442.364,350.271,o),
(457.294,365.206,o),
(457.294,383.629,c),
(457.294,402.057,o),
(442.364,416.987,o),
(423.936,416.987,c),
(390.577,416.987,o),
(357.219,450.345,o),
(357.217,492.038,c),
(357.217,509.726,o),
(349.887,517.056,o),
(332.199,517.056,c)
);
},
{
closed = 1;
nodes = (
(198.764,660.071,l),
(181.077,660.071,o),
(173.746,652.741,o),
(173.746,635.053,c),
(173.744,618.384,l),
(173.744,607.227,o),
(175.056,597.29,o),
(161.049,593.846,c),
(147.285,590.462,o),
(140.386,595.87,o),
(140.386,610.044,c),
(140.389,626.714,l),
(140.389,645.135,o),
(125.454,660.071,o),
(107.026,660.071,c),
(88.604,660.071,o),
(73.669,645.135,o),
(73.669,626.714,c),
(73.665,176.373,l),
(73.665,157.951,o),
(88.601,143.015,o),
(107.023,143.015,c),
(125.451,143.015,o),
(140.386,157.951,o),
(140.386,176.373,c),
(140.386,526.644,l),
(140.386,560.002,o),
(173.744,593.361,o),
(207.102,593.361,c),
(323.861,593.361,l),
(357.219,593.361,o),
(390.577,560.002,o),
(390.577,526.644,c),
(390.577,508.221,o),
(405.513,493.286,o),
(423.935,493.286,c),
(442.363,493.286,o),
(457.294,508.221,o),
(457.294,526.644,c),
(457.294,545.072,o),
(442.363,560.002,o),
(423.935,560.002,c),
(390.577,560.002,o),
(357.219,593.361,o),
(357.217,635.053,c),
(357.217,652.741,o),
(349.887,660.071,o),
(332.2,660.071,c)
);
},
{
closed = 1;
nodes = (
(198.764,800,l),
(181.077,800,o),
(173.746,792.67,o),
(173.746,774.982,c),
(173.744,758.313,l),
(173.744,747.156,o),
(175.056,737.219,o),
(161.049,733.775,c),
(147.285,730.391,o),
(140.386,735.799,o),
(140.386,749.973,c),
(140.389,766.643,l),
(140.389,785.064,o),
(125.454,800,o),
(107.026,800,c),
(88.604,800,o),
(73.669,785.064,o),
(73.669,766.643,c),
(73.665,316.302,l),
(73.665,297.88,o),
(88.601,282.944,o),
(107.023,282.944,c),
(125.451,282.944,o),
(140.386,297.88,o),
(140.386,316.302,c),
(140.386,666.573,l),
(140.386,699.931,o),
(173.744,733.29,o),
(207.102,733.29,c),
(323.861,733.29,l),
(357.219,733.29,o),
(390.577,699.931,o),
(390.577,666.573,c),
(390.577,648.15,o),
(405.513,633.215,o),
(423.935,633.215,c),
(442.363,633.215,o),
(457.294,648.15,o),
(457.294,666.573,c),
(457.294,685.001,o),
(442.363,699.931,o),
(423.935,699.931,c),
(390.577,699.931,o),
(357.219,733.29,o),
(357.217,774.982,c),
(357.217,792.67,o),
(349.887,800,o),
(332.2,800,c)
);
}
);
width = 530.96;
}
);
note = n;
unicode = 110;
},
{
glyphname = o;
lastChange = "2024-04-05 17:51:06 +0000";
layers = (
{
layerId = m01;
shapes = (
{
closed = 1;
nodes = (
(357,458,o),
(400,418,o),
(430,418,qs),
(443,418,o),
(455,407,o),
(455,394,qs),
(455,133,ls),
(455,120,o),
(443,109,o),
(430,109,qs),
(400,109,o),
(357,69,o),
(357,44,qs),
(357,30,o),
(338,11,o),
(311,11,o),
(301,21,qs),
(291,30,o),
(292,57,o),
(310,76,o),
(324,76,qs),
(349,76,o),
(389,117,o),
(389,141,qs),
(389,386,ls),
(389,410,o),
(349,451,o),
(324,451,qs),
(310,451,o),
(292,470,o),
(291,496,o),
(301,506,qs),
(311,516,o),
(338,516,o),
(357,497,o),
(357,483,qs)
);
},
{
closed = 1;
nodes = (
(178,458,o),
(134,418,o),
(104,418,qs),
(91,418,o),
(80,407,o),
(80,394,qs),
(80,133,ls),
(80,120,o),
(91,109,o),
(104,109,qs),
(134,109,o),
(178,69,o),
(178,44,qs),
(178,30,o),
(197,11,o),
(223,11,o),
(233,21,qs),
(243,30,o),
(243,57,o),
(224,76,o),
(210,76,qs),
(186,76,o),
(145,117,o),
(145,141,qs),
(145,386,ls),
(145,410,o),
(186,451,o),
(210,451,qs),
(224,451,o),
(243,470,o),
(243,496,o),
(233,506,qs),
(223,516,o),
(197,516,o),
(178,497,o),
(178,483,qs)
);
},
{
closed = 1;
nodes = (
(357,458,o),
(400,418,o),
(430,418,qs),
(443,418,o),
(455,407,o),
(455,394,qs),
(455,133,ls),
(455,120,o),
(443,109,o),
(430,109,qs),
(400,109,o),
(357,69,o),
(357,44,qs),
(357,30,o),
(338,11,o),
(311,11,o),
(301,21,qs),
(291,30,o),
(292,57,o),
(310,76,o),
(324,76,qs),
(349,76,o),
(389,117,o),
(389,141,qs),
(389,386,ls),
(389,410,o),
(349,451,o),
(324,451,qs),
(310,451,o),
(292,470,o),
(291,496,o),
(301,506,qs),
(311,516,o),
(338,516,o),
(357,497,o),
(357,483,qs)
);
},
{
closed = 1;
nodes = (
(178,458,o),
(134,418,o),
(104,418,qs),
(91,418,o),
(80,407,o),
(80,394,qs),
(80,133,ls),
(80,120,o),
(91,109,o),
(104,109,qs),
(134,109,o),
(178,69,o),
(178,44,qs),
(178,30,o),
(197,11,o),
(223,11,o),
(233,21,qs),
(243,30,o),
(243,57,o),
(224,76,o),
(210,76,qs),
(186,76,o),
(145,117,o),
(145,141,qs),
(145,386,ls),
(145,410,o),
(186,451,o),
(210,451,qs),
(224,451,o),
(243,470,o),
(243,496,o),
(233,506,qs),
(223,516,o),
(197,516,o),
(178,497,o),
(178,483,qs)
);
},
{
closed = 1;
nodes = (
(357,458,o),
(400,418,o),
(430,418,qs),
(443,418,o),
(455,407,o),
(455,394,qs),
(455,133,ls),
(455,120,o),
(443,109,o),
(430,109,qs),
(400,109,o),
(357,69,o),
(357,44,qs),
(357,30,o),
(338,11,o),
(311,11,o),
(301,21,qs),
(291,30,o),
(292,57,o),
(310,76,o),
(324,76,qs),
(349,76,o),
(389,117,o),
(389,141,qs),
(389,386,ls),
(389,410,o),
(349,451,o),
(324,451,qs),
(310,451,o),
(292,470,o),
(291,496,o),
(301,506,qs),
(311,516,o),
(338,516,o),
(357,497,o),
(357,483,qs)
);
},
{
closed = 1;
nodes = (
(178,458,o),
(134,418,o),
(104,418,qs),
(91,418,o),
(80,407,o),
(80,394,qs),
(80,133,ls),
(80,120,o),
(91,109,o),
(104,109,qs),
(134,109,o),
(178,69,o),
(178,44,qs),
(178,30,o),
(197,11,o),
(223,11,o),
(233,21,qs),
(243,30,o),
(243,57,o),
(224,76,o),
(210,76,qs),
(186,76,o),
(145,117,o),
(145,141,qs),
(145,386,ls),
(145,410,o),
(186,451,o),
(210,451,qs),
(224,451,o),
(243,470,o),
(243,496,o),
(233,506,qs),
(223,516,o),
(197,516,o),
(178,497,o),
(178,483,qs)
);
}
);
width = 535;
},
{
layerId = "6B2E2D58-830D-4489-B075-47D8B481EF18";
shapes = (
{
closed = 1;
nodes = (
(357,458,o),
(400,418,o),
(430,418,q),
(443,418,o),
(455,407,o),
(455,394,q),
(455,133,l),
(455,120,o),
(443,109,o),
(430,109,q),
(400,109,o),
(357,69,o),
(357,44,q),
(357,30,o),
(338,11,o),
(311,11,o),
(301,21,q),
(291,30,o),
(292,57,o),
(310,76,o),
(324,76,q),
(349,76,o),
(389,117,o),
(389,141,q),
(389,386,l),
(389,410,o),
(349,451,o),
(324,451,q),
(310,451,o),
(292,470,o),
(291,496,o),
(301,506,q),
(311,516,o),
(338,516,o),
(357,497,o),
(357,483,q)
);
},
{
closed = 1;
nodes = (
(178,458,o),
(134,418,o),
(104,418,q),
(91,418,o),
(80,407,o),
(80,394,q),
(80,133,l),
(80,120,o),
(91,109,o),
(104,109,q),
(134,109,o),
(178,69,o),
(178,44,q),
(178,30,o),
(197,11,o),
(223,11,o),
(233,21,q),
(243,30,o),
(243,57,o),
(224,76,o),
(210,76,q),
(186,76,o),
(145,117,o),
(145,141,q),
(145,386,l),
(145,410,o),
(186,451,o),
(210,451,q),
(224,451,o),
(243,470,o),
(243,496,o),
(233,506,q),
(223,516,o),
(197,516,o),
(178,497,o),
(178,483,q)
);
},
{
closed = 1;
nodes = (
(357,601,o),
(400,561,o),
(430,561,q),
(443,561,o),
(455,550,o),
(455,537,q),
(455,224,l),
(455,211,o),
(443,200,o),
(430,200,q),
(400,200,o),
(357,160,o),
(357,135,q),
(357,121,o),
(338,102,o),
(311,102,o),
(301,112,q),
(291,121,o),
(292,148,o),
(310,167,o),
(324,167,q),
(349,167,o),
(389,208,o),
(389,232,q),
(389,529,l),
(389,553,o),
(349,594,o),
(324,594,q),
(310,594,o),
(292,613,o),
(291,639,o),
(301,649,q),
(311,659,o),
(338,659,o),
(357,640,o),
(357,626,q)
);
},
{
closed = 1;
nodes = (
(178,601,o),
(134,561,o),
(104,561,q),
(91,561,o),
(80,550,o),
(80,537,q),
(80,224,l),
(80,211,o),
(91,200,o),
(104,200,q),
(134,200,o),
(178,160,o),
(178,135,q),
(178,121,o),
(197,102,o),
(223,102,o),
(233,112,q),
(243,121,o),
(243,148,o),
(224,167,o),
(210,167,q),
(186,167,o),
(145,208,o),
(145,232,q),
(145,529,l),
(145,553,o),
(186,594,o),
(210,594,q),
(224,594,o),
(243,613,o),
(243,639,o),
(233,649,qs),
(223,659,o),
(197,659,o),
(178,640,o),
(178,626,q)
);
},
{
closed = 1;
nodes = (
(357,741,o),
(400,701,o),
(430,701,q),
(443,701,o),
(455,690,o),
(455,677,q),
(455,312,l),
(455,299,o),
(443,288,o),
(430,288,q),
(400,288,o),
(357,248,o),
(357,222,q),
(357,208.424,o),
(338,190,o),
(311,190,o),
(301,199,q),
(291,209,o),
(292,235.924,o),
(310,254.871,o),
(324,254.871,q),
(349,254.871,o),
(389,295.756,o),
(389,319.688,q),
(389,668,l),
(389,693,o),
(349,734,o),
(324,734,q),
(310,734,o),
(292,753,o),
(291,779,o),
(301,789,q),
(311,799,o),
(338,798,o),
(357,780,o),
(357,766,q)
);
},
{
closed = 1;
nodes = (
(178,741,o),
(134,701,o),
(104,701,q),
(91,701,o),
(80,690,o),
(80,677,q),
(80,312,l),
(80,299,o),
(91,288,o),
(104,288,q),
(134,288,o),
(178,248,o),
(178,222,q),
(178,208.424,o),
(197,190,o),
(223,190,o),
(233,199,q),
(243,209,o),
(243,235.924,o),
(224,254.871,o),
(210,254.871,q),
(186,254.871,o),
(145,295.756,o),
(145,319.688,q),
(145,668,l),
(145,692,o),
(186,734,o),
(210,734,q),
(224,734,o),
(243,753,o),
(243,779,o),
(233,789,q),
(223,799,o),
(197,798,o),
(178,780,o),
(178,766,q)
);
}
);
width = 535;
}
);
note = o;
unicode = 111;
},
{
glyphname = p;
lastChange = "2024-04-05 19:35:56 +0000";
layers = (
{
layerId = m01;
shapes = (
{
closed = 1;
nodes = (
(396.924,383.619,l),
(396.925,416.975,o),
(363.572,450.328,o),
(330.214,450.328,c),
(213.479,450.328,l),
(180.126,450.328,o),
(146.773,416.975,o),
(146.774,383.619,c),
(146.773,353.907,o),
(110.846,339.028,o),
(89.831,360.038,c),
(68.822,381.045,o),
(83.7,416.975,o),
(113.415,416.975,c),
(146.773,416.975,o),
(180.126,450.328,o),
(180.126,492.024,c),
(180.126,509.71,o),
(187.45,517.039,o),
(205.141,517.039,c),
(338.552,517.039,l),
(356.243,517.039,o),
(363.572,509.71,o),
(363.572,492.024,c),
(363.572,450.328,o),
(396.925,416.975,o),
(430.277,416.975,c),
(448.697,416.975,o),
(463.629,402.038,o),
(463.629,383.619,c),
(463.632,258.548,l),
(463.632,240.129,o),
(448.699,225.195,o),
(430.279,225.195,c),
(411.859,225.195,o),
(396.926,240.129,o),
(396.926,258.548,c)
);
},
{
closed = 1;
nodes = (
(180.127,41.742,l),
(180.125,52.901,o),
(181.437,62.837,o),
(167.432,66.28,c),
(153.67,69.659,o),
(146.773,64.256,o),
(146.775,50.08,c),
(146.751,-150.031,l),
(146.751,-168.454,o),
(131.833,-183.39,o),
(113.411,-183.39,c),
(95.004,-183.39,o),
(80.065,-168.457,o),
(80.065,-150.038,c),
(80.06,133.475,l),
(80.063,283.555,l),
(80.06,301.984,o),
(94.998,316.923,o),
(113.413,316.923,c),
(131.838,316.923,o),
(146.771,301.984,o),
(146.774,283.555,c),
(146.771,133.475,l),
(146.772,100.12,o),
(180.125,66.766,o),
(213.478,66.766,c),
(330.218,66.766,l),
(363.57,66.766,o),
(396.924,100.12,o),
(396.925,133.475,c),
(396.928,158.494,l),
(396.925,176.91,o),
(411.858,191.843,o),
(430.278,191.843,c),
(448.703,191.843,o),
(463.631,176.91,o),
(463.637,158.494,c),
(463.631,133.475,l),
(463.631,115.05,o),
(448.702,100.12,o),
(430.277,100.12,c),
(396.924,100.12,o),
(363.57,66.766,o),
(363.569,25.066,c),
(363.569,7.376,o),
(356.245,0.052,o),
(338.555,0.052,c),
(205.141,0.052,l),
(187.456,0.052,o),
(180.127,7.376,o),
(180.127,25.066,c)
);
},
{
closed = 1;
nodes = (
(396.924,383.619,l),
(396.925,416.975,o),
(363.572,450.328,o),
(330.214,450.328,c),
(213.479,450.328,l),
(180.126,450.328,o),
(146.773,416.975,o),
(146.774,383.619,c),
(146.773,353.907,o),
(110.846,339.028,o),
(89.831,360.038,c),
(68.822,381.045,o),
(83.7,416.975,o),
(113.415,416.975,c),
(146.773,416.975,o),
(180.126,450.328,o),
(180.126,492.024,c),
(180.126,509.71,o),
(187.45,517.039,o),
(205.141,517.039,c),
(338.552,517.039,l),
(356.243,517.039,o),
(363.572,509.71,o),
(363.572,492.024,c),
(363.572,450.328,o),
(396.925,416.975,o),
(430.277,416.975,c),
(448.697,416.975,o),
(463.629,402.038,o),
(463.629,383.619,c),
(463.632,258.548,l),
(463.632,240.129,o),
(448.699,225.195,o),
(430.279,225.195,c),
(411.859,225.195,o),
(396.926,240.129,o),
(396.926,258.548,c)
);
},
{
closed = 1;
nodes = (
(396.924,383.619,l),
(396.925,416.975,o),
(363.572,450.328,o),
(330.214,450.328,c),
(213.479,450.328,l),
(180.126,450.328,o),
(146.773,416.975,o),
(146.774,383.619,c),
(146.773,353.907,o),
(110.846,339.028,o),
(89.831,360.038,c),
(68.822,381.045,o),
(83.7,416.975,o),
(113.415,416.975,c),
(146.773,416.975,o),
(180.126,450.328,o),
(180.126,492.024,c),
(180.126,509.71,o),
(187.45,517.039,o),
(205.141,517.039,c),
(338.552,517.039,l),
(356.243,517.039,o),
(363.572,509.71,o),
(363.572,492.024,c),
(363.572,450.328,o),
(396.925,416.975,o),
(430.277,416.975,c),
(448.697,416.975,o),
(463.629,402.038,o),
(463.629,383.619,c),
(463.632,258.548,l),
(463.632,240.129,o),
(448.699,225.195,o),
(430.279,225.195,c),
(411.859,225.195,o),
(396.926,240.129,o),
(396.926,258.548,c)
);
}
);
width = 543;
},
{
layerId = "6B2E2D58-830D-4489-B075-47D8B481EF18";
shapes = (
{
closed = 1;
nodes = (
(396.924,383.619,l),
(396.925,416.975,o),
(363.572,450.328,o),
(330.214,450.328,c),
(213.479,450.328,l),
(180.126,450.328,o),
(146.773,416.975,o),
(146.774,383.619,c),
(146.773,353.907,o),
(110.846,339.028,o),
(89.831,360.038,c),
(68.822,381.045,o),
(83.7,416.975,o),
(113.415,416.975,c),
(146.773,416.975,o),
(180.126,450.328,o),
(180.126,492.024,c),
(180.126,509.71,o),
(187.45,517.039,o),
(205.141,517.039,c),
(338.552,517.039,l),
(356.243,517.039,o),
(363.572,509.71,o),
(363.572,492.024,c),
(363.572,450.328,o),
(396.925,416.975,o),
(430.277,416.975,c),
(448.697,416.975,o),
(463.629,402.038,o),
(463.629,383.619,c),
(463.632,258.548,l),
(463.632,240.129,o),
(448.699,225.195,o),
(430.279,225.195,c),
(411.859,225.195,o),
(396.926,240.129,o),
(396.926,258.548,c)
);
},
{
closed = 1;
nodes = (
(180.127,41.742,l),
(180.125,52.901,o),
(181.437,62.837,o),
(167.432,66.28,c),
(153.67,69.659,o),
(146.773,64.256,o),
(146.775,50.08,c),
(146.751,-150.031,l),
(146.751,-168.454,o),
(131.833,-183.39,o),
(113.411,-183.39,c),
(95.004,-183.39,o),
(80.065,-168.457,o),
(80.065,-150.038,c),
(80.06,133.475,l),
(80.063,283.555,l),
(80.06,301.984,o),
(94.998,316.923,o),
(113.413,316.923,c),
(131.838,316.923,o),
(146.771,301.984,o),
(146.774,283.555,c),
(146.771,133.475,l),
(146.772,100.12,o),
(180.125,66.766,o),
(213.478,66.766,c),
(330.218,66.766,l),
(363.57,66.766,o),
(396.924,100.12,o),
(396.925,133.475,c),
(396.928,158.494,l),
(396.925,176.91,o),
(411.858,191.843,o),
(430.278,191.843,c),
(448.703,191.843,o),
(463.631,176.91,o),
(463.637,158.494,c),
(463.631,133.475,l),
(463.631,115.05,o),
(448.702,100.12,o),
(430.277,100.12,c),
(396.924,100.12,o),
(363.57,66.766,o),
(363.569,25.066,c),
(363.569,7.376,o),
(356.245,0.052,o),
(338.555,0.052,c),
(205.141,0.052,l),
(187.456,0.052,o),
(180.127,7.376,o),
(180.127,25.066,c)
);
},
{
closed = 1;
nodes = (
(396.924,666.58,l),
(396.925,699.936,o),
(363.572,733.289,o),
(330.214,733.289,c),
(213.479,733.289,l),
(180.126,733.289,o),
(146.773,699.936,o),
(146.774,666.58,c),
(146.773,636.868,o),
(110.846,621.989,o),
(89.831,642.999,c),
(68.822,664.006,o),
(83.7,699.936,o),
(113.415,699.936,c),
(146.773,699.936,o),
(180.126,733.289,o),
(180.126,774.985,c),
(180.126,792.671,o),
(187.45,800,o),
(205.141,800,c),
(338.552,800,l),
(356.243,800,o),
(363.572,792.671,o),
(363.572,774.985,c),
(363.572,733.289,o),
(396.925,699.936,o),
(430.277,699.936,c),
(448.697,699.936,o),
(463.629,684.999,o),
(463.629,666.58,c),
(463.632,541.509,l),
(463.632,523.09,o),
(448.699,508.156,o),
(430.279,508.156,c),
(411.859,508.156,o),
(396.926,523.09,o),
(396.926,541.509,c)
);
},
{
closed = 1;
nodes = (
(396.924,530.586,l),
(396.925,563.942,o),
(363.572,597.295,o),
(330.214,597.295,c),
(213.479,597.295,l),
(180.126,597.295,o),
(146.773,563.942,o),
(146.774,530.586,c),
(146.773,500.874,o),
(110.846,485.995,o),
(89.831,507.005,c),
(68.822,528.012,o),
(83.7,563.942,o),
(113.415,563.942,c),
(146.773,563.942,o),
(180.126,597.295,o),
(180.126,638.991,c),
(180.126,656.677,o),
(187.45,664.006,o),
(205.141,664.006,c),
(338.552,664.006,l),
(356.243,664.006,o),
(363.572,656.677,o),
(363.572,638.991,c),
(363.572,597.295,o),
(396.925,563.942,o),
(430.277,563.942,c),
(448.697,563.942,o),
(463.629,549.005,o),
(463.629,530.586,c),
(463.632,371.509,l),
(463.632,353.09,o),
(448.699,338.156,o),
(430.279,338.156,c),
(411.859,338.156,o),
(396.926,353.09,o),
(396.926,371.509,c)
);
}
);
width = 543.64;
}
);
note = p;
unicode = 112;
},
{
glyphname = q;
lastChange = "2024-04-05 19:20:00 +0000";
layers = (
{
layerId = m01;
shapes = (
{
closed = 1;
nodes = (
(146.727,383.797,l),
(146.727,417.16,o),
(180.09,450.523,o),
(213.453,450.523,c),
(330.229,450.523,l),
(363.592,450.523,o),
(396.955,417.16,o),
(396.955,383.797,c),
(396.955,354.072,o),
(432.893,339.188,o),
(453.909,360.205,c),
(474.931,381.222,o),
(460.042,417.16,o),
(430.318,417.16,c),
(396.955,417.16,o),
(363.592,450.523,o),
(363.592,492.232,c),
(363.592,509.923,o),
(356.266,517.254,o),
(338.569,517.254,c),
(205.112,517.254,l),
(187.421,517.254,o),
(180.09,509.923,o),
(180.09,492.232,c),
(180.09,450.523,o),
(146.727,417.16,o),
(113.358,417.16,c),
(94.939,417.16,o),
(79.995,402.222,o),
(79.995,383.797,c),
(79.995,258.68,l),
(79.995,240.255,o),
(94.939,225.317,o),
(113.358,225.317,c),
(131.789,225.317,o),
(146.727,240.255,o),
(146.727,258.68,c)
);
},
{
closed = 1;
nodes = (
(363.593,41.816,l),
(363.593,52.975,o),
(362.275,62.914,o),
(376.29,66.358,c),
(390.056,69.738,o),
(396.956,64.334,o),
(396.956,50.157,c),
(396.956,-150.026,l),
(396.956,-168.452,o),
(411.893,-183.389,o),
(430.319,-183.389,c),
(448.744,-183.389,o),
(463.682,-168.452,o),
(463.682,-150.026,c),
(463.682,133.57,l),
(463.682,283.703,l),
(463.682,302.129,o),
(448.744,317.072,o),
(430.319,317.072,c),
(411.893,317.072,o),
(396.956,302.129,o),
(396.956,283.703,c),
(396.956,133.57,l),
(396.956,100.207,o),
(363.593,66.844,o),
(330.224,66.844,c),
(213.454,66.844,l),
(180.091,66.844,o),
(146.728,100.207,o),
(146.728,133.57,c),
(146.728,158.587,l),
(146.728,177.017,o),
(131.785,191.955,o),
(113.359,191.955,c),
(94.934,191.955,o),
(79.996,177.017,o),
(79.996,158.587,c),
(79.996,133.57,l),
(79.996,115.139,o),
(94.934,100.207,o),
(113.359,100.207,c),
(146.728,100.207,o),
(180.091,66.844,o),
(180.091,25.135,c),
(180.091,7.438,o),
(187.417,0.113,o),
(205.113,0.113,c),
(338.565,0.113,l),
(356.261,0.113,o),
(363.593,7.438,o),
(363.593,25.135,c)
);
},
{
closed = 1;
nodes = (
(146.727,383.797,l),
(146.727,417.16,o),
(180.09,450.523,o),
(213.453,450.523,c),
(330.229,450.523,l),
(363.592,450.523,o),
(396.955,417.16,o),
(396.955,383.797,c),
(396.955,354.072,o),
(432.893,339.188,o),
(453.909,360.205,c),
(474.931,381.222,o),
(460.042,417.16,o),
(430.318,417.16,c),
(396.955,417.16,o),
(363.592,450.523,o),
(363.592,492.232,c),
(363.592,509.923,o),
(356.266,517.254,o),
(338.569,517.254,c),
(205.112,517.254,l),
(187.421,517.254,o),
(180.09,509.923,o),
(180.09,492.232,c),
(180.09,450.523,o),
(146.727,417.16,o),
(113.358,417.16,c),
(94.939,417.16,o),
(79.995,402.222,o),
(79.995,383.797,c),
(79.995,258.68,l),
(79.995,240.255,o),
(94.939,225.317,o),
(113.358,225.317,c),
(131.789,225.317,o),
(146.727,240.255,o),
(146.727,258.68,c)
);
},
{
closed = 1;
nodes = (
(146.727,383.797,l),
(146.727,417.16,o),
(180.09,450.523,o),
(213.453,450.523,c),
(330.229,450.523,l),
(363.592,450.523,o),
(396.955,417.16,o),
(396.955,383.797,c),
(396.955,354.072,o),
(432.893,339.188,o),
(453.909,360.205,c),
(474.931,381.222,o),
(460.042,417.16,o),
(430.318,417.16,c),
(396.955,417.16,o),
(363.592,450.523,o),
(363.592,492.232,c),
(363.592,509.923,o),
(356.266,517.254,o),
(338.569,517.254,c),
(205.112,517.254,l),
(187.421,517.254,o),
(180.09,509.923,o),
(180.09,492.232,c),
(180.09,450.523,o),
(146.727,417.16,o),
(113.358,417.16,c),
(94.939,417.16,o),
(79.995,402.222,o),
(79.995,383.797,c),
(79.995,258.68,l),
(79.995,240.255,o),
(94.939,225.317,o),
(113.358,225.317,c),
(131.789,225.317,o),
(146.727,240.255,o),
(146.727,258.68,c)
);
}
);
width = 543.75;
},
{
layerId = "6B2E2D58-830D-4489-B075-47D8B481EF18";
shapes = (
{
closed = 1;
nodes = (
(146.727,383.797,l),
(146.727,417.16,o),
(180.09,450.523,o),
(213.453,450.523,c),
(330.229,450.523,l),
(363.592,450.523,o),
(396.955,417.16,o),
(396.955,383.797,c),
(396.955,354.072,o),
(432.893,339.188,o),
(453.909,360.205,c),
(474.931,381.222,o),
(460.042,417.16,o),
(430.318,417.16,c),
(396.955,417.16,o),
(363.592,450.523,o),
(363.592,492.232,c),
(363.592,509.923,o),
(356.266,517.254,o),
(338.569,517.254,c),
(205.112,517.254,l),
(187.421,517.254,o),
(180.09,509.923,o),
(180.09,492.232,c),
(180.09,450.523,o),
(146.727,417.16,o),
(113.358,417.16,c),
(94.939,417.16,o),
(79.995,402.222,o),
(79.995,383.797,c),
(79.995,258.68,l),
(79.995,240.255,o),
(94.939,225.317,o),
(113.358,225.317,c),
(131.789,225.317,o),
(146.727,240.255,o),
(146.727,258.68,c)
);
},
{
closed = 1;
nodes = (
(363.593,41.816,l),
(363.593,52.975,o),
(362.275,62.914,o),
(376.29,66.358,c),
(390.056,69.738,o),
(396.956,64.334,o),
(396.956,50.157,c),
(396.956,-150.026,l),
(396.956,-168.452,o),
(411.893,-183.389,o),
(430.319,-183.389,c),
(448.744,-183.389,o),
(463.682,-168.452,o),
(463.682,-150.026,c),
(463.682,133.57,l),
(463.682,283.703,l),
(463.682,302.129,o),
(448.744,317.072,o),
(430.319,317.072,c),
(411.893,317.072,o),
(396.956,302.129,o),
(396.956,283.703,c),
(396.956,133.57,l),
(396.956,100.207,o),
(363.593,66.844,o),
(330.224,66.844,c),
(213.454,66.844,l),
(180.091,66.844,o),
(146.728,100.207,o),
(146.728,133.57,c),
(146.728,158.587,l),
(146.728,177.017,o),
(131.785,191.955,o),
(113.359,191.955,c),
(94.934,191.955,o),
(79.996,177.017,o),
(79.996,158.587,c),
(79.996,133.57,l),
(79.996,115.139,o),
(94.934,100.207,o),
(113.359,100.207,c),
(146.728,100.207,o),
(180.091,66.844,o),
(180.091,25.135,c),
(180.091,7.438,o),
(187.417,0.113,o),
(205.113,0.113,c),
(338.565,0.113,l),
(356.261,0.113,o),
(363.593,7.438,o),
(363.593,25.135,c)
);
},
{
closed = 1;
nodes = (
(146.727,520.435,l),
(146.727,553.798,o),
(180.09,587.161,o),
(213.453,587.161,c),
(330.229,587.161,l),
(363.592,587.161,o),
(396.955,553.798,o),
(396.955,520.435,c),
(396.955,490.71,o),
(432.893,475.826,o),
(453.909,496.843,c),
(474.931,517.86,o),
(460.042,553.798,o),
(430.318,553.798,c),
(396.955,553.798,o),
(363.592,587.161,o),
(363.592,628.87,c),
(363.592,646.561,o),
(356.266,653.892,o),
(338.569,653.892,c),
(205.112,653.892,l),
(187.421,653.892,o),
(180.09,646.561,o),
(180.09,628.87,c),
(180.09,587.161,o),
(146.727,553.798,o),
(113.358,553.798,c),
(94.939,553.798,o),
(79.995,538.86,o),
(79.995,520.435,c),
(79.995,395.318,l),
(79.995,376.893,o),
(94.939,361.955,o),
(113.358,361.955,c),
(131.789,361.955,o),
(146.727,376.893,o),
(146.727,395.318,c)
);
},
{
closed = 1;
nodes = (
(146.727,666.543,l),
(146.727,699.906,o),
(180.09,733.269,o),
(213.453,733.269,c),
(330.229,733.269,l),
(363.592,733.269,o),
(396.955,699.906,o),
(396.955,666.543,c),
(396.955,636.818,o),
(432.893,621.934,o),
(453.909,642.951,c),
(474.931,663.968,o),
(460.042,699.906,o),
(430.318,699.906,c),
(396.955,699.906,o),
(363.592,733.269,o),
(363.592,774.978,c),
(363.592,792.669,o),
(356.266,800,o),
(338.569,800,c),
(205.112,800,l),
(187.421,800,o),
(180.09,792.669,o),
(180.09,774.978,c),
(180.09,733.269,o),
(146.727,699.906,o),
(113.358,699.906,c),
(94.939,699.906,o),
(79.995,684.968,o),
(79.995,666.543,c),
(79.995,541.426,l),
(79.995,523.001,o),
(94.939,508.063,o),
(113.358,508.063,c),
(131.789,508.063,o),
(146.727,523.001,o),
(146.727,541.426,c)
);
}
);
width = 543.75;
}
);
note = q;
unicode = 113;
},
{
glyphname = r;
lastChange = "2024-04-05 19:14:56 +0000";
layers = (
{
layerId = m01;
shapes = (
{
closed = 1;
nodes = (
(146.746,383.794,l),
(146.746,417.167,o),
(180.118,450.539,o),
(213.491,450.539,c),
(238.526,450.539,l),
(271.898,450.539,o),
(305.271,417.167,o),
(305.271,383.794,c),
(305.271,354.062,o),
(341.219,339.174,o),
(362.242,360.196,c),
(383.264,381.219,o),
(368.376,417.167,o),
(338.643,417.167,c),
(305.271,417.167,o),
(271.898,450.539,o),
(271.898,492.26,c),
(271.898,509.956,o),
(264.565,517.29,o),
(246.863,517.29,c),
(205.148,517.29,l),
(187.452,517.29,o),
(180.118,509.956,o),
(180.118,492.26,c),
(180.118,450.539,o),
(146.746,417.167,o),
(113.374,417.167,c),
(94.943,417.167,o),
(79.996,402.225,o),
(79.996,383.794,c),
(79.996,33.372,l),
(79.996,14.942,o),
(94.943,0,o),
(113.374,0,c),
(131.804,0,o),
(146.746,14.942,o),
(146.746,33.372,c)
);
},
{
closed = 1;
nodes = (
(146.746,383.794,l),
(146.746,417.167,o),
(180.118,450.539,o),
(213.491,450.539,c),
(238.526,450.539,l),
(271.898,450.539,o),
(305.271,417.167,o),
(305.271,383.794,c),
(305.271,354.062,o),
(341.219,339.174,o),
(362.242,360.196,c),
(383.264,381.219,o),
(368.376,417.167,o),
(338.643,417.167,c),
(305.271,417.167,o),
(271.898,450.539,o),
(271.898,492.26,c),
(271.898,509.956,o),
(264.565,517.29,o),
(246.863,517.29,c),
(205.148,517.29,l),
(187.452,517.29,o),
(180.118,509.956,o),
(180.118,492.26,c),
(180.118,450.539,o),
(146.746,417.167,o),
(113.374,417.167,c),
(94.943,417.167,o),
(79.996,402.225,o),
(79.996,383.794,c),
(79.996,33.372,l),
(79.996,14.942,o),
(94.943,0,o),
(113.374,0,c),
(131.804,0,o),
(146.746,14.942,o),
(146.746,33.372,c)
);
},
{
closed = 1;
nodes = (
(146.746,383.794,l),
(146.746,417.167,o),
(180.118,450.539,o),
(213.491,450.539,c),
(238.526,450.539,l),
(271.898,450.539,o),
(305.271,417.167,o),
(305.271,383.794,c),
(305.271,354.062,o),
(341.219,339.174,o),
(362.242,360.196,c),
(383.264,381.219,o),
(368.376,417.167,o),
(338.643,417.167,c),
(305.271,417.167,o),
(271.898,450.539,o),
(271.898,492.26,c),
(271.898,509.956,o),
(264.565,517.29,o),
(246.863,517.29,c),
(205.148,517.29,l),
(187.452,517.29,o),
(180.118,509.956,o),
(180.118,492.26,c),
(180.118,450.539,o),
(146.746,417.167,o),
(113.374,417.167,c),
(94.943,417.167,o),
(79.996,402.225,o),
(79.996,383.794,c),
(79.996,33.372,l),
(79.996,14.942,o),
(94.943,0,o),
(113.374,0,c),
(131.804,0,o),
(146.746,14.942,o),
(146.746,33.372,c)
);
}
);
width = 452.08;
},
{
layerId = "6B2E2D58-830D-4489-B075-47D8B481EF18";
shapes = (
{
closed = 1;
nodes = (
(146.746,383.794,l),
(146.746,417.167,o),
(180.118,450.539,o),
(213.491,450.539,c),
(238.526,450.539,l),
(271.898,450.539,o),
(305.271,417.167,o),
(305.271,383.794,c),
(305.271,354.062,o),
(341.219,339.174,o),
(362.242,360.196,c),
(383.264,381.219,o),
(368.376,417.167,o),
(338.643,417.167,c),
(305.271,417.167,o),
(271.898,450.539,o),
(271.898,492.26,c),
(271.898,509.956,o),
(264.565,517.29,o),
(246.863,517.29,c),
(205.148,517.29,l),
(187.452,517.29,o),
(180.118,509.956,o),
(180.118,492.26,c),
(180.118,450.539,o),
(146.746,417.167,o),
(113.374,417.167,c),
(94.943,417.167,o),
(79.996,402.225,o),
(79.996,383.794,c),
(79.996,33.372,l),
(79.996,14.942,o),
(94.943,0,o),
(113.374,0,c),
(131.804,0,o),
(146.746,14.942,o),
(146.746,33.372,c)
);
},
{
closed = 1;
nodes = (
(146.746,523.477,l),
(146.746,556.85,o),
(180.118,590.222,o),
(213.491,590.222,c),
(238.526,590.222,l),
(271.898,590.222,o),
(305.271,556.85,o),
(305.271,523.477,c),
(305.271,493.745,o),
(341.219,478.857,o),
(362.242,499.879,c),
(383.264,520.902,o),
(368.376,556.85,o),
(338.643,556.85,c),
(305.271,556.85,o),
(271.898,590.222,o),
(271.898,631.943,c),
(271.898,649.639,o),
(264.565,656.973,o),
(246.863,656.973,c),
(205.148,656.973,l),
(187.452,656.973,o),
(180.118,649.639,o),
(180.118,631.943,c),
(180.118,590.222,o),
(146.746,556.85,o),
(113.374,556.85,c),
(94.943,556.85,o),
(79.996,541.908,o),
(79.996,523.477,c),
(79.996,173.055,l),
(79.996,154.625,o),
(94.943,139.683,o),
(113.374,139.683,c),
(131.804,139.683,o),
(146.746,154.625,o),
(146.746,173.055,c)
);
},
{
closed = 1;
nodes = (
(146.746,666.504,l),
(146.746,699.877,o),
(180.118,733.249,o),
(213.491,733.249,c),
(238.526,733.249,l),
(271.898,733.249,o),
(305.271,699.877,o),
(305.271,666.504,c),
(305.271,636.772,o),
(341.219,621.884,o),
(362.242,642.906,c),
(383.264,663.929,o),
(368.376,699.877,o),
(338.643,699.877,c),
(305.271,699.877,o),
(271.898,733.249,o),
(271.898,774.97,c),
(271.898,792.666,o),
(264.565,800,o),
(246.863,800,c),
(205.148,800,l),
(187.452,800,o),
(180.118,792.666,o),
(180.118,774.97,c),
(180.118,733.249,o),
(146.746,699.877,o),
(113.374,699.877,c),
(94.943,699.877,o),
(79.996,684.935,o),
(79.996,666.504,c),
(79.996,316.082,l),
(79.996,297.652,o),
(94.943,282.71,o),
(113.374,282.71,c),
(131.804,282.71,o),
(146.746,297.652,o),
(146.746,316.082,c)
);
}
);
width = 452.08;
}
);
note = r;
unicode = 114;
},
{
glyphname = s;
lastChange = "2024-04-05 19:18:27 +0000";
layers = (
{
layerId = m01;
shapes = (
{
closed = 1;
nodes = (
(180.082,291.706,o),
(146.745,325.043,o),
(146.745,358.385,c),
(146.745,388.081,o),
(110.835,402.958,o),
(89.835,381.958,c),
(68.835,360.953,o),
(83.707,325.043,o),
(113.408,325.043,c),
(146.745,325.043,o),
(180.082,291.706,o),
(180.082,250.035,c),
(180.082,232.353,o),
(187.407,225.033,o),
(205.084,225.033,c),
(330.103,225.033,l),
(363.445,225.033,o),
(396.782,191.696,o),
(396.782,158.354,c),
(396.782,128.653,o),
(432.692,113.78,o),
(453.692,134.78,c),
(474.692,155.786,o),
(459.814,191.696,o),
(430.119,191.696,c),
(396.782,191.696,o),
(363.445,225.033,o),
(363.445,266.704,c),
(363.445,284.381,o),
(356.119,291.706,o),
(338.437,291.706,c),
(213.419,291.706,l)
);
},
{
closed = 1;
nodes = (
(146.747,383.386,l),
(146.747,416.722,o),
(180.083,450.059,o),
(213.42,450.059,c),
(330.104,450.059,l),
(363.441,450.059,o),
(396.778,416.722,o),
(396.778,383.386,c),
(396.778,353.684,o),
(432.688,338.812,o),
(453.688,359.812,c),
(474.693,380.812,o),
(459.816,416.722,o),
(430.115,416.722,c),
(396.778,416.722,o),
(363.441,450.059,o),
(363.441,491.736,c),
(363.441,509.413,o),
(356.121,516.738,o),
(338.439,516.738,c),
(205.086,516.738,l),
(187.409,516.738,o),
(180.083,509.413,o),
(180.083,491.736,c),
(180.083,450.059,o),
(146.747,416.722,o),
(113.41,416.722,c),
(94.999,416.722,o),
(80.068,401.796,o),
(80.068,383.386,c),
(80.068,358.383,l),
(80.068,339.972,o),
(94.999,325.041,o),
(113.41,325.041,c),
(131.821,325.041,o),
(146.747,339.972,o),
(146.747,358.383,c)
);
},
{
closed = 1;
nodes = (
(396.78,133.353,l),
(396.78,100.016,o),
(363.443,66.679,o),
(330.101,66.679,c),
(213.422,66.679,l),
(180.085,66.679,o),
(146.748,100.016,o),
(146.748,133.353,c),
(146.748,163.054,o),
(110.838,177.926,o),
(89.833,156.926,c),
(68.833,135.926,o),
(83.705,100.016,o),
(113.411,100.016,c),
(146.748,100.016,o),
(180.085,66.679,o),
(180.085,25.003,c),
(180.085,7.325,o),
(187.405,0,o),
(205.088,0,c),
(338.435,0,l),
(356.117,0,o),
(363.443,7.325,o),
(363.443,25.003,c),
(363.443,66.679,o),
(396.78,100.016,o),
(430.116,100.016,c),
(448.527,100.016,o),
(463.453,114.942,o),
(463.453,133.353,c),
(463.453,158.355,l),
(463.453,176.766,o),
(448.527,191.697,o),
(430.116,191.697,c),
(411.706,191.697,o),
(396.78,176.766,o),
(396.78,158.355,c)
);
},
{
closed = 1;
nodes = (
(180.082,291.706,o),
(146.745,325.043,o),
(146.745,358.385,c),
(146.745,388.081,o),
(110.835,402.958,o),
(89.835,381.958,c),
(68.835,360.953,o),
(83.707,325.043,o),
(113.408,325.043,c),
(146.745,325.043,o),
(180.082,291.706,o),
(180.082,250.035,c),
(180.082,232.353,o),
(187.407,225.033,o),
(205.084,225.033,c),
(330.103,225.033,l),
(363.445,225.033,o),
(396.782,191.696,o),
(396.782,158.354,c),
(396.782,128.653,o),
(432.692,113.78,o),
(453.692,134.78,c),
(474.692,155.786,o),
(459.814,191.696,o),
(430.119,191.696,c),
(396.782,191.696,o),
(363.445,225.033,o),
(363.445,266.704,c),
(363.445,284.381,o),
(356.119,291.706,o),
(338.437,291.706,c),
(213.419,291.706,l)
);
},
{
closed = 1;
nodes = (
(180.082,291.706,o),
(146.745,325.043,o),
(146.745,358.385,c),
(146.745,388.081,o),
(110.835,402.958,o),
(89.835,381.958,c),
(68.835,360.953,o),
(83.707,325.043,o),
(113.408,325.043,c),
(146.745,325.043,o),
(180.082,291.706,o),
(180.082,250.035,c),
(180.082,232.353,o),
(187.407,225.033,o),
(205.084,225.033,c),
(330.103,225.033,l),
(363.445,225.033,o),
(396.782,191.696,o),
(396.782,158.354,c),
(396.782,128.653,o),
(432.692,113.78,o),
(453.692,134.78,c),
(474.692,155.786,o),
(459.814,191.696,o),
(430.119,191.696,c),
(396.782,191.696,o),
(363.445,225.033,o),
(363.445,266.704,c),
(363.445,284.381,o),
(356.119,291.706,o),
(338.437,291.706,c),
(213.419,291.706,l)
);
}
);
width = 543.52;
},
{
layerId = "6B2E2D58-830D-4489-B075-47D8B481EF18";
shapes = (
{
closed = 1;
nodes = (
(180.082,291.706,o),
(146.745,325.043,o),
(146.745,358.385,c),
(146.745,388.081,o),
(110.835,402.958,o),
(89.835,381.958,c),
(68.835,360.953,o),
(83.707,325.043,o),
(113.408,325.043,c),
(146.745,325.043,o),
(180.082,291.706,o),
(180.082,250.035,c),
(180.082,232.353,o),
(187.407,225.033,o),
(205.084,225.033,c),
(330.103,225.033,l),
(363.445,225.033,o),
(396.782,191.696,o),
(396.782,158.354,c),
(396.782,128.653,o),
(432.692,113.78,o),
(453.692,134.78,c),
(474.692,155.786,o),
(459.814,191.696,o),
(430.119,191.696,c),
(396.782,191.696,o),
(363.445,225.033,o),
(363.445,266.704,c),
(363.445,284.381,o),
(356.119,291.706,o),
(338.437,291.706,c),
(213.419,291.706,l)
);
},
{
closed = 1;
nodes = (
(146.747,666.647,l),
(146.747,699.984,o),
(180.083,733.321,o),
(213.42,733.321,c),
(330.104,733.321,l),
(363.441,733.321,o),
(396.778,699.984,o),
(396.778,666.647,c),
(396.778,636.946,o),
(432.688,622.074,o),
(453.688,643.074,c),
(474.693,664.074,o),
(459.816,699.984,o),
(430.115,699.984,c),
(396.778,699.984,o),
(363.441,733.321,o),
(363.441,774.997,c),
(363.441,792.675,o),
(356.121,800,o),
(338.439,800,c),
(205.086,800,l),
(187.409,800,o),
(180.083,792.675,o),
(180.083,774.997,c),
(180.083,733.321,o),
(146.747,699.984,o),
(113.41,699.984,c),
(95,699.984,o),
(80.068,685.058,o),
(80.068,666.647,c),
(80.068,641.645,l),
(80.068,623.234,o),
(95,608.303,o),
(113.41,608.303,c),
(131.821,608.303,o),
(146.747,623.234,o),
(146.747,641.645,c)
);
},
{
closed = 1;
nodes = (
(396.78,133.353,l),
(396.78,100.016,o),
(363.443,66.679,o),
(330.101,66.679,c),
(213.422,66.679,l),
(180.085,66.679,o),
(146.748,100.016,o),
(146.748,133.353,c),
(146.748,163.054,o),
(110.838,177.926,o),
(89.833,156.926,c),
(68.833,135.926,o),
(83.705,100.016,o),
(113.411,100.016,c),
(146.748,100.016,o),
(180.085,66.679,o),
(180.085,25.003,c),
(180.085,7.325,o),
(187.405,0,o),
(205.088,0,c),
(338.435,0,l),
(356.117,0,o),
(363.443,7.325,o),
(363.443,25.003,c),
(363.443,66.679,o),
(396.78,100.016,o),
(430.116,100.016,c),
(448.527,100.016,o),
(463.453,114.942,o),
(463.453,133.353,c),
(463.453,158.355,l),
(463.453,176.766,o),
(448.527,191.697,o),
(430.116,191.697,c),
(411.706,191.697,o),
(396.78,176.766,o),
(396.78,158.355,c)
);
},
{
closed = 1;
nodes = (
(180.082,433.574,o),
(146.745,466.911,o),
(146.745,500.253,c),
(146.745,529.949,o),
(110.835,544.826,o),
(89.835,523.826,c),
(68.835,502.821,o),
(83.707,466.911,o),
(113.408,466.911,c),
(146.745,466.911,o),
(180.082,433.574,o),
(180.082,391.903,c),
(180.082,374.221,o),
(187.407,366.901,o),
(205.084,366.901,c),
(330.103,366.901,l),
(363.445,366.901,o),
(396.782,333.564,o),
(396.782,300.222,c),
(396.782,270.521,o),
(432.692,255.648,o),
(453.692,276.648,c),
(474.692,297.654,o),
(459.814,333.564,o),
(430.119,333.564,c),
(396.782,333.564,o),
(363.445,366.901,o),
(363.445,408.572,c),
(363.445,426.249,o),
(356.119,433.574,o),
(338.437,433.574,c),
(213.419,433.574,l)
);
},
{
closed = 1;
nodes = (
(180.082,573.667,o),
(146.745,607.004,o),
(146.745,640.346,c),
(146.745,670.042,o),
(110.835,684.919,o),
(89.835,663.919,c),
(68.835,642.914,o),
(83.707,607.004,o),
(113.408,607.004,c),
(146.745,607.004,o),
(180.082,573.667,o),
(180.082,531.996,c),
(180.082,514.314,o),
(187.407,506.994,o),
(205.084,506.994,c),
(330.103,506.994,l),
(363.445,506.994,o),
(396.782,473.657,o),
(396.782,440.315,c),
(396.782,410.614,o),
(432.692,395.741,o),
(453.692,416.741,c),
(474.692,437.747,o),
(459.814,473.657,o),
(430.119,473.657,c),
(396.782,473.657,o),
(363.445,506.994,o),
(363.445,548.665,c),
(363.445,566.342,o),
(356.119,573.667,o),
(338.437,573.667,c),
(213.419,573.667,l)
);
}
);
width = 543.52;
}
);
note = s;
unicode = 115;
},
{
glyphname = t;
lastChange = "2024-04-05 19:38:17 +0000";
layers = (
{
layerId = m01;
shapes = (
{
closed = 1;
nodes = (
(238.397,574.999,l),
(238.397,556.59,o),
(253.321,541.661,o),
(271.729,541.661,c),
(290.137,541.661,o),
(305.061,556.59,o),
(305.061,574.999,c),
(305.061,666.662,l),
(305.061,685.071,o),
(290.137,700,o),
(271.728,700,c),
(253.321,700,o),
(238.397,685.071,o),
(238.397,666.662,c)
);
},
{
closed = 1;
nodes = (
(238.397,33.332,l),
(238.397,14.924,o),
(253.321,0,o),
(271.728,0,c),
(290.137,0,o),
(305.061,14.924,o),
(305.061,33.332,c),
(305.061,391.665,l),
(305.061,410.073,o),
(290.137,424.997,o),
(271.729,424.997,c),
(253.321,424.997,o),
(238.397,410.073,o),
(238.397,391.665,c)
);
},
{
closed = 1;
nodes = (
(396.729,416.664,o),
(363.397,449.996,o),
(363.397,491.667,c),
(363.397,509.342,o),
(356.072,516.666,o),
(338.392,516.666,c),
(205.063,516.666,l),
(187.383,516.666,o),
(180.064,509.342,o),
(180.064,491.667,c),
(180.064,449.996,o),
(146.731,416.664,o),
(113.399,416.664,c),
(83.697,416.664,o),
(68.827,380.759,o),
(89.829,359.762,c),
(110.826,338.759,o),
(146.731,353.634,o),
(146.731,383.331,c),
(146.731,416.664,o),
(180.064,449.996,o),
(213.396,449.996,c),
(330.064,449.996,l),
(363.397,449.996,o),
(396.729,416.664,o),
(396.729,383.331,c),
(396.729,353.634,o),
(432.634,338.759,o),
(453.636,359.762,c),
(474.628,380.759,o),
(459.758,416.664,o),
(430.061,416.664,c)
);
},
{
closed = 1;
nodes = (
(396.729,416.664,o),
(363.397,449.996,o),
(363.397,491.667,c),
(363.397,509.342,o),
(356.072,516.666,o),
(338.392,516.666,c),
(205.063,516.666,l),
(187.383,516.666,o),
(180.064,509.342,o),
(180.064,491.667,c),
(180.064,449.996,o),
(146.731,416.664,o),
(113.399,416.664,c),
(83.697,416.664,o),
(68.827,380.759,o),
(89.829,359.762,c),
(110.826,338.759,o),
(146.731,353.634,o),
(146.731,383.331,c),
(146.731,416.664,o),
(180.064,449.996,o),
(213.396,449.996,c),
(330.064,449.996,l),
(363.397,449.996,o),
(396.729,416.664,o),
(396.729,383.331,c),
(396.729,353.634,o),
(432.634,338.759,o),
(453.636,359.762,c),
(474.628,380.759,o),
(459.758,416.664,o),
(430.061,416.664,c)
);
},
{
closed = 1;
nodes = (
(396.729,416.664,o),
(363.397,449.996,o),
(363.397,491.667,c),
(363.397,509.342,o),
(356.072,516.666,o),
(338.392,516.666,c),
(205.063,516.666,l),
(187.383,516.666,o),
(180.064,509.342,o),
(180.064,491.667,c),
(180.064,449.996,o),
(146.731,416.664,o),
(113.399,416.664,c),
(83.697,416.664,o),
(68.827,380.759,o),
(89.829,359.762,c),
(110.826,338.759,o),
(146.731,353.634,o),
(146.731,383.331,c),
(146.731,416.664,o),
(180.064,449.996,o),
(213.396,449.996,c),
(330.064,449.996,l),
(363.397,449.996,o),
(396.729,416.664,o),
(396.729,383.331,c),
(396.729,353.634,o),
(432.634,338.759,o),
(453.636,359.762,c),
(474.628,380.759,o),
(459.758,416.664,o),
(430.061,416.664,c)
);
}
);
width = 543.46;
},
{
layerId = "6B2E2D58-830D-4489-B075-47D8B481EF18";
shapes = (
{
closed = 1;
nodes = (
(238.397,765.928,l),
(238.397,747.519,o),
(253.321,732.59,o),
(271.729,732.59,c),
(290.137,732.59,o),
(305.061,747.519,o),
(305.061,765.928,c),
(305.061,766.662,l),
(305.061,785.071,o),
(290.137,800,o),
(271.728,800,c),
(253.321,800,o),
(238.397,785.071,o),
(238.397,766.662,c)
);
},
{
closed = 1;
nodes = (
(238.397,33.332,l),
(238.397,14.924,o),
(253.321,0,o),
(271.728,0,c),
(290.137,0,o),
(305.061,14.924,o),
(305.061,33.332,c),
(305.061,391.665,l),
(305.061,410.073,o),
(290.137,424.997,o),
(271.729,424.997,c),
(253.321,424.997,o),
(238.397,410.073,o),
(238.397,391.665,c)
);
},
{
closed = 1;
nodes = (
(396.729,416.664,o),
(363.397,449.996,o),
(363.397,491.667,c),
(363.397,509.342,o),
(356.072,516.666,o),
(338.392,516.666,c),
(205.063,516.666,l),
(187.383,516.666,o),
(180.064,509.342,o),
(180.064,491.667,c),
(180.064,449.996,o),
(146.731,416.664,o),
(113.399,416.664,c),
(83.697,416.664,o),
(68.827,380.759,o),
(89.829,359.762,c),
(110.826,338.759,o),
(146.731,353.634,o),
(146.731,383.331,c),
(146.731,416.664,o),
(180.064,449.996,o),
(213.396,449.996,c),
(330.064,449.996,l),
(363.397,449.996,o),
(396.729,416.664,o),
(396.729,383.331,c),
(396.729,353.634,o),
(432.634,338.759,o),
(453.636,359.762,c),
(474.628,380.759,o),
(459.758,416.664,o),
(430.061,416.664,c)
);
},
{
closed = 1;
nodes = (
(396.729,515.872,o),
(363.397,549.204,o),
(363.397,590.875,c),
(363.397,608.55,o),
(356.072,615.874,o),
(338.392,615.874,c),
(205.063,615.874,l),
(187.383,615.874,o),
(180.064,608.55,o),
(180.064,590.875,c),
(180.064,549.204,o),
(146.731,515.872,o),
(113.399,515.872,c),
(83.697,515.872,o),
(68.827,479.967,o),
(89.829,458.97,c),
(110.826,437.967,o),
(146.731,452.842,o),
(146.731,482.539,c),
(146.731,515.872,o),
(180.064,549.204,o),
(213.396,549.204,c),
(330.064,549.204,l),
(363.397,549.204,o),
(396.729,515.872,o),
(396.729,482.539,c),
(396.729,452.842,o),
(432.634,437.967,o),
(453.636,458.97,c),
(474.628,479.967,o),
(459.758,515.872,o),
(430.061,515.872,c)
);
},
{
closed = 1;
nodes = (
(396.729,615.874,o),
(363.397,649.206,o),
(363.397,690.877,c),
(363.397,708.552,o),
(356.072,715.876,o),
(338.392,715.876,c),
(205.063,715.876,l),
(187.383,715.876,o),
(180.064,708.552,o),
(180.064,690.877,c),
(180.064,649.206,o),
(146.731,615.874,o),
(113.399,615.874,c),
(83.697,615.874,o),
(68.827,579.969,o),
(89.829,558.972,c),
(110.826,537.969,o),
(146.731,552.844,o),
(146.731,582.541,c),
(146.731,615.874,o),
(180.064,649.206,o),
(213.396,649.206,c),
(330.064,649.206,l),
(363.397,649.206,o),
(396.729,615.874,o),
(396.729,582.541,c),
(396.729,552.844,o),
(432.634,537.969,o),
(453.636,558.972,c),
(474.628,579.969,o),
(459.758,615.874,o),
(430.061,615.874,c)
);
}
);
width = 543.46;
}
);
note = t;
unicode = 116;
},
{
glyphname = u;
lastChange = "2024-04-05 19:43:02 +0000";
layers = (
{
layerId = m01;
shapes = (
{
closed = 1;
nodes = (
(338.635,0,l),
(356.335,0,o),
(363.668,7.333,o),
(363.668,25.028,c),
(363.668,41.714,l),
(363.668,52.875,o),
(362.351,62.816,o),
(376.361,66.257,c),
(390.125,69.642,o),
(397.031,64.232,o),
(397.031,50.053,c),
(397.031,33.369,l),
(397.031,14.94,o),
(411.965,0,o),
(430.41,0,c),
(448.84,0,o),
(463.781,14.941,o),
(463.781,33.371,c),
(463.781,483.896,l),
(463.781,502.326,o),
(448.84,517.267,o),
(430.41,517.267,c),
(411.975,517.267,o),
(397.039,502.326,o),
(397.039,483.896,c),
(397.031,133.48,l),
(397.031,100.111,o),
(363.668,66.747,o),
(330.292,66.747,c),
(213.488,66.747,l),
(180.117,66.747,o),
(146.755,100.111,o),
(146.755,133.48,c),
(146.746,151.919,o),
(131.804,166.861,o),
(113.375,166.861,c),
(94.945,166.861,o),
(80.004,151.919,o),
(80.004,133.49,c),
(80.004,115.054,o),
(94.945,100.119,o),
(113.375,100.119,c),
(146.755,100.111,o),
(180.117,66.747,o),
(180.117,25.028,c),
(180.117,7.333,o),
(187.45,0,o),
(205.145,0,c)
);
},
{
closed = 1;
nodes = (
(146.747,483.894,l),
(146.747,502.329,o),
(131.806,517.265,o),
(113.371,517.265,c),
(94.947,517.265,o),
(80,502.329,o),
(80,483.894,c),
(80,233.606,l),
(80,215.176,o),
(94.947,200.229,o),
(113.371,200.229,c),
(131.806,200.229,o),
(146.747,215.176,o),
(146.747,233.606,c)
);
},
{
closed = 1;
nodes = (
(338.635,0,l),
(356.335,0,o),
(363.668,7.333,o),
(363.668,25.028,c),
(363.668,41.714,l),
(363.668,52.875,o),
(362.351,62.816,o),
(376.361,66.257,c),
(390.125,69.642,o),
(397.031,64.232,o),
(397.031,50.053,c),
(397.031,33.369,l),
(397.031,14.94,o),
(411.965,0,o),
(430.41,0,c),
(448.84,0,o),
(463.781,14.941,o),
(463.781,33.371,c),
(463.781,483.896,l),
(463.781,502.326,o),
(448.84,517.267,o),
(430.41,517.267,c),
(411.975,517.267,o),
(397.039,502.326,o),
(397.039,483.896,c),
(397.031,133.48,l),
(397.031,100.111,o),
(363.668,66.747,o),
(330.292,66.747,c),
(213.488,66.747,l),
(180.117,66.747,o),
(146.755,100.111,o),
(146.755,133.48,c),
(146.746,151.919,o),
(131.804,166.861,o),
(113.375,166.861,c),
(94.945,166.861,o),
(80.004,151.919,o),
(80.004,133.49,c),
(80.004,115.054,o),
(94.945,100.119,o),
(113.375,100.119,c),
(146.755,100.111,o),
(180.117,66.747,o),
(180.117,25.028,c),
(180.117,7.333,o),
(187.45,0,o),
(205.145,0,c)
);
},
{
closed = 1;
nodes = (
(338.635,0,l),
(356.335,0,o),
(363.668,7.333,o),
(363.668,25.028,c),
(363.668,41.714,l),
(363.668,52.875,o),
(362.351,62.816,o),
(376.361,66.257,c),
(390.125,69.642,o),
(397.031,64.232,o),
(397.031,50.053,c),
(397.031,33.369,l),
(397.031,14.94,o),
(411.965,0,o),
(430.41,0,c),
(448.84,0,o),
(463.781,14.941,o),
(463.781,33.371,c),
(463.781,483.896,l),
(463.781,502.326,o),
(448.84,517.267,o),
(430.41,517.267,c),
(411.975,517.267,o),
(397.039,502.326,o),
(397.039,483.896,c),
(397.031,133.48,l),
(397.031,100.111,o),
(363.668,66.747,o),
(330.292,66.747,c),
(213.488,66.747,l),
(180.117,66.747,o),
(146.755,100.111,o),
(146.755,133.48,c),
(146.746,151.919,o),
(131.804,166.861,o),
(113.375,166.861,c),
(94.945,166.861,o),
(80.004,151.919,o),
(80.004,133.49,c),
(80.004,115.054,o),
(94.945,100.119,o),
(113.375,100.119,c),
(146.755,100.111,o),
(180.117,66.747,o),
(180.117,25.028,c),
(180.117,7.333,o),
(187.45,0,o),
(205.145,0,c)
);
}
);
width = 543.78;
},
{
layerId = "6B2E2D58-830D-4489-B075-47D8B481EF18";
shapes = (
{
closed = 1;
nodes = (
(338.635,0,l),
(356.335,0,o),
(363.668,7.333,o),
(363.668,25.028,c),
(363.668,41.714,l),
(363.668,52.875,o),
(362.351,62.816,o),
(376.361,66.257,c),
(390.125,69.642,o),
(397.031,64.232,o),
(397.031,50.053,c),
(397.031,33.369,l),
(397.031,14.94,o),
(411.965,0,o),
(430.41,0,c),
(448.84,0,o),
(463.781,14.941,o),
(463.781,33.371,c),
(463.781,483.896,l),
(463.781,502.326,o),
(448.84,517.267,o),
(430.41,517.267,c),
(411.975,517.267,o),
(397.039,502.326,o),
(397.039,483.896,c),
(397.031,133.48,l),
(397.031,100.111,o),
(363.668,66.747,o),
(330.292,66.747,c),
(213.488,66.747,l),
(180.117,66.747,o),
(146.755,100.111,o),
(146.755,133.48,c),
(146.746,151.919,o),
(131.804,166.861,o),
(113.375,166.861,c),
(94.945,166.861,o),
(80.004,151.919,o),
(80.004,133.49,c),
(80.004,115.054,o),
(94.945,100.119,o),
(113.375,100.119,c),
(146.755,100.111,o),
(180.117,66.747,o),
(180.117,25.028,c),
(180.117,7.333,o),
(187.45,0,o),
(205.145,0,c)
);
},
{
closed = 1;
nodes = (
(146.747,766.629,l),
(146.747,785.064,o),
(131.806,800,o),
(113.371,800,c),
(94.947,800,o),
(80,785.064,o),
(80,766.629,c),
(80,516.341,l),
(80,497.911,o),
(94.947,482.964,o),
(113.371,482.964,c),
(131.806,482.964,o),
(146.747,497.911,o),
(146.747,516.341,c)
);
},
{
closed = 1;
nodes = (
(338.635,142.694,l),
(356.335,142.694,o),
(363.668,150.027,o),
(363.668,167.722,c),
(363.668,184.408,l),
(363.668,195.569,o),
(362.351,205.51,o),
(376.361,208.951,c),
(390.125,212.336,o),
(397.031,206.926,o),
(397.031,192.747,c),
(397.031,176.063,l),
(397.031,157.634,o),
(411.965,142.694,o),
(430.41,142.694,c),
(448.84,142.694,o),
(463.781,157.635,o),
(463.781,176.065,c),
(463.781,626.59,l),
(463.781,645.02,o),
(448.84,659.961,o),
(430.41,659.961,c),
(411.975,659.961,o),
(397.039,645.02,o),
(397.039,626.59,c),
(397.031,276.174,l),
(397.031,242.805,o),
(363.668,209.441,o),
(330.292,209.441,c),
(213.488,209.441,l),
(180.117,209.441,o),
(146.755,242.805,o),
(146.755,276.174,c),
(146.746,294.613,o),
(131.804,309.555,o),
(113.375,309.555,c),
(94.945,309.555,o),
(80.004,294.613,o),
(80.004,276.184,c),
(80.004,257.748,o),
(94.945,242.813,o),
(113.375,242.813,c),
(146.755,242.805,o),
(180.117,209.441,o),
(180.117,167.722,c),
(180.117,150.027,o),
(187.45,142.694,o),
(205.145,142.694,c)
);
},
{
closed = 1;
nodes = (
(338.635,282.733,l),
(356.335,282.733,o),
(363.668,290.066,o),
(363.668,307.761,c),
(363.668,324.447,l),
(363.668,335.608,o),
(362.351,345.549,o),
(376.361,348.99,c),
(390.125,352.375,o),
(397.031,346.965,o),
(397.031,332.786,c),
(397.031,316.102,l),
(397.031,297.673,o),
(411.965,282.733,o),
(430.41,282.733,c),
(448.84,282.733,o),
(463.781,297.674,o),
(463.781,316.104,c),
(463.781,766.629,l),
(463.781,785.059,o),
(448.84,800,o),
(430.41,800,c),
(411.975,800,o),
(397.039,785.059,o),
(397.039,766.629,c),
(397.031,416.213,l),
(397.031,382.844,o),
(363.668,349.48,o),
(330.292,349.48,c),
(213.488,349.48,l),
(180.117,349.48,o),
(146.755,382.844,o),
(146.755,416.213,c),
(146.746,434.652,o),
(131.804,449.594,o),
(113.375,449.594,c),
(94.945,449.594,o),
(80.004,434.652,o),
(80.004,416.223,c),
(80.004,397.787,o),
(94.945,382.852,o),
(113.375,382.852,c),
(146.755,382.844,o),
(180.117,349.48,o),
(180.117,307.761,c),
(180.117,290.066,o),
(187.45,282.733,o),
(205.145,282.733,c)
);
}
);
width = 543.78;
}
);
note = u;
unicode = 117;
},
{
glyphname = v;
lastChange = "2024-04-05 19:47:49 +0000";
layers = (
{
layerId = m01;
shapes = (
{
closed = 1;
nodes = (
(146.708,483.668,l),
(146.708,502.095,o),
(131.774,517.024,o),
(113.353,517.024,c),
(94.932,517.024,o),
(79.997,502.095,o),
(79.997,483.668,c),
(79.997,233.497,l),
(79.997,215.076,o),
(94.932,200.137,o),
(113.353,200.137,c),
(131.774,200.137,o),
(146.708,215.076,o),
(146.708,233.497,c)
);
},
{
closed = 1;
nodes = (
(155.048,100.072,o),
(188.403,66.716,o),
(188.403,25.017,c),
(188.403,7.33,o),
(195.733,0,o),
(213.425,0,c),
(346.846,0,l),
(364.539,0,o),
(371.863,7.33,o),
(371.863,25.017,c),
(371.863,66.716,o),
(405.218,100.072,o),
(438.574,100.072,c),
(468.297,100.072,o),
(483.177,136.001,o),
(462.165,157.013,c),
(441.148,178.03,o),
(405.218,163.145,o),
(405.218,133.427,c),
(405.218,100.072,o),
(371.863,66.716,o),
(338.508,66.716,c),
(221.764,66.716,l),
(188.403,66.716,o),
(155.048,100.072,o),
(155.048,133.427,c),
(155.048,163.145,o),
(119.118,178.03,o),
(98.106,157.013,c),
(77.094,136.001,o),
(91.975,100.072,o),
(121.692,100.072,c)
);
},
{
closed = 1;
nodes = (
(471.935,483.668,l),
(471.935,502.095,o),
(457,517.024,o),
(438.574,517.024,c),
(420.158,517.024,o),
(405.218,502.095,o),
(405.218,483.668,c),
(405.218,233.497,l),
(405.218,215.076,o),
(420.158,200.137,o),
(438.574,200.137,c),
(457,200.137,o),
(471.935,215.076,o),
(471.935,233.497,c)
);
},
{
closed = 1;
nodes = (
(155.048,100.072,o),
(188.403,66.716,o),
(188.403,25.017,c),
(188.403,7.33,o),
(195.733,0,o),
(213.425,0,c),
(346.846,0,l),
(364.539,0,o),
(371.863,7.33,o),
(371.863,25.017,c),
(371.863,66.716,o),
(405.218,100.072,o),
(438.574,100.072,c),
(468.297,100.072,o),
(483.177,136.001,o),
(462.165,157.013,c),
(441.148,178.03,o),
(405.218,163.145,o),
(405.218,133.427,c),
(405.218,100.072,o),
(371.863,66.716,o),
(338.508,66.716,c),
(221.764,66.716,l),
(188.403,66.716,o),
(155.048,100.072,o),
(155.048,133.427,c),
(155.048,163.145,o),
(119.118,178.03,o),
(98.106,157.013,c),
(77.094,136.001,o),
(91.975,100.072,o),
(121.692,100.072,c)
);
},
{
closed = 1;
nodes = (
(155.048,100.072,o),
(188.403,66.716,o),
(188.403,25.017,c),
(188.403,7.33,o),
(195.733,0,o),
(213.425,0,c),
(346.846,0,l),
(364.539,0,o),
(371.863,7.33,o),
(371.863,25.017,c),
(371.863,66.716,o),
(405.218,100.072,o),
(438.574,100.072,c),
(468.297,100.072,o),
(483.177,136.001,o),
(462.165,157.013,c),
(441.148,178.03,o),
(405.218,163.145,o),
(405.218,133.427,c),
(405.218,100.072,o),
(371.863,66.716,o),
(338.508,66.716,c),
(221.764,66.716,l),
(188.403,66.716,o),
(155.048,100.072,o),
(155.048,133.427,c),
(155.048,163.145,o),
(119.118,178.03,o),
(98.106,157.013,c),
(77.094,136.001,o),
(91.975,100.072,o),
(121.692,100.072,c)
);
}
);
width = 552;
},
{
layerId = "6B2E2D58-830D-4489-B075-47D8B481EF18";
shapes = (
{
closed = 1;
nodes = (
(146.708,766.645,l),
(146.708,785.071,o),
(131.774,800,o),
(113.353,800,c),
(94.932,800,o),
(79.997,785.071,o),
(79.997,766.645,c),
(79.997,516.474,l),
(79.997,498.053,o),
(94.932,483.113,o),
(113.353,483.113,c),
(131.774,483.113,o),
(146.708,498.053,o),
(146.708,516.474,c)
);
},
{
closed = 1;
nodes = (
(155.048,100.072,o),
(188.403,66.716,o),
(188.403,25.017,c),
(188.403,7.33,o),
(195.733,0,o),
(213.425,0,c),
(346.846,0,l),
(364.539,0,o),
(371.863,7.33,o),
(371.863,25.017,c),
(371.863,66.716,o),
(405.218,100.072,o),
(438.574,100.072,c),
(468.297,100.072,o),
(483.177,136.001,o),
(462.165,157.013,c),
(441.148,178.03,o),
(405.218,163.145,o),
(405.218,133.427,c),
(405.218,100.072,o),
(371.863,66.716,o),
(338.508,66.716,c),
(221.764,66.716,l),
(188.403,66.716,o),
(155.048,100.072,o),
(155.048,133.427,c),
(155.048,163.145,o),
(119.118,178.03,o),
(98.106,157.013,c),
(77.094,136.001,o),
(91.975,100.072,o),
(121.692,100.072,c)
);
},
{
closed = 1;
nodes = (
(471.935,766.645,l),
(471.935,785.071,o),
(457,800,o),
(438.574,800,c),
(420.158,800,o),
(405.218,785.071,o),
(405.218,766.645,c),
(405.218,516.474,l),
(405.218,498.053,o),
(420.158,483.113,o),
(438.574,483.113,c),
(457,483.113,o),
(471.935,498.053,o),
(471.935,516.474,c)
);
},
{
closed = 1;
nodes = (
(155.048,236.197,o),
(188.403,202.841,o),
(188.403,161.142,c),
(188.403,143.455,o),
(195.733,136.125,o),
(213.425,136.125,c),
(346.846,136.125,l),
(364.539,136.125,o),
(371.863,143.455,o),
(371.863,161.142,c),
(371.863,202.841,o),
(405.218,236.197,o),
(438.574,236.197,c),
(468.297,236.197,o),
(483.177,272.126,o),
(462.165,293.138,c),
(441.148,314.155,o),
(405.218,299.27,o),
(405.218,269.552,c),
(405.218,236.197,o),
(371.863,202.841,o),
(338.508,202.841,c),
(221.764,202.841,l),
(188.403,202.841,o),
(155.048,236.197,o),
(155.048,269.552,c),
(155.048,299.27,o),
(119.118,314.155,o),
(98.106,293.138,c),
(77.094,272.126,o),
(91.975,236.197,o),
(121.692,236.197,c)
);
},
{
closed = 1;
nodes = (
(155.048,371.518,o),
(188.403,338.162,o),
(188.403,296.463,c),
(188.403,278.776,o),
(195.733,271.446,o),
(213.425,271.446,c),
(346.846,271.446,l),
(364.539,271.446,o),
(371.863,278.776,o),
(371.863,296.463,c),
(371.863,338.162,o),
(405.218,371.518,o),
(438.574,371.518,c),
(468.297,371.518,o),
(483.177,407.447,o),
(462.165,428.459,c),
(441.148,449.476,o),
(405.218,434.591,o),
(405.218,404.873,c),
(405.218,371.518,o),
(371.863,338.162,o),
(338.508,338.162,c),
(221.764,338.162,l),
(188.403,338.162,o),
(155.048,371.518,o),
(155.048,404.873,c),
(155.048,434.591,o),
(119.118,449.476,o),
(98.106,428.459,c),
(77.094,407.447,o),
(91.975,371.518,o),
(121.692,371.518,c)
);
}
);
width = 552;
}
);
note = v;
unicode = 118;
},
{
glyphname = w;
lastChange = "2024-04-05 19:52:35 +0000";
layers = (
{
layerId = m01;
shapes = (
{
closed = 1;
nodes = (
(146.764,502.476,o),
(131.818,517.422,o),
(113.383,517.422,c),
(94.948,517.422,o),
(80.002,502.476,o),
(80.002,484.041,c),
(80.002,133.529,l),
(80.002,115.094,o),
(94.948,100.148,o),
(113.383,100.148,c),
(146.764,100.148,o),
(180.145,66.767,o),
(180.145,25.036,c),
(180.145,7.335,o),
(187.48,0,o),
(205.186,0,c),
(263.598,0,l),
(281.304,0,o),
(288.639,7.335,o),
(288.639,25.036,c),
(288.639,66.767,o),
(322.02,100.148,o),
(355.401,100.148,c),
(385.141,100.148,o),
(400.039,136.106,o),
(379.005,157.134,c),
(357.977,178.162,o),
(322.02,163.27,o),
(322.02,133.529,c),
(322.02,100.148,o),
(288.639,66.767,o),
(255.258,66.767,c),
(213.532,66.767,l),
(180.145,66.767,o),
(146.764,100.148,o),
(146.764,133.529,c),
(146.764,484.041,l)
);
},
{
closed = 1;
nodes = (
(564.038,133.529,l),
(564.038,100.148,o),
(530.657,66.767,o),
(497.276,66.767,c),
(455.55,66.767,l),
(422.169,66.767,o),
(388.783,100.148,o),
(388.783,133.529,c),
(388.783,163.27,o),
(352.83,178.162,o),
(331.797,157.134,c),
(310.764,136.106,o),
(325.661,100.148,o),
(355.402,100.148,c),
(388.783,100.148,o),
(422.169,66.767,o),
(422.169,25.036,c),
(422.169,7.335,o),
(429.499,0,o),
(447.205,0,c),
(505.622,0,l),
(523.322,0,o),
(530.657,7.335,o),
(530.657,25.036,c),
(530.657,66.767,o),
(564.038,100.148,o),
(597.425,100.148,c),
(615.855,100.148,o),
(630.806,115.094,o),
(630.806,133.529,c),
(630.806,484.041,l),
(630.806,502.476,o),
(615.855,517.422,o),
(597.425,517.422,c),
(578.984,517.422,o),
(564.038,502.476,o),
(564.038,484.041,c)
);
},
{
closed = 1;
nodes = (
(146.764,502.476,o),
(131.818,517.422,o),
(113.383,517.422,c),
(94.948,517.422,o),
(80.002,502.476,o),
(80.002,484.041,c),
(80.002,133.529,l),
(80.002,115.094,o),
(94.948,100.148,o),
(113.383,100.148,c),
(146.764,100.148,o),
(180.145,66.767,o),
(180.145,25.036,c),
(180.145,7.335,o),
(187.48,0,o),
(205.186,0,c),
(263.598,0,l),
(281.304,0,o),
(288.639,7.335,o),
(288.639,25.036,c),
(288.639,66.767,o),
(322.02,100.148,o),
(355.401,100.148,c),
(385.141,100.148,o),
(400.039,136.106,o),
(379.005,157.134,c),
(357.977,178.162,o),
(322.02,163.27,o),
(322.02,133.529,c),
(322.02,100.148,o),
(288.639,66.767,o),
(255.258,66.767,c),
(213.532,66.767,l),
(180.145,66.767,o),
(146.764,100.148,o),
(146.764,133.529,c),
(146.764,484.041,l)
);
},
{
closed = 1;
nodes = (
(564.038,133.529,l),
(564.038,100.148,o),
(530.657,66.767,o),
(497.276,66.767,c),
(455.55,66.767,l),
(422.169,66.767,o),
(388.783,100.148,o),
(388.783,133.529,c),
(388.783,163.27,o),
(352.83,178.162,o),
(331.797,157.134,c),
(310.764,136.106,o),
(325.661,100.148,o),
(355.402,100.148,c),
(388.783,100.148,o),
(422.169,66.767,o),
(422.169,25.036,c),
(422.169,7.335,o),
(429.499,0,o),
(447.205,0,c),
(505.622,0,l),
(523.322,0,o),
(530.657,7.335,o),
(530.657,25.036,c),
(530.657,66.767,o),
(564.038,100.148,o),
(597.425,100.148,c),
(615.855,100.148,o),
(630.806,115.094,o),
(630.806,133.529,c),
(630.806,484.041,l),
(630.806,502.476,o),
(615.855,517.422,o),
(597.425,517.422,c),
(578.984,517.422,o),
(564.038,502.476,o),
(564.038,484.041,c)
);
},
{
closed = 1;
nodes = (
(146.764,502.476,o),
(131.818,517.422,o),
(113.383,517.422,c),
(94.948,517.422,o),
(80.002,502.476,o),
(80.002,484.041,c),
(80.002,133.529,l),
(80.002,115.094,o),
(94.948,100.148,o),
(113.383,100.148,c),
(146.764,100.148,o),
(180.145,66.767,o),
(180.145,25.036,c),
(180.145,7.335,o),
(187.48,0,o),
(205.186,0,c),
(263.598,0,l),
(281.304,0,o),
(288.639,7.335,o),
(288.639,25.036,c),
(288.639,66.767,o),
(322.02,100.148,o),
(355.401,100.148,c),
(385.141,100.148,o),
(400.039,136.106,o),
(379.005,157.134,c),
(357.977,178.162,o),
(322.02,163.27,o),
(322.02,133.529,c),
(322.02,100.148,o),
(288.639,66.767,o),
(255.258,66.767,c),
(213.532,66.767,l),
(180.145,66.767,o),
(146.764,100.148,o),
(146.764,133.529,c),
(146.764,484.041,l)
);
},
{
closed = 1;
nodes = (
(564.038,133.529,l),
(564.038,100.148,o),
(530.657,66.767,o),
(497.276,66.767,c),
(455.55,66.767,l),
(422.169,66.767,o),
(388.783,100.148,o),
(388.783,133.529,c),
(388.783,163.27,o),
(352.83,178.162,o),
(331.797,157.134,c),
(310.764,136.106,o),
(325.661,100.148,o),
(355.402,100.148,c),
(388.783,100.148,o),
(422.169,66.767,o),
(422.169,25.036,c),
(422.169,7.335,o),
(429.499,0,o),
(447.205,0,c),
(505.622,0,l),
(523.322,0,o),
(530.657,7.335,o),
(530.657,25.036,c),
(530.657,66.767,o),
(564.038,100.148,o),
(597.425,100.148,c),
(615.855,100.148,o),
(630.806,115.094,o),
(630.806,133.529,c),
(630.806,484.041,l),
(630.806,502.476,o),
(615.855,517.422,o),
(597.425,517.422,c),
(578.984,517.422,o),
(564.038,502.476,o),
(564.038,484.041,c)
);
}
);
width = 710.81;
},
{
layerId = "6B2E2D58-830D-4489-B075-47D8B481EF18";
shapes = (
{
closed = 1;
nodes = (
(146.764,502.476,o),
(131.818,517.422,o),
(113.383,517.422,c),
(94.948,517.422,o),
(80.002,502.476,o),
(80.002,484.041,c),
(80.002,133.529,l),
(80.002,115.094,o),
(94.948,100.148,o),
(113.383,100.148,c),
(146.764,100.148,o),
(180.145,66.767,o),
(180.145,25.036,c),
(180.145,7.335,o),
(187.48,0,o),
(205.186,0,c),
(263.598,0,l),
(281.304,0,o),
(288.639,7.335,o),
(288.639,25.036,c),
(288.639,66.767,o),
(322.02,100.148,o),
(355.401,100.148,c),
(385.141,100.148,o),
(400.039,136.106,o),
(379.005,157.134,c),
(357.977,178.162,o),
(322.02,163.27,o),
(322.02,133.529,c),
(322.02,100.148,o),
(288.639,66.767,o),
(255.258,66.767,c),
(213.532,66.767,l),
(180.145,66.767,o),
(146.764,100.148,o),
(146.764,133.529,c),
(146.764,484.041,l)
);
},
{
closed = 1;
nodes = (
(564.038,133.529,l),
(564.038,100.148,o),
(530.657,66.767,o),
(497.276,66.767,c),
(455.55,66.767,l),
(422.169,66.767,o),
(388.783,100.148,o),
(388.783,133.529,c),
(388.783,163.27,o),
(352.83,178.162,o),
(331.797,157.134,c),
(310.764,136.106,o),
(325.661,100.148,o),
(355.402,100.148,c),
(388.783,100.148,o),
(422.169,66.767,o),
(422.169,25.036,c),
(422.169,7.335,o),
(429.499,0,o),
(447.205,0,c),
(505.622,0,l),
(523.322,0,o),
(530.657,7.335,o),
(530.657,25.036,c),
(530.657,66.767,o),
(564.038,100.148,o),
(597.425,100.148,c),
(615.855,100.148,o),
(630.806,115.094,o),
(630.806,133.529,c),
(630.806,484.041,l),
(630.806,502.476,o),
(615.855,517.422,o),
(597.425,517.422,c),
(578.984,517.422,o),
(564.038,502.476,o),
(564.038,484.041,c)
);
},
{
closed = 1;
nodes = (
(146.764,635.617,o),
(131.818,650.563,o),
(113.383,650.563,c),
(94.948,650.563,o),
(80.002,635.617,o),
(80.002,617.182,c),
(80.002,266.67,l),
(80.002,248.235,o),
(94.948,233.289,o),
(113.383,233.289,c),
(146.764,233.289,o),
(180.145,199.908,o),
(180.145,158.177,c),
(180.145,140.476,o),
(187.48,133.141,o),
(205.186,133.141,c),
(263.598,133.141,l),
(281.304,133.141,o),
(288.639,140.476,o),
(288.639,158.177,c),
(288.639,199.908,o),
(322.02,233.289,o),
(355.401,233.289,c),
(385.141,233.289,o),
(400.039,269.247,o),
(379.005,290.275,c),
(357.977,311.303,o),
(322.02,296.411,o),
(322.02,266.67,c),
(322.02,233.289,o),
(288.639,199.908,o),
(255.258,199.908,c),
(213.532,199.908,l),
(180.145,199.908,o),
(146.764,233.289,o),
(146.764,266.67,c),
(146.764,617.182,l)
);
},
{
closed = 1;
nodes = (
(564.038,266.67,l),
(564.038,233.289,o),
(530.657,199.908,o),
(497.276,199.908,c),
(455.55,199.908,l),
(422.169,199.908,o),
(388.783,233.289,o),
(388.783,266.67,c),
(388.783,296.411,o),
(352.83,311.303,o),
(331.797,290.275,c),
(310.764,269.247,o),
(325.661,233.289,o),
(355.402,233.289,c),
(388.783,233.289,o),
(422.169,199.908,o),
(422.169,158.177,c),
(422.169,140.476,o),
(429.499,133.141,o),
(447.205,133.141,c),
(505.622,133.141,l),
(523.322,133.141,o),
(530.657,140.476,o),
(530.657,158.177,c),
(530.657,199.908,o),
(564.038,233.289,o),
(597.425,233.289,c),
(615.855,233.289,o),
(630.806,248.235,o),
(630.806,266.67,c),
(630.806,617.182,l),
(630.806,635.617,o),
(615.855,650.563,o),
(597.425,650.563,c),
(578.984,650.563,o),
(564.038,635.617,o),
(564.038,617.182,c)
);
},
{
closed = 1;
nodes = (
(146.764,785.054,o),
(131.818,800,o),
(113.383,800,c),
(94.948,800,o),
(80.002,785.054,o),
(80.002,766.619,c),
(80.002,400.129,l),
(80.002,381.694,o),
(94.948,366.748,o),
(113.383,366.748,c),
(146.764,366.748,o),
(180.145,333.367,o),
(180.145,291.636,c),
(180.145,273.935,o),
(187.48,266.6,o),
(205.186,266.6,c),
(263.598,266.6,l),
(281.304,266.6,o),
(288.639,273.935,o),
(288.639,291.636,c),
(288.639,333.367,o),
(322.02,366.748,o),
(355.401,366.748,c),
(385.141,366.748,o),
(400.039,402.706,o),
(379.005,423.734,c),
(357.977,444.762,o),
(322.02,429.87,o),
(322.02,400.129,c),
(322.02,366.748,o),
(288.639,333.367,o),
(255.258,333.367,c),
(213.532,333.367,l),
(180.145,333.367,o),
(146.764,366.748,o),
(146.764,400.129,c),
(146.764,766.619,l)
);
},
{
closed = 1;
nodes = (
(564.038,400.129,l),
(564.038,366.748,o),
(530.657,333.367,o),
(497.276,333.367,c),
(455.55,333.367,l),
(422.169,333.367,o),
(388.783,366.748,o),
(388.783,400.129,c),
(388.783,429.87,o),
(352.83,444.762,o),
(331.797,423.734,c),
(310.764,402.706,o),
(325.661,366.748,o),
(355.402,366.748,c),
(388.783,366.748,o),
(422.169,333.367,o),
(422.169,291.636,c),
(422.169,273.935,o),
(429.499,266.6,o),
(447.205,266.6,c),
(505.622,266.6,l),
(523.322,266.6,o),
(530.657,273.935,o),
(530.657,291.636,c),
(530.657,333.367,o),
(564.038,366.748,o),
(597.425,366.748,c),
(615.855,366.748,o),
(630.806,381.694,o),
(630.806,400.129,c),
(630.806,766.619,l),
(630.806,785.054,o),
(615.855,800,o),
(597.425,800,c),
(578.984,800,o),
(564.038,785.054,o),
(564.038,766.619,c)
);
}
);
width = 710.81;
}
);
note = w;
unicode = 119;
},
{
glyphname = x;
lastChange = "2024-04-05 20:02:50 +0000";
layers = (
{
layerId = m01;
shapes = (
{
closed = 1;
nodes = (
(356.954,291.892,o),
(371.895,276.957,o),
(371.895,258.534,c),
(371.895,225.175,o),
(405.254,191.817,o),
(438.612,191.817,c),
(457.035,191.817,o),
(471.971,176.881,o),
(471.971,158.453,c),
(471.971,33.359,l),
(471.971,14.93,o),
(457.035,0,o),
(438.612,0,c),
(420.184,0,o),
(405.254,14.93,o),
(405.254,33.359,c),
(405.254,158.453,l),
(405.254,191.817,o),
(371.895,225.175,o),
(338.537,225.175,c),
(213.437,225.175,l),
(195.014,225.175,o),
(180.073,240.111,o),
(180.073,258.534,c),
(180.073,291.892,o),
(146.714,325.251,o),
(113.356,325.251,c),
(94.933,325.251,o),
(79.997,340.187,o),
(79.997,358.615,c),
(79.997,483.709,l),
(79.997,502.137,o),
(94.933,517.068,o),
(113.356,517.068,c),
(131.784,517.068,o),
(146.714,502.137,o),
(146.714,483.709,c),
(146.714,358.615,l),
(146.714,325.251,o),
(180.073,291.892,o),
(213.437,291.892,c),
(338.537,291.892,l)
);
},
{
closed = 1;
nodes = (
(338.535,291.892,l),
(371.893,291.892,o),
(405.252,325.251,o),
(405.252,358.615,c),
(405.252,483.709,l),
(405.252,502.137,o),
(420.187,517.068,o),
(438.61,517.068,c),
(457.033,517.068,o),
(471.969,502.137,o),
(471.969,483.709,c),
(471.969,358.615,l),
(471.969,340.187,o),
(457.033,325.251,o),
(438.61,325.251,c),
(405.252,325.251,o),
(371.893,291.892,o),
(371.893,258.534,c),
(371.893,240.111,o),
(356.957,225.175,o),
(338.535,225.175,c),
(213.435,225.175,l),
(180.076,225.175,o),
(146.718,191.817,o),
(146.718,158.453,c),
(146.718,33.359,l),
(146.718,14.93,o),
(131.782,0,o),
(113.359,0,c),
(94.931,0,o),
(80.001,14.93,o),
(80.001,33.359,c),
(80.001,158.453,l),
(80.001,176.881,o),
(94.931,191.817,o),
(113.359,191.817,c),
(146.718,191.817,o),
(180.076,225.175,o),
(180.076,258.534,c),
(180.076,276.957,o),
(195.012,291.892,o),
(213.435,291.892,c)
);
},
{
closed = 1;
nodes = (
(356.954,291.892,o),
(371.895,276.957,o),
(371.895,258.534,c),
(371.895,225.175,o),
(405.254,191.817,o),
(438.612,191.817,c),
(457.035,191.817,o),
(471.971,176.881,o),
(471.971,158.453,c),
(471.971,33.359,l),
(471.971,14.93,o),
(457.035,0,o),
(438.612,0,c),
(420.184,0,o),
(405.254,14.93,o),
(405.254,33.359,c),
(405.254,158.453,l),
(405.254,191.817,o),
(371.895,225.175,o),
(338.537,225.175,c),
(213.437,225.175,l),
(195.014,225.175,o),
(180.073,240.111,o),
(180.073,258.534,c),
(180.073,291.892,o),
(146.714,325.251,o),
(113.356,325.251,c),
(94.933,325.251,o),
(79.997,340.187,o),
(79.997,358.615,c),
(79.997,483.709,l),
(79.997,502.137,o),
(94.933,517.068,o),
(113.356,517.068,c),
(131.784,517.068,o),
(146.714,502.137,o),
(146.714,483.709,c),
(146.714,358.615,l),
(146.714,325.251,o),
(180.073,291.892,o),
(213.437,291.892,c),
(338.537,291.892,l)
);
},
{
closed = 1;
nodes = (
(338.535,291.892,l),
(371.893,291.892,o),
(405.252,325.251,o),
(405.252,358.615,c),
(405.252,483.709,l),
(405.252,502.137,o),
(420.187,517.068,o),
(438.61,517.068,c),
(457.033,517.068,o),
(471.969,502.137,o),
(471.969,483.709,c),
(471.969,358.615,l),
(471.969,340.187,o),
(457.033,325.251,o),
(438.61,325.251,c),
(405.252,325.251,o),
(371.893,291.892,o),
(371.893,258.534,c),
(371.893,240.111,o),
(356.957,225.175,o),
(338.535,225.175,c),
(213.435,225.175,l),
(180.076,225.175,o),
(146.718,191.817,o),
(146.718,158.453,c),
(146.718,33.359,l),
(146.718,14.93,o),
(131.782,0,o),
(113.359,0,c),
(94.931,0,o),
(80.001,14.93,o),
(80.001,33.359,c),
(80.001,158.453,l),
(80.001,176.881,o),
(94.931,191.817,o),
(113.359,191.817,c),
(146.718,191.817,o),
(180.076,225.175,o),
(180.076,258.534,c),
(180.076,276.957,o),
(195.012,291.892,o),
(213.435,291.892,c)
);
}
);
width = 551.97;
},
{
layerId = "6B2E2D58-830D-4489-B075-47D8B481EF18";
shapes = (
{
closed = 1;
nodes = (
(356.954,291.892,o),
(371.895,276.957,o),
(371.895,258.534,c),
(371.895,225.175,o),
(405.254,191.817,o),
(438.612,191.817,c),
(457.035,191.817,o),
(471.971,176.881,o),
(471.971,158.453,c),
(471.971,33.359,l),
(471.971,14.93,o),
(457.035,0,o),
(438.612,0,c),
(420.184,0,o),
(405.254,14.93,o),
(405.254,33.359,c),
(405.254,158.453,l),
(405.254,191.817,o),
(371.895,225.175,o),
(338.537,225.175,c),
(213.437,225.175,l),
(195.014,225.175,o),
(180.073,240.111,o),
(180.073,258.534,c),
(180.073,291.892,o),
(146.714,325.251,o),
(113.356,325.251,c),
(94.933,325.251,o),
(79.997,340.187,o),
(79.997,358.615,c),
(80,441.39,l),
(80,459.818,o),
(94.936,474.749,o),
(113.359,474.749,c),
(131.787,474.749,o),
(146.717,459.818,o),
(146.717,441.39,c),
(146.714,358.615,l),
(146.714,325.251,o),
(180.073,291.892,o),
(213.437,291.892,c),
(338.537,291.892,l)
);
},
{
closed = 1;
nodes = (
(338.535,291.892,l),
(371.893,291.892,o),
(405.252,325.251,o),
(405.252,358.615,c),
(405.254,441.39,l),
(405.254,459.818,o),
(420.189,474.749,o),
(438.612,474.749,c),
(457.035,474.749,o),
(471.971,459.818,o),
(471.971,441.39,c),
(471.969,358.615,l),
(471.969,340.187,o),
(457.033,325.251,o),
(438.61,325.251,c),
(405.252,325.251,o),
(371.893,291.892,o),
(371.893,258.534,c),
(371.893,240.111,o),
(356.957,225.175,o),
(338.535,225.175,c),
(213.435,225.175,l),
(180.076,225.175,o),
(146.718,191.817,o),
(146.718,158.453,c),
(146.718,33.359,l),
(146.718,14.93,o),
(131.782,0,o),
(113.359,0,c),
(94.931,0,o),
(80.001,14.93,o),
(80.001,33.359,c),
(80.001,158.453,l),
(80.001,176.881,o),
(94.931,191.817,o),
(113.359,191.817,c),
(146.718,191.817,o),
(180.076,225.175,o),
(180.076,258.534,c),
(180.076,276.957,o),
(195.012,291.892,o),
(213.435,291.892,c)
);
},
{
closed = 1;
nodes = (
(356.954,574.824,o),
(371.895,559.889,o),
(371.895,541.466,c),
(371.895,508.107,o),
(405.254,474.749,o),
(438.612,474.749,c),
(457.035,474.749,o),
(471.971,459.813,o),
(471.971,441.385,c),
(471.969,358.61,l),
(471.969,340.181,o),
(457.033,325.251,o),
(438.61,325.251,c),
(420.182,325.251,o),
(405.252,340.181,o),
(405.252,358.61,c),
(405.254,441.385,l),
(405.254,474.749,o),
(371.895,508.107,o),
(338.537,508.107,c),
(213.437,508.107,l),
(195.014,508.107,o),
(180.073,523.043,o),
(180.073,541.466,c),
(180.073,574.824,o),
(146.714,608.183,o),
(113.356,608.183,c),
(94.933,608.183,o),
(79.997,623.119,o),
(79.997,641.547,c),
(79.997,766.641,l),
(79.997,785.069,o),
(94.933,800,o),
(113.356,800,c),
(131.784,800,o),
(146.714,785.069,o),
(146.714,766.641,c),
(146.714,641.547,l),
(146.714,608.183,o),
(180.073,574.824,o),
(213.437,574.824,c),
(338.537,574.824,l)
);
},
{
closed = 1;
nodes = (
(338.535,574.824,l),
(371.893,574.824,o),
(405.252,608.183,o),
(405.252,641.547,c),
(405.252,766.641,l),
(405.252,785.069,o),
(420.187,800,o),
(438.61,800,c),
(457.033,800,o),
(471.969,785.069,o),
(471.969,766.641,c),
(471.969,641.547,l),
(471.969,623.119,o),
(457.033,608.183,o),
(438.61,608.183,c),
(405.252,608.183,o),
(371.893,574.824,o),
(371.893,541.466,c),
(371.893,523.043,o),
(356.957,508.107,o),
(338.535,508.107,c),
(213.435,508.107,l),
(180.076,508.107,o),
(146.718,474.749,o),
(146.718,441.385,c),
(146.715,358.61,l),
(146.715,340.181,o),
(131.779,325.251,o),
(113.356,325.251,c),
(94.928,325.251,o),
(79.998,340.181,o),
(79.998,358.61,c),
(80.001,441.385,l),
(80.001,459.813,o),
(94.931,474.749,o),
(113.359,474.749,c),
(146.718,474.749,o),
(180.076,508.107,o),
(180.076,541.466,c),
(180.076,559.889,o),
(195.012,574.824,o),
(213.435,574.824,c)
);
}
);
width = 551.97;
}
);
note = x;
unicode = 120;
},
{
glyphname = y;
lastChange = "2024-04-05 20:08:11 +0000";
layers = (
{
layerId = m01;
shapes = (
{
closed = 1;
nodes = (
(146.81,483.774,l),
(146.81,502.203,o),
(131.87,517.143,o),
(113.441,517.143,c),
(95.013,517.143,o),
(80.067,502.203,o),
(80.067,483.774,c),
(80.067,133.389,l),
(80.067,114.961,o),
(95.013,100.02,o),
(113.441,100.02,c),
(146.81,100.02,o),
(180.179,66.651,o),
(180.179,24.934,c),
(180.179,7.24,o),
(187.512,-0.092,o),
(205.206,-0.092,c),
(338.687,-0.092,l),
(356.387,-0.092,o),
(363.714,7.24,o),
(363.714,24.934,c),
(363.714,41.619,l),
(363.714,52.78,o),
(362.402,62.72,o),
(376.414,66.165,c),
(390.182,69.551,o),
(397.083,64.14,o),
(397.083,49.967,c),
(397.083,-50.146,l),
(397.093,-83.507,o),
(363.723,-116.877,o),
(330.345,-116.884,c),
(213.548,-116.884,l),
(180.164,-116.872,o),
(146.801,-83.507,o),
(146.81,-50.146,c),
(146.81,-20.416,o),
(110.866,-5.53,o),
(89.84,-26.55,c),
(68.82,-47.57,o),
(83.712,-83.515,o),
(113.441,-83.515,c),
(146.801,-83.507,o),
(180.164,-116.872,o),
(180.164,-158.591,c),
(180.164,-176.293,o),
(187.498,-183.627,o),
(205.206,-183.627,c),
(338.693,-183.627,l),
(356.396,-183.627,o),
(363.723,-176.294,o),
(363.723,-158.592,c),
(363.723,-116.877,o),
(397.093,-83.507,o),
(430.452,-83.515,c),
(448.886,-83.515,o),
(463.821,-68.574,o),
(463.821,-50.146,c),
(463.821,483.774,l),
(463.821,502.203,o),
(448.886,517.143,o),
(430.452,517.143,c),
(412.023,517.143,o),
(397.083,502.203,o),
(397.083,483.774,c),
(397.083,133.389,l),
(397.083,100.02,o),
(363.714,66.651,o),
(330.345,66.651,c),
(213.548,66.651,l),
(180.179,66.651,o),
(146.81,100.02,o),
(146.81,133.389,c)
);
},
{
closed = 1;
nodes = (
(146.81,483.774,l),
(146.81,502.203,o),
(131.87,517.143,o),
(113.441,517.143,c),
(95.013,517.143,o),
(80.067,502.203,o),
(80.067,483.774,c),
(80.067,133.389,l),
(80.067,114.961,o),
(95.013,100.02,o),
(113.441,100.02,c),
(146.81,100.02,o),
(180.179,66.651,o),
(180.179,24.934,c),
(180.179,7.24,o),
(187.512,-0.092,o),
(205.206,-0.092,c),
(338.687,-0.092,l),
(356.387,-0.092,o),
(363.714,7.24,o),
(363.714,24.934,c),
(363.714,41.619,l),
(363.714,52.78,o),
(362.402,62.72,o),
(376.414,66.165,c),
(390.182,69.551,o),
(397.083,64.14,o),
(397.083,49.967,c),
(397.083,-50.146,l),
(397.093,-83.507,o),
(363.723,-116.877,o),
(330.345,-116.884,c),
(213.548,-116.884,l),
(180.164,-116.872,o),
(146.801,-83.507,o),
(146.81,-50.146,c),
(146.81,-20.416,o),
(110.866,-5.53,o),
(89.84,-26.55,c),
(68.82,-47.57,o),
(83.712,-83.515,o),
(113.441,-83.515,c),
(146.801,-83.507,o),
(180.164,-116.872,o),
(180.164,-158.591,c),
(180.164,-176.293,o),
(187.498,-183.627,o),
(205.206,-183.627,c),
(338.693,-183.627,l),
(356.396,-183.627,o),
(363.723,-176.294,o),
(363.723,-158.592,c),
(363.723,-116.877,o),
(397.093,-83.507,o),
(430.452,-83.515,c),
(448.886,-83.515,o),
(463.821,-68.574,o),
(463.821,-50.146,c),
(463.821,483.774,l),
(463.821,502.203,o),
(448.886,517.143,o),
(430.452,517.143,c),
(412.023,517.143,o),
(397.083,502.203,o),
(397.083,483.774,c),
(397.083,133.389,l),
(397.083,100.02,o),
(363.714,66.651,o),
(330.345,66.651,c),
(213.548,66.651,l),
(180.179,66.651,o),
(146.81,100.02,o),
(146.81,133.389,c)
);
},
{
closed = 1;
nodes = (
(146.81,483.774,l),
(146.81,502.203,o),
(131.87,517.143,o),
(113.441,517.143,c),
(95.013,517.143,o),
(80.067,502.203,o),
(80.067,483.774,c),
(80.067,133.389,l),
(80.067,114.961,o),
(95.013,100.02,o),
(113.441,100.02,c),
(146.81,100.02,o),
(180.179,66.651,o),
(180.179,24.934,c),
(180.179,7.24,o),
(187.512,-0.092,o),
(205.206,-0.092,c),
(338.687,-0.092,l),
(356.387,-0.092,o),
(363.714,7.24,o),
(363.714,24.934,c),
(363.714,41.619,l),
(363.714,52.78,o),
(362.402,62.72,o),
(376.414,66.165,c),
(390.182,69.551,o),
(397.083,64.14,o),
(397.083,49.967,c),
(397.083,-50.146,l),
(397.093,-83.507,o),
(363.723,-116.877,o),
(330.345,-116.884,c),
(213.548,-116.884,l),
(180.164,-116.872,o),
(146.801,-83.507,o),
(146.81,-50.146,c),
(146.81,-20.416,o),
(110.866,-5.53,o),
(89.84,-26.55,c),
(68.82,-47.57,o),
(83.712,-83.515,o),
(113.441,-83.515,c),
(146.801,-83.507,o),
(180.164,-116.872,o),
(180.164,-158.591,c),
(180.164,-176.293,o),
(187.498,-183.627,o),
(205.206,-183.627,c),
(338.693,-183.627,l),
(356.396,-183.627,o),
(363.723,-176.294,o),
(363.723,-158.592,c),
(363.723,-116.877,o),
(397.093,-83.507,o),
(430.452,-83.515,c),
(448.886,-83.515,o),
(463.821,-68.574,o),
(463.821,-50.146,c),
(463.821,483.774,l),
(463.821,502.203,o),
(448.886,517.143,o),
(430.452,517.143,c),
(412.023,517.143,o),
(397.083,502.203,o),
(397.083,483.774,c),
(397.083,133.389,l),
(397.083,100.02,o),
(363.714,66.651,o),
(330.345,66.651,c),
(213.548,66.651,l),
(180.179,66.651,o),
(146.81,100.02,o),
(146.81,133.389,c)
);
}
);
width = 543.82;
},
{
layerId = "6B2E2D58-830D-4489-B075-47D8B481EF18";
shapes = (
{
closed = 1;
nodes = (
(146.81,483.774,l),
(146.81,502.203,o),
(131.87,517.143,o),
(113.441,517.143,c),
(95.013,517.143,o),
(80.067,502.203,o),
(80.067,483.774,c),
(80.067,133.389,l),
(80.067,114.961,o),
(95.013,100.02,o),
(113.441,100.02,c),
(146.81,100.02,o),
(180.179,66.651,o),
(180.179,24.934,c),
(180.179,7.24,o),
(187.512,-0.092,o),
(205.206,-0.092,c),
(338.687,-0.092,l),
(356.387,-0.092,o),
(363.714,7.24,o),
(363.714,24.934,c),
(363.714,41.619,l),
(363.714,52.78,o),
(362.402,62.72,o),
(376.414,66.165,c),
(390.182,69.551,o),
(397.083,64.14,o),
(397.083,49.967,c),
(397.083,-50.146,l),
(397.093,-83.507,o),
(363.723,-116.877,o),
(330.345,-116.884,c),
(213.548,-116.884,l),
(180.164,-116.872,o),
(146.801,-83.507,o),
(146.81,-50.146,c),
(146.81,-20.416,o),
(110.866,-5.53,o),
(89.84,-26.55,c),
(68.82,-47.57,o),
(83.712,-83.515,o),
(113.441,-83.515,c),
(146.801,-83.507,o),
(180.164,-116.872,o),
(180.164,-158.591,c),
(180.164,-176.293,o),
(187.498,-183.627,o),
(205.206,-183.627,c),
(338.693,-183.627,l),
(356.396,-183.627,o),
(363.723,-176.294,o),
(363.723,-158.592,c),
(363.723,-116.877,o),
(397.093,-83.507,o),
(430.452,-83.515,c),
(448.886,-83.515,o),
(463.821,-68.574,o),
(463.821,-50.146,c),
(463.821,483.774,l),
(463.821,502.203,o),
(448.886,517.143,o),
(430.452,517.143,c),
(412.023,517.143,o),
(397.083,502.203,o),
(397.083,483.774,c),
(397.083,133.389,l),
(397.083,100.02,o),
(363.714,66.651,o),
(330.345,66.651,c),
(213.548,66.651,l),
(180.179,66.651,o),
(146.81,100.02,o),
(146.81,133.389,c)
);
},
{
closed = 1;
nodes = (
(146.81,766.631,l),
(146.81,785.06,o),
(131.87,800,o),
(113.441,800,c),
(95.013,800,o),
(80.067,785.06,o),
(80.067,766.631,c),
(80.067,416.246,l),
(80.067,397.818,o),
(95.013,382.877,o),
(113.441,382.877,c),
(146.81,382.877,o),
(180.179,349.508,o),
(180.179,307.791,c),
(180.179,290.097,o),
(187.512,282.765,o),
(205.206,282.765,c),
(338.687,282.765,l),
(356.387,282.765,o),
(363.714,290.097,o),
(363.714,307.791,c),
(363.714,324.476,l),
(363.714,335.637,o),
(362.402,345.577,o),
(376.414,349.022,c),
(390.182,352.408,o),
(397.083,346.997,o),
(397.083,332.824,c),
(397.083,-50.146,l),
(397.093,-83.507,o),
(363.723,-116.877,o),
(330.345,-116.884,c),
(213.548,-116.884,l),
(180.164,-116.872,o),
(146.801,-83.507,o),
(146.81,-50.146,c),
(146.81,-20.416,o),
(110.866,-5.53,o),
(89.84,-26.55,c),
(68.82,-47.57,o),
(83.712,-83.515,o),
(113.441,-83.515,c),
(146.801,-83.507,o),
(180.164,-116.872,o),
(180.164,-158.591,c),
(180.164,-176.293,o),
(187.498,-183.627,o),
(205.206,-183.627,c),
(338.693,-183.627,l),
(356.396,-183.627,o),
(363.723,-176.294,o),
(363.723,-158.592,c),
(363.723,-116.877,o),
(397.093,-83.507,o),
(430.452,-83.515,c),
(448.886,-83.515,o),
(463.821,-68.574,o),
(463.821,-50.146,c),
(463.821,766.631,l),
(463.821,785.06,o),
(448.886,800,o),
(430.452,800,c),
(412.023,800,o),
(397.083,785.06,o),
(397.083,766.631,c),
(397.083,416.246,l),
(397.083,382.877,o),
(363.714,349.508,o),
(330.345,349.508,c),
(213.548,349.508,l),
(180.179,349.508,o),
(146.81,382.877,o),
(146.81,416.246,c)
);
},
{
closed = 1;
nodes = (
(146.81,645.48,l),
(146.81,663.909,o),
(131.87,678.849,o),
(113.441,678.849,c),
(95.013,678.849,o),
(80.067,663.909,o),
(80.067,645.48,c),
(80.067,275.568,l),
(80.067,257.14,o),
(95.013,242.199,o),
(113.441,242.199,c),
(146.81,242.199,o),
(180.179,208.83,o),
(180.179,167.113,c),
(180.179,149.419,o),
(187.512,142.087,o),
(205.206,142.087,c),
(338.687,142.087,l),
(356.387,142.087,o),
(363.714,149.419,o),
(363.714,167.113,c),
(363.714,183.798,l),
(363.714,194.959,o),
(362.402,204.899,o),
(376.414,208.344,c),
(390.182,211.73,o),
(397.083,206.319,o),
(397.083,192.146,c),
(397.083,-50.146,l),
(397.093,-83.507,o),
(363.723,-116.877,o),
(330.345,-116.884,c),
(213.548,-116.884,l),
(180.164,-116.872,o),
(146.801,-83.507,o),
(146.81,-50.146,c),
(146.81,-20.416,o),
(110.866,-5.53,o),
(89.84,-26.55,c),
(68.82,-47.57,o),
(83.712,-83.515,o),
(113.441,-83.515,c),
(146.801,-83.507,o),
(180.164,-116.872,o),
(180.164,-158.591,c),
(180.164,-176.293,o),
(187.498,-183.627,o),
(205.206,-183.627,c),
(338.693,-183.627,l),
(356.396,-183.627,o),
(363.723,-176.294,o),
(363.723,-158.592,c),
(363.723,-116.877,o),
(397.093,-83.507,o),
(430.452,-83.515,c),
(448.886,-83.515,o),
(463.821,-68.574,o),
(463.821,-50.146,c),
(463.821,645.48,l),
(463.821,663.909,o),
(448.886,678.849,o),
(430.452,678.849,c),
(412.023,678.849,o),
(397.083,663.909,o),
(397.083,645.48,c),
(397.083,275.568,l),
(397.083,242.199,o),
(363.714,208.83,o),
(330.345,208.83,c),
(213.548,208.83,l),
(180.179,208.83,o),
(146.81,242.199,o),
(146.81,275.568,c)
);
}
);
width = 543.82;
}
);
note = y;
unicode = 121;
},
{
glyphname = z;
lastChange = "2024-04-05 20:12:38 +0000";
layers = (
{
layerId = m01;
shapes = (
{
closed = 1;
nodes = (
(347.161,450.829,l),
(365.603,450.829,o),
(380.555,465.781,o),
(380.555,484.228,c),
(380.555,502.671,o),
(365.603,517.622,o),
(347.161,517.622,c),
(113.392,517.622,l),
(94.95,517.622,o),
(79.999,502.671,o),
(79.999,484.228,c),
(79.999,465.781,o),
(94.95,450.829,o),
(113.392,450.829,c)
);
},
{
closed = 1;
nodes = (
(338.809,292.205,l),
(372.203,292.205,o),
(405.602,325.599,o),
(405.602,358.998,c),
(405.602,484.225,l),
(405.602,502.673,o),
(420.548,517.619,o),
(438.996,517.619,c),
(457.438,517.619,o),
(472.39,502.673,o),
(472.39,484.225,c),
(472.39,358.998,l),
(472.39,340.55,o),
(457.438,325.599,o),
(438.996,325.599,c),
(405.602,325.599,o),
(372.203,292.205,o),
(372.203,258.811,c),
(372.203,240.369,o),
(357.251,225.417,o),
(338.809,225.417,c),
(213.576,225.417,l),
(180.182,225.417,o),
(146.789,192.023,o),
(146.789,158.624,c),
(146.789,33.397,l),
(146.789,14.949,o),
(131.837,0.003,o),
(113.395,0.003,c),
(94.952,0.003,o),
(80.001,14.949,o),
(80.001,33.397,c),
(80.001,158.624,l),
(80.001,177.071,o),
(94.952,192.023,o),
(113.395,192.023,c),
(146.789,192.023,o),
(180.182,225.417,o),
(180.182,258.811,c),
(180.182,277.253,o),
(195.134,292.205,o),
(213.576,292.205,c)
);
},
{
closed = 1;
nodes = (
(438.997,0,l),
(457.439,0,o),
(472.391,14.952,o),
(472.391,33.394,c),
(472.391,51.836,o),
(457.439,66.793,o),
(438.997,66.793,c),
(205.229,66.793,l),
(186.787,66.793,o),
(171.835,51.836,o),
(171.835,33.394,c),
(171.835,14.952,o),
(186.787,0,o),
(205.229,0,c)
);
},
{
closed = 1;
nodes = (
(338.809,292.205,l),
(372.203,292.205,o),
(405.602,325.599,o),
(405.602,358.998,c),
(405.602,484.225,l),
(405.602,502.673,o),
(420.548,517.619,o),
(438.996,517.619,c),
(457.438,517.619,o),
(472.39,502.673,o),
(472.39,484.225,c),
(472.39,358.998,l),
(472.39,340.55,o),
(457.438,325.599,o),
(438.996,325.599,c),
(405.602,325.599,o),
(372.203,292.205,o),
(372.203,258.811,c),
(372.203,240.369,o),
(357.251,225.417,o),
(338.809,225.417,c),
(213.576,225.417,l),
(180.182,225.417,o),
(146.789,192.023,o),
(146.789,158.624,c),
(146.789,33.397,l),
(146.789,14.949,o),
(131.837,0.003,o),
(113.395,0.003,c),
(94.952,0.003,o),
(80.001,14.949,o),
(80.001,33.397,c),
(80.001,158.624,l),
(80.001,177.071,o),
(94.952,192.023,o),
(113.395,192.023,c),
(146.789,192.023,o),
(180.182,225.417,o),
(180.182,258.811,c),
(180.182,277.253,o),
(195.134,292.205,o),
(213.576,292.205,c)
);
},
{
closed = 1;
nodes = (
(338.809,292.205,l),
(372.203,292.205,o),
(405.602,325.599,o),
(405.602,358.998,c),
(405.602,484.225,l),
(405.602,502.673,o),
(420.548,517.619,o),
(438.996,517.619,c),
(457.438,517.619,o),
(472.39,502.673,o),
(472.39,484.225,c),
(472.39,358.998,l),
(472.39,340.55,o),
(457.438,325.599,o),
(438.996,325.599,c),
(405.602,325.599,o),
(372.203,292.205,o),
(372.203,258.811,c),
(372.203,240.369,o),
(357.251,225.417,o),
(338.809,225.417,c),
(213.576,225.417,l),
(180.182,225.417,o),
(146.789,192.023,o),
(146.789,158.624,c),
(146.789,33.397,l),
(146.789,14.949,o),
(131.837,0.003,o),
(113.395,0.003,c),
(94.952,0.003,o),
(80.001,14.949,o),
(80.001,33.397,c),
(80.001,158.624,l),
(80.001,177.071,o),
(94.952,192.023,o),
(113.395,192.023,c),
(146.789,192.023,o),
(180.182,225.417,o),
(180.182,258.811,c),
(180.182,277.253,o),
(195.134,292.205,o),
(213.576,292.205,c)
);
}
);
width = 552.39;
},
{
layerId = "6B2E2D58-830D-4489-B075-47D8B481EF18";
shapes = (
{
closed = 1;
nodes = (
(347.161,733.207,l),
(365.603,733.207,o),
(380.555,748.158,o),
(380.555,766.606,c),
(380.555,785.048,o),
(365.603,800,o),
(347.161,800,c),
(113.392,800,l),
(94.95,800,o),
(79.999,785.048,o),
(79.999,766.606,c),
(79.999,748.158,o),
(94.95,733.207,o),
(113.392,733.207,c)
);
},
{
closed = 1;
nodes = (
(338.809,574.583,l),
(372.203,574.583,o),
(405.602,607.976,o),
(405.602,641.376,c),
(405.602,766.603,l),
(405.602,785.051,o),
(420.548,799.997,o),
(438.996,799.997,c),
(457.438,799.997,o),
(472.39,785.051,o),
(472.39,766.603,c),
(472.39,641.376,l),
(472.39,622.928,o),
(457.438,607.976,o),
(438.996,607.976,c),
(405.602,607.976,o),
(372.203,574.583,o),
(372.203,541.189,c),
(372.203,522.746,o),
(357.251,507.795,o),
(338.809,507.795,c),
(213.576,507.795,l),
(180.182,507.795,o),
(146.789,474.401,o),
(146.789,441.002,c),
(146.789,440.829,l),
(146.789,422.381,o),
(131.837,407.435,o),
(113.395,407.435,c),
(94.952,407.435,o),
(80,422.381,o),
(80,440.829,c),
(80,441.002,l),
(80,459.449,o),
(94.952,474.401,o),
(113.395,474.401,c),
(146.789,474.401,o),
(180.182,507.795,o),
(180.182,541.189,c),
(180.182,559.631,o),
(195.134,574.583,o),
(213.576,574.583,c)
);
},
{
closed = 1;
nodes = (
(438.997,0,l),
(457.439,0,o),
(472.391,14.952,o),
(472.391,33.394,c),
(472.391,51.836,o),
(457.439,66.793,o),
(438.997,66.793,c),
(205.229,66.793,l),
(186.787,66.793,o),
(171.835,51.836,o),
(171.835,33.394,c),
(171.835,14.952,o),
(186.787,0,o),
(205.229,0,c)
);
},
{
closed = 1;
nodes = (
(338.809,292.203,l),
(372.203,292.203,o),
(405.602,325.596,o),
(405.602,358.996,c),
(405.602,359.781,l),
(405.602,378.229,o),
(420.548,393.175,o),
(438.996,393.175,c),
(457.438,393.175,o),
(472.39,378.229,o),
(472.39,359.781,c),
(472.39,358.996,l),
(472.39,340.548,o),
(457.438,325.596,o),
(438.996,325.596,c),
(405.602,325.596,o),
(372.203,292.203,o),
(372.203,258.809,c),
(372.203,240.366,o),
(357.251,225.415,o),
(338.809,225.415,c),
(213.576,225.415,l),
(180.182,225.415,o),
(146.789,192.021,o),
(146.789,158.622,c),
(146.789,33.394,l),
(146.789,14.947,o),
(131.837,0,o),
(113.395,0,c),
(94.952,0,o),
(80.001,14.947,o),
(80.001,33.394,c),
(80.001,158.622,l),
(80.001,177.069,o),
(94.952,192.021,o),
(113.395,192.021,c),
(146.789,192.021,o),
(180.182,225.415,o),
(180.182,258.809,c),
(180.182,277.251,o),
(195.134,292.203,o),
(213.576,292.203,c)
);
},
{
closed = 1;
nodes = (
(338.809,435.55,l),
(372.203,435.55,o),
(405.602,468.943,o),
(405.602,502.343,c),
(405.602,657.218,l),
(405.602,675.666,o),
(420.548,690.612,o),
(438.996,690.612,c),
(457.438,690.612,o),
(472.39,675.666,o),
(472.39,657.218,c),
(472.39,502.343,l),
(472.39,483.895,o),
(457.438,468.943,o),
(438.996,468.943,c),
(405.602,468.943,o),
(372.203,435.55,o),
(372.203,402.156,c),
(372.203,383.713,o),
(357.251,368.762,o),
(338.809,368.762,c),
(213.576,368.762,l),
(180.182,368.762,o),
(146.789,335.368,o),
(146.789,301.969,c),
(146.789,143.835,l),
(146.789,125.388,o),
(131.837,110.441,o),
(113.395,110.441,c),
(94.952,110.441,o),
(80.001,125.388,o),
(80.001,143.835,c),
(80.001,301.969,l),
(80.001,320.416,o),
(94.952,335.368,o),
(113.395,335.368,c),
(146.789,335.368,o),
(180.182,368.762,o),
(180.182,402.156,c),
(180.182,420.598,o),
(195.134,435.55,o),
(213.576,435.55,c)
);
}
);
width = 552.39;
}
);
note = z;
unicode = 122;
},
{
glyphname = zero;
lastChange = "2024-04-06 01:14:49 +0000";
layers = (
{
layerId = m01;
shapes = (
{
closed = 1;
nodes = (
(256.017,634.327,o),
(287.611,602.739,o),
(327.101,602.739,c),
(340.189,602.739,o),
(350.793,592.127,o),
(350.793,579.04,c),
(350.793,199.933,l),
(350.793,186.853,o),
(340.189,176.241,o),
(327.101,176.241,c),
(287.611,176.241,o),
(256.017,144.646,o),
(256.017,113.06,c),
(256.017,100.283,o),
(248.317,88.76,o),
(236.513,83.87,c),
(224.71,78.981,o),
(211.124,81.682,o),
(202.084,90.722,c),
(193.053,99.753,o),
(190.344,113.34,o),
(195.241,125.15,c),
(200.131,136.954,o),
(211.646,144.646,o),
(224.422,144.646,c),
(256.017,144.646,o),
(287.611,176.241,o),
(287.611,207.836,c),
(287.611,571.145,l),
(287.611,602.739,o),
(256.017,634.327,o),
(224.422,634.327,c),
(211.646,634.327,o),
(200.131,642.027,o),
(195.241,653.83,c),
(190.344,665.633,o),
(193.053,679.227,o),
(202.084,688.259,c),
(211.124,697.298,o),
(224.71,700,o),
(236.513,695.11,c),
(248.317,690.221,o),
(256.017,678.698,o),
(256.017,665.921,c)
);
},
{
closed = 1;
nodes = (
(192.832,555.346,o),
(161.238,523.759,o),
(121.748,523.759,c),
(108.66,523.759,o),
(98.056,513.147,o),
(98.056,500.059,c),
(98.056,120.952,l),
(98.056,107.873,o),
(108.66,97.261,o),
(121.748,97.261,c),
(161.238,97.261,o),
(192.832,65.665,o),
(192.832,34.079,c),
(192.832,21.302,o),
(200.533,9.779,o),
(212.336,4.889,c),
(224.132,0,o),
(237.726,2.702,o),
(246.765,11.741,c),
(255.796,20.772,o),
(258.506,34.359,o),
(253.609,46.17,c),
(248.719,57.973,o),
(237.204,65.665,o),
(224.428,65.665,c),
(192.832,65.665,o),
(161.238,97.261,o),
(161.238,128.855,c),
(161.238,492.164,l),
(161.238,523.759,o),
(192.832,555.346,o),
(224.428,555.346,c),
(237.204,555.346,o),
(248.719,563.046,o),
(253.609,574.85,c),
(258.506,586.652,o),
(255.796,600.246,o),
(246.765,609.278,c),
(237.726,618.318,o),
(224.14,621.019,o),
(212.336,616.129,c),
(200.533,611.24,o),
(192.832,599.717,o),
(192.832,586.94,c)
);
},
{
closed = 1;
nodes = (
(256.017,634.327,o),
(287.611,602.739,o),
(327.101,602.739,c),
(340.189,602.739,o),
(350.793,592.127,o),
(350.793,579.04,c),
(350.793,199.933,l),
(350.793,186.853,o),
(340.189,176.241,o),
(327.101,176.241,c),
(287.611,176.241,o),
(256.017,144.646,o),
(256.017,113.06,c),
(256.017,100.283,o),
(248.317,88.76,o),
(236.513,83.87,c),
(224.71,78.981,o),
(211.124,81.682,o),
(202.084,90.722,c),
(193.053,99.753,o),
(190.344,113.34,o),
(195.241,125.15,c),
(200.131,136.954,o),
(211.646,144.646,o),
(224.422,144.646,c),
(256.017,144.646,o),
(287.611,176.241,o),
(287.611,207.836,c),
(287.611,571.145,l),
(287.611,602.739,o),
(256.017,634.327,o),
(224.422,634.327,c),
(211.646,634.327,o),
(200.131,642.027,o),
(195.241,653.83,c),
(190.344,665.633,o),
(193.053,679.227,o),
(202.084,688.259,c),
(211.124,697.298,o),
(224.71,700,o),
(236.513,695.11,c),
(248.317,690.221,o),
(256.017,678.698,o),
(256.017,665.921,c)
);
},
{
closed = 1;
nodes = (
(192.832,555.346,o),
(161.238,523.759,o),
(121.748,523.759,c),
(108.66,523.759,o),
(98.056,513.147,o),
(98.056,500.059,c),
(98.056,120.952,l),
(98.056,107.873,o),
(108.66,97.261,o),
(121.748,97.261,c),
(161.238,97.261,o),
(192.832,65.665,o),
(192.832,34.079,c),
(192.832,21.302,o),
(200.533,9.779,o),
(212.336,4.889,c),
(224.132,0,o),
(237.726,2.702,o),
(246.765,11.741,c),
(255.796,20.772,o),
(258.506,34.359,o),
(253.609,46.17,c),
(248.719,57.973,o),
(237.204,65.665,o),
(224.428,65.665,c),
(192.832,65.665,o),
(161.238,97.261,o),
(161.238,128.855,c),
(161.238,492.164,l),
(161.238,523.759,o),
(192.832,555.346,o),
(224.428,555.346,c),
(237.204,555.346,o),
(248.719,563.046,o),
(253.609,574.85,c),
(258.506,586.652,o),
(255.796,600.246,o),
(246.765,609.278,c),
(237.726,618.318,o),
(224.14,621.019,o),
(212.336,616.129,c),
(200.533,611.24,o),
(192.832,599.717,o),
(192.832,586.94,c)
);
}
);
width = 448.85;
},
{
layerId = "6B2E2D58-830D-4489-B075-47D8B481EF18";
shapes = (
{
closed = 1;
nodes = (
(256.017,634.327,o),
(287.612,602.74,o),
(327.101,602.74,c),
(340.189,602.74,o),
(350.793,592.128,o),
(350.793,579.04,c),
(350.793,199.933,l),
(350.793,186.853,o),
(340.189,176.241,o),
(327.101,176.241,c),
(287.612,176.241,o),
(256.017,144.646,o),
(256.017,113.059,c),
(256.017,100.283,o),
(248.317,88.76,o),
(236.513,83.87,c),
(224.71,78.981,o),
(211.124,81.682,o),
(202.084,90.722,c),
(193.053,99.753,o),
(190.343,113.34,o),
(195.241,125.151,c),
(200.13,136.954,o),
(211.645,144.646,o),
(224.422,144.646,c),
(256.017,144.646,o),
(287.612,176.241,o),
(287.612,207.836,c),
(287.612,571.145,l),
(287.612,602.74,o),
(256.017,634.327,o),
(224.422,634.327,c),
(211.645,634.327,o),
(200.13,642.027,o),
(195.241,653.83,c),
(190.343,665.633,o),
(193.053,679.227,o),
(202.084,688.259,c),
(211.124,697.298,o),
(224.71,700,o),
(236.513,695.111,c),
(248.317,690.221,o),
(256.017,678.698,o),
(256.017,665.922,c)
);
},
{
closed = 1;
nodes = (
(192.833,555.346,o),
(161.238,523.759,o),
(121.748,523.759,c),
(108.66,523.759,o),
(98.056,513.147,o),
(98.056,500.059,c),
(98.056,120.952,l),
(98.056,107.872,o),
(108.66,97.26,o),
(121.748,97.26,c),
(161.238,97.26,o),
(192.833,65.665,o),
(192.833,34.078,c),
(192.833,21.302,o),
(200.533,9.779,o),
(212.336,4.889,c),
(224.14,0,o),
(237.726,2.702,o),
(246.765,11.741,c),
(255.796,20.773,o),
(258.506,34.359,o),
(253.609,46.17,c),
(248.719,57.973,o),
(237.204,65.665,o),
(224.427,65.665,c),
(192.833,65.665,o),
(161.238,97.26,o),
(161.238,128.855,c),
(161.238,492.164,l),
(161.238,523.759,o),
(192.833,555.346,o),
(224.427,555.346,c),
(237.204,555.346,o),
(248.719,563.046,o),
(253.609,574.849,c),
(258.506,586.653,o),
(255.796,600.247,o),
(246.765,609.278,c),
(237.726,618.318,o),
(224.139,621.019,o),
(212.336,616.13,c),
(200.533,611.24,o),
(192.833,599.717,o),
(192.833,586.941,c)
);
},
{
closed = 1;
nodes = (
(256.017,713.3,o),
(287.612,681.713,o),
(327.101,681.713,c),
(340.189,681.713,o),
(350.793,671.101,o),
(350.793,658.013,c),
(350.793,278.906,l),
(350.793,265.826,o),
(340.189,255.214,o),
(327.101,255.214,c),
(287.612,255.214,o),
(256.017,223.619,o),
(256.017,192.032,c),
(256.017,179.256,o),
(248.317,167.733,o),
(236.513,162.843,c),
(224.71,157.954,o),
(211.124,160.655,o),
(202.084,169.695,c),
(193.053,178.726,o),
(190.343,192.313,o),
(195.241,204.124,c),
(200.13,215.927,o),
(211.645,223.619,o),
(224.422,223.619,c),
(256.017,223.619,o),
(287.612,255.214,o),
(287.612,286.809,c),
(287.612,675.996,l),
(287.612,681.713,o),
(256.017,713.3,o),
(224.422,713.3,c),
(211.645,713.3,o),
(200.13,721,o),
(195.241,732.803,c),
(190.343,744.606,o),
(193.053,758.2,o),
(202.084,767.232,c),
(211.124,776.271,o),
(224.71,778.973,o),
(236.513,774.084,c),
(248.317,769.194,o),
(256.017,757.671,o),
(256.017,744.895,c)
);
},
{
closed = 1;
nodes = (
(192.833,634.319,o),
(161.238,602.732,o),
(121.748,602.732,c),
(108.66,602.732,o),
(98.056,592.12,o),
(98.056,579.032,c),
(98.056,199.925,l),
(98.056,186.845,o),
(108.66,176.233,o),
(121.748,176.233,c),
(161.238,176.233,o),
(192.833,144.638,o),
(192.833,113.051,c),
(192.833,100.275,o),
(200.533,88.752,o),
(212.336,83.862,c),
(224.14,78.973,o),
(237.726,81.675,o),
(246.765,90.714,c),
(255.796,99.746,o),
(258.506,113.332,o),
(253.609,125.143,c),
(248.719,136.946,o),
(237.204,144.638,o),
(224.427,144.638,c),
(192.833,144.638,o),
(161.238,176.233,o),
(161.238,207.828,c),
(161.238,571.137,l),
(161.238,602.732,o),
(192.833,634.319,o),
(224.427,634.319,c),
(237.204,634.319,o),
(248.719,642.019,o),
(253.609,653.822,c),
(258.506,665.626,o),
(255.796,679.22,o),
(246.765,688.251,c),
(237.726,697.291,o),
(224.139,699.992,o),
(212.336,695.103,c),
(200.533,690.213,o),
(192.833,678.69,o),
(192.833,665.914,c)
);
}
);
width = 448.85;
}
);
note = zero;
unicode = 48;
},
{
glyphname = one;
lastChange = "2024-04-06 00:15:51 +0000";
layers = (
{
layerId = m01;
shapes = (
{
closed = 1;
nodes = (
(143.419,634.093,o),
(175.119,602.385,o),
(175.119,570.686,c),
(175.119,31.7,l),
(175.119,14.189,o),
(189.316,0,o),
(206.826,0,c),
(224.336,0,o),
(238.534,14.189,o),
(238.534,31.7,c),
(238.534,578.609,l),
(238.534,591.743,o),
(227.884,602.385,o),
(214.749,602.385,c),
(175.119,602.385,o),
(143.419,634.093,o),
(143.419,665.8,c),
(143.419,678.622,o),
(135.692,690.178,o),
(123.846,695.085,c),
(112.001,700,o),
(98.359,697.281,o),
(89.295,688.217,c),
(80.223,679.146,o),
(77.512,665.511,o),
(82.419,653.666,c),
(87.326,641.82,o),
(98.89,634.093,o),
(111.712,634.093,c)
);
},
{
closed = 1;
nodes = (
(143.419,634.093,o),
(175.119,602.385,o),
(175.119,570.686,c),
(175.119,31.7,l),
(175.119,14.189,o),
(189.316,0,o),
(206.826,0,c),
(224.336,0,o),
(238.534,14.189,o),
(238.534,31.7,c),
(238.534,578.609,l),
(238.534,591.743,o),
(227.884,602.385,o),
(214.749,602.385,c),
(175.119,602.385,o),
(143.419,634.093,o),
(143.419,665.8,c),
(143.419,678.622,o),
(135.692,690.178,o),
(123.846,695.085,c),
(112.001,700,o),
(98.359,697.281,o),
(89.295,688.217,c),
(80.223,679.146,o),
(77.512,665.511,o),
(82.419,653.666,c),
(87.326,641.82,o),
(98.89,634.093,o),
(111.712,634.093,c)
);
}
);
width = 318.53;
},
{
layerId = "6B2E2D58-830D-4489-B075-47D8B481EF18";
shapes = (
{
closed = 1;
nodes = (
(143.419,634.093,o),
(175.119,602.385,o),
(175.119,570.686,c),
(175.119,31.7,l),
(175.119,14.189,o),
(189.316,0,o),
(206.826,0,c),
(224.336,0,o),
(238.534,14.189,o),
(238.534,31.7,c),
(238.534,578.609,l),
(238.534,591.743,o),
(227.884,602.385,o),
(214.749,602.385,c),
(175.119,602.385,o),
(143.419,634.093,o),
(143.419,665.8,c),
(143.419,678.622,o),
(135.692,690.178,o),
(123.846,695.085,c),
(112.001,700,o),
(98.359,697.281,o),
(89.295,688.217,c),
(80.223,679.146,o),
(77.512,665.511,o),
(82.419,653.666,c),
(87.326,641.82,o),
(98.89,634.093,o),
(111.712,634.093,c)
);
},
{
closed = 1;
nodes = (
(143.419,737.639,o),
(175.119,705.931,o),
(175.119,674.232,c),
(175.119,135.246,l),
(175.119,117.735,o),
(189.316,103.546,o),
(206.826,103.546,c),
(224.336,103.546,o),
(238.534,117.735,o),
(238.534,135.246,c),
(238.534,682.155,l),
(238.534,695.289,o),
(227.884,705.931,o),
(214.749,705.931,c),
(175.119,705.931,o),
(143.419,737.639,o),
(143.419,769.346,c),
(143.419,782.168,o),
(135.692,793.724,o),
(123.846,798.631,c),
(112.001,803.546,o),
(98.359,800.827,o),
(89.295,791.763,c),
(80.223,782.692,o),
(77.512,769.057,o),
(82.419,757.212,c),
(87.326,745.366,o),
(98.89,737.639,o),
(111.712,737.639,c)
);
}
);
width = 318.53;
}
);
note = one;
unicode = 49;
},
{
glyphname = two;
lastChange = "2024-04-06 00:15:18 +0000";
layers = (
{
layerId = m01;
shapes = (
{
closed = 1;
nodes = (
(79.999,262.501,l),
(79.999,280.074,o),
(94.247,294.322,o),
(111.82,294.322,c),
(143.633,294.322,o),
(175.454,326.134,o),
(175.454,357.955,c),
(175.454,375.528,o),
(189.701,389.776,o),
(207.274,389.776,c),
(254.997,389.776,l),
(286.818,389.776,o),
(318.639,421.589,o),
(318.639,453.409,c),
(318.639,572.725,l),
(318.639,604.546,o),
(286.818,636.366,o),
(254.997,636.366,c),
(215.225,636.366,l),
(183.405,636.366,o),
(151.592,604.546,o),
(151.592,572.725,c),
(151.592,559.857,o),
(143.837,548.26,o),
(131.949,543.335,c),
(120.061,538.411,o),
(106.37,541.132,o),
(97.274,550.228,c),
(88.17,559.332,o),
(85.449,573.015,o),
(90.374,584.903,c),
(95.298,596.791,o),
(106.903,604.546,o),
(119.771,604.546,c),
(151.592,604.546,o),
(183.405,636.366,o),
(183.405,676.138,c),
(183.405,689.32,o),
(194.093,700,o),
(207.274,700,c),
(262.956,700,l),
(276.13,700,o),
(286.818,689.32,o),
(286.818,676.138,c),
(286.818,636.366,o),
(318.639,604.546,o),
(350.452,604.546,c),
(368.024,604.546,o),
(382.272,590.298,o),
(382.272,572.725,c),
(382.272,453.409,l),
(382.272,435.837,o),
(368.024,421.589,o),
(350.452,421.589,c),
(318.639,421.589,o),
(286.818,389.776,o),
(286.818,357.955,c),
(286.818,340.382,o),
(272.57,326.134,o),
(254.997,326.134,c),
(207.274,326.134,l),
(175.454,326.134,o),
(143.633,294.322,o),
(143.633,262.501,c),
(143.633,127.275,l),
(143.633,95.454,o),
(177.484,63.641,o),
(209.98,63.641,c),
(355.698,63.641,l),
(373.333,63.641,o),
(388.193,49.699,o),
(388.193,31.821,c),
(388.193,13.942,o),
(373.333,0,o),
(355.698,0,c),
(209.98,0,l),
(192.344,0,o),
(177.484,13.942,o),
(177.484,31.821,c),
(177.484,63.641,o),
(144.989,95.454,o),
(112.494,95.454,c),
(94.859,95.454,o),
(79.999,109.396,o),
(79.999,127.275,c)
);
},
{
closed = 1;
nodes = (
(79.999,262.501,l),
(79.999,280.074,o),
(94.247,294.322,o),
(111.82,294.322,c),
(143.633,294.322,o),
(175.454,326.134,o),
(175.454,357.955,c),
(175.454,375.528,o),
(189.701,389.776,o),
(207.274,389.776,c),
(254.997,389.776,l),
(286.818,389.776,o),
(318.639,421.589,o),
(318.639,453.409,c),
(318.639,572.725,l),
(318.639,604.546,o),
(286.818,636.366,o),
(254.997,636.366,c),
(215.225,636.366,l),
(183.405,636.366,o),
(151.592,604.546,o),
(151.592,572.725,c),
(151.592,559.857,o),
(143.837,548.26,o),
(131.949,543.335,c),
(120.061,538.411,o),
(106.37,541.132,o),
(97.274,550.228,c),
(88.17,559.332,o),
(85.449,573.015,o),
(90.374,584.903,c),
(95.298,596.791,o),
(106.903,604.546,o),
(119.771,604.546,c),
(151.592,604.546,o),
(183.405,636.366,o),
(183.405,676.138,c),
(183.405,689.32,o),
(194.093,700,o),
(207.274,700,c),
(262.956,700,l),
(276.13,700,o),
(286.818,689.32,o),
(286.818,676.138,c),
(286.818,636.366,o),
(318.639,604.546,o),
(350.452,604.546,c),
(368.024,604.546,o),
(382.272,590.298,o),
(382.272,572.725,c),
(382.272,453.409,l),
(382.272,435.837,o),
(368.024,421.589,o),
(350.452,421.589,c),
(318.639,421.589,o),
(286.818,389.776,o),
(286.818,357.955,c),
(286.818,340.382,o),
(272.57,326.134,o),
(254.997,326.134,c),
(207.274,326.134,l),
(175.454,326.134,o),
(143.633,294.322,o),
(143.633,262.501,c),
(143.633,127.275,l),
(143.633,95.454,o),
(177.484,63.641,o),
(209.98,63.641,c),
(355.698,63.641,l),
(373.333,63.641,o),
(388.193,49.699,o),
(388.193,31.821,c),
(388.193,13.942,o),
(373.333,0,o),
(355.698,0,c),
(209.98,0,l),
(192.344,0,o),
(177.484,13.942,o),
(177.484,31.821,c),
(177.484,63.641,o),
(144.989,95.454,o),
(112.494,95.454,c),
(94.859,95.454,o),
(79.999,109.396,o),
(79.999,127.275,c)
);
}
);
width = 468.19;
},
{
layerId = "6B2E2D58-830D-4489-B075-47D8B481EF18";
shapes = (
{
closed = 1;
nodes = (
(80,262.501,l),
(80,280.074,o),
(94.247,294.322,o),
(111.82,294.322,c),
(143.633,294.322,o),
(175.454,326.134,o),
(175.454,357.955,c),
(175.454,375.528,o),
(189.701,389.776,o),
(207.274,389.776,c),
(254.997,389.776,l),
(286.818,389.776,o),
(318.639,421.589,o),
(318.639,453.409,c),
(318.639,572.725,l),
(318.639,604.546,o),
(286.818,636.366,o),
(254.997,636.366,c),
(215.225,636.366,l),
(183.405,636.366,o),
(151.592,604.546,o),
(151.592,572.725,c),
(151.592,559.857,o),
(143.837,548.26,o),
(131.949,543.335,c),
(120.061,538.411,o),
(106.37,541.132,o),
(97.274,550.228,c),
(88.17,559.332,o),
(85.449,573.015,o),
(90.374,584.903,c),
(95.298,596.791,o),
(106.903,604.546,o),
(119.771,604.546,c),
(151.592,604.546,o),
(183.405,636.366,o),
(183.405,676.138,c),
(183.405,689.32,o),
(194.093,700,o),
(207.274,700,c),
(262.956,700,l),
(276.13,700,o),
(286.818,689.32,o),
(286.818,676.138,c),
(286.818,636.366,o),
(318.639,604.546,o),
(350.452,604.546,c),
(368.024,604.546,o),
(382.272,590.298,o),
(382.272,572.725,c),
(382.272,453.409,l),
(382.272,435.837,o),
(368.024,421.589,o),
(350.452,421.589,c),
(318.639,421.589,o),
(286.818,389.776,o),
(286.818,357.955,c),
(286.818,340.382,o),
(272.57,326.134,o),
(254.997,326.134,c),
(207.274,326.134,l),
(175.454,326.134,o),
(143.633,294.322,o),
(143.633,262.501,c),
(143.633,127.275,l),
(143.633,95.454,o),
(177.484,63.641,o),
(209.98,63.641,c),
(355.698,63.641,l),
(373.333,63.641,o),
(388.193,49.699,o),
(388.193,31.821,c),
(388.193,13.942,o),
(373.333,0,o),
(355.698,0,c),
(209.98,0,l),
(192.344,0,o),
(177.484,13.942,o),
(177.484,31.821,c),
(177.484,63.641,o),
(144.989,95.454,o),
(112.494,95.454,c),
(94.859,95.454,o),
(80,109.396,o),
(80,127.275,c)
);
},
{
closed = 1;
nodes = (
(79.999,362.501,l),
(79.999,380.074,o),
(94.247,394.322,o),
(111.82,394.322,c),
(143.633,394.322,o),
(175.454,426.134,o),
(175.454,457.955,c),
(175.454,475.528,o),
(189.701,489.776,o),
(207.274,489.776,c),
(254.997,489.776,l),
(286.818,489.776,o),
(318.639,521.589,o),
(318.639,553.409,c),
(318.639,672.725,l),
(318.639,704.546,o),
(286.818,736.366,o),
(254.997,736.366,c),
(215.225,736.366,l),
(183.405,736.366,o),
(151.592,704.546,o),
(151.592,672.725,c),
(151.592,659.857,o),
(143.837,648.26,o),
(131.949,643.335,c),
(120.061,638.411,o),
(106.37,641.132,o),
(97.274,650.228,c),
(88.17,659.332,o),
(85.449,673.015,o),
(90.374,684.903,c),
(95.298,696.791,o),
(106.903,704.546,o),
(119.771,704.546,c),
(151.592,704.546,o),
(183.405,736.366,o),
(183.405,776.138,c),
(183.405,789.32,o),
(194.093,800,o),
(207.274,800,c),
(262.956,800,l),
(276.13,800,o),
(286.818,789.32,o),
(286.818,776.138,c),
(286.818,736.366,o),
(318.639,704.546,o),
(350.452,704.546,c),
(368.024,704.546,o),
(382.272,690.298,o),
(382.272,672.725,c),
(382.272,553.409,l),
(382.272,535.837,o),
(368.024,521.589,o),
(350.452,521.589,c),
(318.639,521.589,o),
(286.818,489.776,o),
(286.818,457.955,c),
(286.818,440.382,o),
(272.57,426.134,o),
(254.997,426.134,c),
(207.274,426.134,l),
(175.454,426.134,o),
(143.633,394.322,o),
(143.633,362.501,c),
(143.633,227.275,l),
(143.633,195.454,o),
(177.484,163.641,o),
(209.98,163.641,c),
(355.698,163.641,l),
(373.333,163.641,o),
(388.193,149.699,o),
(388.193,131.821,c),
(388.193,113.942,o),
(373.333,100,o),
(355.698,100,c),
(209.98,100,l),
(192.344,100,o),
(177.484,113.942,o),
(177.484,131.821,c),
(177.484,163.641,o),
(144.989,195.454,o),
(112.494,195.454,c),
(94.859,195.454,o),
(79.999,209.396,o),
(79.999,227.275,c)
);
}
);
width = 468.19;
}
);
note = two;
unicode = 50;
},
